<svg width="924" height="585" viewBox="0 0 924 585" fill="none" xmlns="http://www.w3.org/2000/svg">
<path d="M0.742445 242.31C0.742445 236.157 3.67404 233.666 9.97777 233.666C13.0563 233.666 15.6952 234.839 17.3077 237.476L43.1093 279.085H43.256V240.699C43.256 235.864 45.8946 233.52 50.4391 233.52C54.9836 233.52 57.4761 235.864 57.4761 240.699V291.538C57.4761 297.398 54.9836 300.768 48.6802 300.768C43.9889 300.768 42.5231 299.742 40.6173 296.812L14.9626 256.375H14.8158V293.735C14.8158 298.57 12.1768 300.914 7.77888 300.914C3.38094 300.914 0.595703 298.57 0.595703 293.735V242.31H0.742445Z" fill="#1E140A"/>
<path d="M100.869 289.195C114.357 289.195 118.901 278.793 118.901 266.34C118.901 253.886 112.89 245.096 100.869 245.096C88.8485 245.096 82.8378 253.886 82.8378 266.34C82.8378 278.793 86.9425 289.195 100.869 289.195ZM100.869 233.375C122.126 233.375 133.707 247.44 133.707 266.486C133.707 285.532 123.006 301.209 100.869 301.209C78.733 301.209 68.1777 286.118 68.1777 266.486C68.1777 246.854 79.7593 233.375 100.869 233.375Z" fill="#1E140A"/>
<path d="M159.217 263.556H174.023C179.594 263.556 185.165 262.09 185.165 254.765C185.165 247.879 180.913 246.121 174.463 246.121H159.217V263.556ZM144.41 243.484C144.41 236.891 147.782 234.84 153.059 234.84H177.688C195.28 234.84 199.971 244.509 199.971 252.86C199.971 259.893 195.867 266.779 188.83 268.39C196.453 269.709 197.773 275.13 197.773 281.722C197.773 289.195 199.678 291.978 199.678 295.055C199.678 298.425 196.159 300.769 192.788 300.769C184.725 300.769 183.992 293.004 183.992 290.367C183.992 279.085 181.94 274.397 173.877 274.397H159.363V293.444C159.363 297.839 156.431 300.769 152.033 300.769C147.635 300.769 144.703 297.839 144.703 293.444V243.484H144.41Z" fill="#1E140A"/>
<path d="M225.918 287.729H238.379C250.107 287.729 253.918 277.181 253.918 267.218C253.918 254.472 249.081 246.707 238.233 246.707H225.918V287.729ZM211.111 243.484C211.111 236.891 214.484 234.84 219.761 234.84H237.793C253.918 234.84 268.725 241.872 268.725 267.218C268.725 287.73 257.291 299.597 237.646 299.597H219.908C214.63 299.597 211.258 297.546 211.258 290.953V243.484H211.111Z" fill="#1E140A"/>
<path d="M279.426 240.992C279.426 236.596 282.358 233.666 286.756 233.666C291.154 233.666 294.086 236.596 294.086 240.992V293.296C294.086 297.691 291.154 300.621 286.756 300.621C282.358 300.621 279.426 297.691 279.426 293.296V240.992Z" fill="#1E140A"/>
<path d="M341.878 262.089C355.365 265.165 358.737 273.223 358.737 280.696C358.737 292.416 349.941 301.06 332.056 301.06C313.291 301.06 304.936 291.684 304.936 284.651C304.936 280.989 307.574 278.498 311.092 278.498C319.155 278.498 316.957 290.219 331.91 290.219C339.533 290.219 343.784 285.97 343.784 281.721C343.784 279.084 342.465 276.301 337.481 274.982L320.768 270.733C307.281 267.363 304.936 259.892 304.936 253.005C304.936 238.648 318.276 233.227 330.737 233.227C342.318 233.227 355.806 239.673 355.806 248.317C355.806 251.98 352.58 254.177 349.061 254.177C342.171 254.177 343.491 244.507 329.711 244.507C322.821 244.507 319.009 247.584 319.009 252.126C319.009 256.668 324.433 258.133 329.124 259.158L341.439 261.942L341.878 262.089Z" fill="#1E140A"/>
<path d="M369.584 240.992C369.584 236.596 372.516 233.666 376.914 233.666C381.312 233.666 384.244 236.596 384.244 240.992V262.382L407.406 236.89C409.166 235.131 410.631 233.666 413.27 233.666C416.789 233.666 420.307 235.864 420.307 239.673C420.307 241.871 419.134 243.482 417.815 244.655L402.715 260.624L420.6 287.875C421.92 289.926 423.386 291.83 423.386 293.735C423.386 299.156 419.281 300.914 415.909 300.914C412.977 300.914 411.365 300.182 409.312 297.105L392.307 270.88L384.244 278.938V293.588C384.244 297.984 381.312 300.914 376.914 300.914C372.516 300.914 369.584 297.984 369.584 293.588V241.284V240.992Z" fill="#1E140A"/>
<path d="M11.2979 356.882C12.7639 356.735 79.7593 356.882 79.7593 356.882C79.7593 356.882 113.623 422.518 114.65 423.543C116.556 425.301 119.048 425.448 120.953 423.543C121.98 422.371 156.284 357.174 156.284 357.174C156.284 357.174 219.175 357.028 221.08 357.028C222.986 357.028 225.185 359.665 225.625 362.595C226.065 365.379 225.918 365.526 225.478 367.137C224.452 368.895 152.179 501.048 152.179 509.836V572.545C152.179 576.354 151.3 578.989 147.781 578.989C144.263 578.989 88.7019 578.843 85.037 578.843C81.3721 578.843 80.7856 577.085 80.7856 572.691C80.7856 568.293 80.6385 512.622 80.6385 507.785C80.6385 502.953 11.0043 373.437 9.5383 369.188C8.51209 365.672 8.51242 364.207 8.51242 364.207C8.51242 364.207 7.92592 357.321 11.1511 357.028" fill="#1E140A"/>
<path d="M378.087 467.937C377.061 430.284 345.542 421.786 331.322 421.786C317.102 421.786 287.929 431.603 287.929 469.695C287.929 505.005 313.144 517.752 334.694 516.14C348.328 515.112 379.113 505.735 378.087 467.937ZM334.107 580.749C334.107 580.749 216.682 581.041 216.682 466.179C222.985 391.752 277.814 358.348 331.908 356.59C373.836 356.883 442.737 376.808 447.575 462.076C452.559 548.664 386.443 580.749 333.961 580.749" fill="#1E140A"/>
<path d="M674.657 442.883C674.657 438.487 671.871 436.583 669.82 436.583C665.276 436.583 599.012 436.583 594.76 436.583C593.44 436.583 592.417 437.755 592.417 438.78C592.417 443.762 592.417 481.559 592.417 484.784C592.417 487.127 592.417 489.031 594.175 489.031C595.495 489.031 604.292 489.031 608.836 489.031C613.819 489.031 617.629 491.671 617.629 501.633C617.629 511.009 615.432 518.335 608.836 518.335H586.26C569.255 518.335 541.837 500.902 541.837 457.973C540.371 419.734 574.823 411.969 577.463 411.53C586.552 409.918 595.495 409.625 597.984 409.625C632.29 409.186 652.816 419.588 655.159 420.174C659.265 420.76 664.837 420.613 668.939 419.88C670.405 419.588 672.753 418.855 673.191 416.804C673.776 414.46 673.483 374.902 673.483 371.386C673.483 363.914 665.422 359.958 661.759 359.079C645.631 356.296 586.99 356.588 551.808 359.079C531.579 359.372 470.445 379.444 470.445 453.138C470.445 531.521 532.456 578.843 590.215 578.843C634.784 578.843 659.411 578.843 661.316 578.843C671.287 578.843 674.073 573.86 674.073 568.736C674.073 564.634 675.242 449.915 674.803 443.029" fill="#1E140A"/>
<path d="M789.298 476.289C789.298 483.464 795.601 488.886 807.768 488.886C819.936 488.886 826.974 484.638 826.974 478.194C826.974 471.744 812.605 427.939 808.796 427.939C803.955 427.939 789.298 469.108 789.298 476.289ZM762.615 358.933C766.721 358.64 838.996 358.786 849.546 358.933C858.051 359.812 865.089 368.456 866.556 371.533C869.342 376.661 922.556 558.039 923.141 562.141C926.219 580.894 913.906 578.844 904.227 578.844H862.596C849.108 578.844 845.737 570.348 845.737 559.506C845.737 553.792 842.659 547.489 837.379 547.489H782.995C777.861 547.489 772.439 552.618 772.439 557.893C772.439 568.298 771.704 578.844 759.975 578.844C749.717 578.844 719.517 578.551 709.254 578.551C698.991 578.551 694.885 570.641 694.885 561.995C694.885 553.353 747.369 376.514 749.42 371.386C751.475 366.112 755.727 359.373 762.469 358.787" fill="#1E140A"/>
<path d="M482.611 92.8711C485.987 190.886 566.761 300.036 689.903 301.061C683.746 187.663 595.203 96.2409 482.611 92.8711Z" fill="#1E140A"/>
<path d="M701.042 1.30273C674.072 29.7256 641.378 95.0686 642.552 145.175C667.618 165.54 705.295 237.916 707.199 287.436C751.476 228.539 799.118 93.1645 701.042 1.30273Z" fill="#1E140A"/>
<path d="M916.396 94.3359C877.258 95.3613 807.769 118.51 773.317 154.698C776.542 186.784 752.06 264.58 718.344 301.061C791.203 290.659 920.794 228.685 916.396 94.3359Z" fill="#1E140A"/>
</svg>
