<svg width="196" height="124" viewBox="0 0 196 124" fill="none" xmlns="http://www.w3.org/2000/svg">
<path d="M0.157592 51.3993C0.157592 50.094 0.779446 49.5657 2.1166 49.5657C2.76963 49.5657 3.32938 49.8144 3.67144 50.3738L9.14449 59.1999H9.17562V51.0575C9.17562 50.0319 9.73532 49.5346 10.6993 49.5346C11.6633 49.5346 12.192 50.0319 12.192 51.0575V61.8415C12.192 63.0846 11.6633 63.7994 10.3262 63.7994C9.33108 63.7994 9.02015 63.5818 8.6159 62.9602L3.17398 54.3827H3.14285V62.3076C3.14285 63.3332 2.58307 63.8304 1.65017 63.8304C0.717272 63.8304 0.126465 63.3332 0.126465 62.3076V51.3993H0.157592Z" fill="#EAE6E4"/>
<path d="M21.3965 61.3442C24.2574 61.3442 25.2214 59.1377 25.2214 56.4961C25.2214 53.8545 23.9464 51.9898 21.3965 51.9898C18.8466 51.9898 17.5716 53.8545 17.5716 56.4961C17.5716 59.1377 18.4423 61.3442 21.3965 61.3442ZM21.3965 49.5036C25.9055 49.5036 28.3621 52.487 28.3621 56.5271C28.3621 60.5672 26.0921 63.8926 21.3965 63.8926C16.7009 63.8926 14.4619 60.6915 14.4619 56.5271C14.4619 52.3627 16.9186 49.5036 21.3965 49.5036Z" fill="#EAE6E4"/>
<path d="M33.7731 55.9056H36.9138C38.0955 55.9056 39.2772 55.5948 39.2772 54.0409C39.2772 52.5803 38.3754 52.2073 37.0071 52.2073H33.7731V55.9056ZM30.6323 51.648C30.6323 50.2495 31.3475 49.8144 32.467 49.8144H37.6912C41.4228 49.8144 42.418 51.8655 42.418 53.6369C42.418 55.1286 41.5473 56.5893 40.0546 56.9311C41.6716 57.2108 41.9516 58.3607 41.9516 59.7592C41.9516 61.3442 42.3557 61.9347 42.3557 62.5873C42.3557 63.3021 41.6094 63.7994 40.8942 63.7994C39.1839 63.7994 39.0285 62.1522 39.0285 61.5928C39.0285 59.1998 38.5931 58.2053 36.8828 58.2053H33.8042V62.2455C33.8042 63.1779 33.1822 63.7994 32.2493 63.7994C31.3164 63.7994 30.6945 63.1779 30.6945 62.2455V51.648H30.6323Z" fill="#EAE6E4"/>
<path d="M47.922 61.0334H50.5653C53.053 61.0334 53.8615 58.7959 53.8615 56.6826C53.8615 53.9788 52.8353 52.3317 50.5342 52.3317H47.922V61.0334ZM44.7812 51.648C44.7812 50.2495 45.4966 49.8144 46.616 49.8144H50.4409C53.8615 49.8144 57.0023 51.3061 57.0023 56.6826C57.0023 61.0335 54.5768 63.5507 50.4098 63.5507H46.6471C45.5276 63.5507 44.8124 63.1157 44.8124 61.7172V51.648H44.7812Z" fill="#EAE6E4"/>
<path d="M59.2722 51.1196C59.2722 50.1873 59.8942 49.5657 60.8271 49.5657C61.76 49.5657 62.3819 50.1873 62.3819 51.1196V62.2144C62.3819 63.1468 61.76 63.7683 60.8271 63.7683C59.8942 63.7683 59.2722 63.1468 59.2722 62.2144V51.1196Z" fill="#EAE6E4"/>
<path d="M72.5194 55.5948C75.3803 56.2474 76.0955 57.9567 76.0955 59.5417C76.0955 62.0279 74.2297 63.8615 70.4359 63.8615C66.4555 63.8615 64.6831 61.8726 64.6831 60.3808C64.6831 59.6039 65.2428 59.0755 65.9891 59.0755C67.6994 59.0755 67.233 61.5618 70.4049 61.5618C72.0219 61.5618 72.9237 60.6605 72.9237 59.7592C72.9237 59.1998 72.6439 58.6094 71.5866 58.3297L68.0415 57.4284C65.1806 56.7136 64.6831 55.1287 64.6831 53.668C64.6831 50.6224 67.5128 49.4725 70.1561 49.4725C72.6127 49.4725 75.4737 50.8399 75.4737 52.6735C75.4737 53.4504 74.7895 53.9166 74.0431 53.9166C72.5816 53.9166 72.8615 51.8654 69.9385 51.8654C68.4769 51.8654 67.6684 52.5181 67.6684 53.4815C67.6684 54.4449 68.8189 54.7557 69.814 54.9732L72.4262 55.5637L72.5194 55.5948Z" fill="#EAE6E4"/>
<path d="M78.3967 51.1196C78.3967 50.1873 79.0187 49.5657 79.9516 49.5657C80.8845 49.5657 81.5064 50.1873 81.5064 51.1196V55.657L86.4196 50.2495C86.7928 49.8765 87.1037 49.5657 87.6635 49.5657C88.4098 49.5657 89.1562 50.0319 89.1562 50.8399C89.1562 51.3061 88.9073 51.6479 88.6275 51.8966L85.4245 55.284L89.2183 61.0646C89.4982 61.4997 89.8092 61.9036 89.8092 62.3077C89.8092 63.4575 88.9384 63.8304 88.2232 63.8304C87.6013 63.8304 87.2593 63.6751 86.8239 63.0225L83.2167 57.4595L81.5064 59.1688V62.2765C81.5064 63.2089 80.8845 63.8304 79.9516 63.8304C79.0187 63.8304 78.3967 63.2089 78.3967 62.2765V51.1817V51.1196Z" fill="#EAE6E4"/>
<path d="M2.39657 75.7022C2.70754 75.6711 16.9187 75.7022 16.9187 75.7022C16.9187 75.7022 24.102 89.625 24.3197 89.8425C24.724 90.2155 25.2526 90.2465 25.6568 89.8425C25.8745 89.5939 33.1512 75.7643 33.1512 75.7643C33.1512 75.7643 46.4917 75.7333 46.8959 75.7333C47.3002 75.7333 47.7666 76.2926 47.8599 76.9142C47.9532 77.5046 47.9221 77.5358 47.8288 77.8777C47.6111 78.2506 32.2804 106.283 32.2804 108.147V121.449C32.2804 122.257 32.0939 122.816 31.3476 122.816C30.6013 122.816 18.8156 122.785 18.0382 122.785C17.2608 122.785 17.1364 122.412 17.1364 121.48C17.1364 120.547 17.1052 108.738 17.1052 107.712C17.1052 106.687 2.3343 79.2139 2.02333 78.3127C1.80565 77.5668 1.80572 77.2561 1.80572 77.2561C1.80572 77.2561 1.68131 75.7954 2.36544 75.7333" fill="#EAE6E4"/>
<path d="M80.2004 99.2591C79.9827 91.2721 73.2969 89.4696 70.2805 89.4696C67.2642 89.4696 61.0759 91.5519 61.0759 99.6322C61.0759 107.122 66.4246 109.826 70.9958 109.484C73.8878 109.266 80.4181 107.277 80.2004 99.2591ZM70.8714 123.189C70.8714 123.189 45.9629 123.251 45.9629 98.8862C47.3 83.0987 58.9303 76.013 70.4049 75.6401C79.2986 75.7022 93.914 79.9288 94.9402 98.016C95.9975 116.383 81.9729 123.189 70.8403 123.189" fill="#EAE6E4"/>
<path d="M143.109 93.9449C143.109 93.0125 142.518 92.6085 142.083 92.6085C141.119 92.6085 127.063 92.6085 126.161 92.6085C125.881 92.6085 125.664 92.8571 125.664 93.0747C125.664 94.1313 125.664 102.149 125.664 102.833C125.664 103.33 125.664 103.734 126.037 103.734C126.317 103.734 128.183 103.734 129.147 103.734C130.204 103.734 131.012 104.294 131.012 106.407C131.012 108.396 130.546 109.95 129.147 109.95H124.358C120.751 109.95 114.935 106.252 114.935 97.1459C114.624 89.0346 121.932 87.3875 122.492 87.2943C124.42 86.9524 126.317 86.8902 126.845 86.8902C134.122 86.797 138.476 89.0035 138.973 89.1278C139.844 89.2521 141.026 89.221 141.896 89.0656C142.207 89.0035 142.705 88.8481 142.798 88.413C142.922 87.9158 142.86 79.5247 142.86 78.7789C142.86 77.1939 141.15 76.3548 140.373 76.1683C136.952 75.5779 124.513 75.64 117.05 76.1683C112.759 76.2305 99.7913 80.4882 99.7913 96.1203C99.7913 112.747 112.945 122.785 125.197 122.785C134.651 122.785 139.875 122.785 140.279 122.785C142.394 122.785 142.985 121.728 142.985 120.641C142.985 119.771 143.233 95.4366 143.14 93.976" fill="#EAE6E4"/>
<path d="M167.427 101.031C167.427 102.553 168.764 103.703 171.345 103.703C173.926 103.703 175.419 102.802 175.419 101.435C175.419 100.067 172.371 90.775 171.563 90.775C170.536 90.775 167.427 99.5078 167.427 101.031ZM161.767 76.1373C162.638 76.0751 177.969 76.1062 180.207 76.1373C182.011 76.3237 183.504 78.1574 183.815 78.81C184.406 79.8977 195.694 118.372 195.818 119.242C196.471 123.22 193.859 122.785 191.806 122.785H182.975C180.114 122.785 179.399 120.983 179.399 118.683C179.399 117.471 178.746 116.134 177.626 116.134H166.09C165.001 116.134 163.851 117.222 163.851 118.341C163.851 120.548 163.695 122.785 161.207 122.785C159.031 122.785 152.625 122.723 150.448 122.723C148.271 122.723 147.4 121.045 147.4 119.211C147.4 117.378 158.533 79.8666 158.968 78.7789C159.404 77.6601 160.306 76.2306 161.736 76.1063" fill="#EAE6E4"/>
<path d="M102.372 19.7C103.088 40.4911 120.222 63.644 146.343 63.8616C145.037 39.8073 126.255 20.4148 102.372 19.7Z" fill="#EAE6E4"/>
<path d="M148.706 0.276367C142.985 6.30546 136.05 20.1661 136.299 30.7947C141.616 35.1145 149.608 50.467 150.012 60.9713C159.404 48.4781 169.51 19.7622 148.706 0.276367Z" fill="#EAE6E4"/>
<path d="M194.387 20.0107C186.085 20.2282 171.345 25.1386 164.037 32.8148C164.721 39.6209 159.528 56.1231 152.376 63.8615C167.831 61.655 195.32 48.509 194.387 20.0107Z" fill="#EAE6E4"/>
</svg>
