<?xml version="1.0" encoding="UTF-8"?>
<svg id="Layer_1" data-name="Layer 1" xmlns="http://www.w3.org/2000/svg" version="1.1" viewBox="0 0 841.9 595.3">
  <defs>
    <style>
      .cls-1 {
        fill: none;
        fill-rule: evenodd;
        stroke: #a09088;
        stroke-miterlimit: 10;
        stroke-width: .3px;
      }
    </style>
  </defs>
  <g>
    <path class="cls-1" d="M472.8,27.4c0-.2,0-.4-.3-.3-7.2,6.2-14.6,16-14.5,28.2,0,7,2.3,12.2,5,18.1,12.8-6.4,20.3-31.8,9.8-46ZM365.7,28c0-.2,0-.4-.3-.3-10.6,15.9-3.8,39.3,9.2,46.6,9.6-15.3,3.7-39.3-8.9-46.3ZM524.4,43.1c-.3,0-.4-.2-.6-.3-13.8,7.1-25.3,22.7-18.1,43.6,13.9-6.3,24.7-22.8,18.7-43.3ZM314.1,43.4c-6.6,19.7,3.9,38.4,18.1,43.6,6.7-20.1-4.5-38.4-18.1-43.6ZM544.8,107.2c16.4-5,28.9-17,26.1-39.1-16,5.6-28.4,16.2-26.1,39.1ZM293.3,108c1.3-22.1-9.3-34.8-26.4-39.4-1.4,22.3,9.2,34.9,26.4,39.4ZM418.5,73.9c-9.6,8.3-10.7,31.9.3,39.4,9.6-9.9,9.6-31.4-.3-39.4ZM462.4,77.8c-9.9,7-16.8,24.7-7.7,38.6,10.2-5.4,17.1-27.3,7.7-38.6ZM375.2,78.4c-7.9,12.4-3.4,33.5,8,38.6,8.1-12.9,2.6-33.3-8-38.6ZM488.8,126.7c11.9-5.1,20.7-19,15.7-36.2h-.6c-11.6,5.3-20.6,19.5-15.1,36.2ZM333.7,91.1c-4.7,16.9,2.9,31.8,15.4,36.2,4.8-16.8-3.1-31.7-15.4-36.2ZM578.9,135.3c20.1-2.3,31.5-13.2,33.8-33.2-20.1,2.2-31.7,13-33.8,33.2ZM259.2,136.2c-2.5-19.9-13.4-31.5-33.5-33.8,2.4,20,13,31.9,33.5,33.8ZM520.5,143.6c13.3-4.2,24.4-14.5,21.7-32.6-13.4,4.5-23.6,13.7-21.7,32.6ZM295.7,111.6c-1.3,18.3,7.4,29.2,21.9,32.6.8-19-7.8-28.6-21.9-32.6ZM418.8,149.6c7.5-7.3,8.2-26.1-.3-32.9-7.9,6.6-8.9,26.9.3,32.9ZM454.1,119.6c-8.5,5.1-13.9,22.3-6.2,32.3,8.5-5.1,13.7-22.3,6.2-32.3ZM383.8,120.2c-6.9,10-3,28.4,6.5,32.3,6.4-10.7,2.4-27.5-6.5-32.3ZM487.6,130c-9.5,4-17.7,16.9-12.2,30.3,9.2-4.4,17.4-16.9,12.2-30.3ZM350.3,130.6c-4.4,13.8,2.3,26.7,12.8,30.3,3.8-14.2-2.6-26.3-12.8-30.3ZM548.1,166.5c16.4-2.3,26.2-11.1,28.2-27.9-16.8,1.9-26.7,10.7-28.2,27.9ZM262.2,139.2c2.2,16.4,10.7,26.4,27.9,27.9-2.1-16.4-10.8-26.4-27.9-27.9ZM607.1,169.7c22.1,1.4,34.8-9.2,39.4-26.4-23.1-1.2-34.6,9.3-39.4,26.4ZM192.2,143.9c4.4,16,16,28.8,38.9,26.4-5.1-16.4-16.5-28.2-38.9-26.4ZM500.3,173.6c5.8-1.2,10.6-4.8,13.9-9.2,3.2-4.2,6.2-10.9,3.9-17.8-11,3.8-19.4,11.6-17.8,27ZM337.8,174.5c.6-15.8-6.4-24-18.4-27.3-.9,16.1,6.5,24,18.4,27.3ZM418.2,152.5c-6.5,6-6.9,21.7.3,27.3,6.4-5.5,7.4-22.4-.3-27.3ZM447,154.6c-6.8,4.5-11.3,18-5.3,26.7,7.7-3.3,11.8-18.9,5.3-26.7ZM396.2,181.9c5.2-8.9,2-22.9-5.6-26.7-5.8,8.4-2.1,24.3,5.6,26.7ZM473.9,162.9c-7.9,3.3-14.7,14.1-10.1,25.2,7.7-3.7,14.5-14.1,10.1-25.2ZM374.6,188.7c3-12-2.3-21.9-10.7-25.2-3.7,11.5,1.9,22.4,10.7,25.2ZM522.6,192c13.5-1.9,21.9-8.9,23.1-23.1-13.8,1.7-22.1,8.7-23.1,23.1ZM292.4,169.4c1.9,13.5,8.8,22.1,23.1,23.1-1.6-13.8-8.9-21.9-23.1-23.1ZM570.6,194.1c19.2.9,28.9-7.7,32.9-21.9-18.6-1.4-29,7.8-32.9,21.9ZM234.9,172.7c4.3,13.7,13.7,23.9,32.6,21.9-4.4-13.6-13.8-23.7-32.6-21.9ZM483.4,198.8c6.5-1.8,12.3-6.3,14.5-12.2,1.1-3,1.9-7.3.3-10.4-9.1,3.3-15.8,9.2-14.8,22.5ZM339.3,176.9c-1.2,12.7,5.4,20.1,15.1,22.8,1-12.5-5.1-20.4-15.1-22.8ZM418.5,204.7c5.4-4.6,6.1-18.7-.3-22.8-5.2,4.7-5.7,18.6.3,22.8ZM441,183.7c-5.6,3.4-9.3,15.7-3.9,22.2,5.7-3.3,9.8-16.1,3.9-22.2ZM401,206.5c4.3-7.3,1.9-19.2-4.7-22.2-4.5,7.2-1.9,19.4,4.7,22.2ZM628.2,208.9c20.2,5.9,37.9-3.8,43.6-18.1-20.1-6.8-38.4,3.7-43.6,18.1ZM166.7,191.4c6.4,13.2,23.6,25.4,43.6,18.1-5.3-14-25.4-25.7-43.6-18.1ZM462.4,190.2c-6.4,3.2-11.6,11-8.6,20.8,7-2.2,12.8-12.1,8.6-20.8ZM384.1,211.8c2.3-10.2-1.8-18.4-8.9-21.1-3,9.8,1.7,18.6,8.9,21.1ZM501.2,213.3c11.2-1.7,18.3-7.4,19.3-19.3-11.6,1.3-18.4,7.3-19.3,19.3ZM336.9,213.9c-1.3-11.5-7.4-18.3-19.3-19.3,1.6,11.2,7.3,18.4,19.3,19.3ZM540.7,214.2c15.8.6,24-6.5,27.3-18.4-16.1-.8-24.1,6.3-27.3,18.4ZM270.8,196.4c2.6,11.2,11.5,20.1,27,18.4-3.8-11.2-11.6-19.8-27-18.4ZM482.2,200.6c-7.7,2.6-13.9,8.2-12.5,19,7.7-2.5,14-8.2,12.5-19ZM368.4,220.2c.5-11.1-4.7-16.5-12.8-19-.5,11.1,4.2,16.9,12.8,19ZM418.5,225.5c4.5-3.7,5-15.8-.3-19-4.3,4.2-4.8,15.3.3,19ZM433,226.4c4.8-2.7,7.8-13,3.6-18.7-5,3-8.1,13-3.6,18.7ZM405.1,226.7c3.5-6.2,1.2-16-4.2-18.4-3.7,6-1.2,17.2,4.2,18.4ZM587.5,225.5c16.9,5,31.9-3,36.5-15.1-17-5.1-31.8,3.1-36.5,15.1ZM214.4,210.7c4.6,11.4,20.2,22.1,36.5,15.1-5.6-11.2-19.3-20.2-36.5-15.1ZM445.8,230.2c6.2-1.9,10.4-10,7.4-17.5-5.4,2.8-9.7,9-7.4,17.5ZM392.1,230.8c1.9-8.2-1.5-15.3-7.7-17.2-2.3,8.3,2,16,7.7,17.2ZM483.4,230.8c9.7-1.1,15.3-6.3,16.3-16-9.8,1-15.3,6.3-16.3,16ZM354.7,231.7c-1.2-9.6-6.3-15.3-16-16.3.9,9.9,6.3,15.2,16,16.3ZM515.5,230.8c12.4.9,20.3-5.1,22.8-15.1-12.6-1.1-20.2,5.3-22.8,15.1ZM300.1,216.6c3.2,9.3,9.1,16,22.5,15.1-2.5-9.7-10.3-17.2-22.5-15.1ZM468.9,221.3c0-.2-.3-.3-.6-.3-6.1,2.3-11.4,7-10.1,15.7,5.7-1.6,12.5-7.2,10.7-15.4ZM379.9,237.7c.5-9.4-3.9-13.9-10.7-16-.5,9.4,3.7,14.1,10.7,16ZM554,239.4c14.3,4,26.6-2.6,30.5-12.8-14.4-4.1-26.6,2.6-30.5,12.8ZM254.2,227.3c3.7,9.9,16.9,17.8,30.3,12.5-4.6-9.2-16.4-17.2-30.3-12.5ZM418.2,228.2c-3.7,3.4-3.9,12.7.3,15.7,3.5-3.1,4.4-13.2-.3-15.7ZM432.1,228.8c-3.7,2.4-6.2,10.4-3,15.4,4.5-1.8,7-11.2,3-15.4ZM408.7,244.8c2.8-5.3,1.1-13.4-3.6-15.4-2.7,5.1-1.5,13.8,3.6,15.4ZM494.7,244.8c11,.4,16.8-4.3,19-12.8-11.3-.7-16.6,4.6-19,12.8ZM468.6,245.7c8-1,12.8-5.2,13.6-13.3-8.3.7-12.6,5.4-13.6,13.3ZM343.4,245.4c-2.4-7.9-8.1-14-19-12.5,2.8,7.5,8.3,13.8,19,12.5ZM438.9,247.1c4.8-1.6,8.7-8.2,5.9-14.5-4.3,2.3-8.2,7.6-5.9,14.5ZM369.5,246c-1.5-7.4-5.3-12.5-13.6-13,1,7.7,5.5,13.5,13.6,13ZM398.9,248c2-6.9-1.3-12.9-6.2-14.8-1.9,7,1.3,12.9,6.2,14.8ZM640.9,251.3c15.4,9.7,40.3,3.3,46.3-9.5-15.5-9.9-39.9-3.5-46.3,9.5ZM151.3,242.4c5.4,6.2,13.6,13.7,24.9,14.5,8.8.7,15.8-1.7,21.7-5.3-7.6-12.2-31.9-19.9-46.6-9.2ZM447.8,252.2c5.5-1.5,10.4-6.6,8.6-13.3-5.1,2.3-9.3,5.4-8.6,13.3ZM526.1,251c12.1,3.2,22.2-2.3,25.5-10.7-12.2-3.3-22.3,2.1-25.5,10.7ZM287.1,240.9c3,8.3,14.1,14.9,25.2,10.4-3.9-7.7-13.6-14.3-25.2-10.4ZM390,252.8c.4-7.7-2.9-11.7-8.9-13-.2,7.5,3.1,11.5,8.9,13ZM418.5,259c3.1-3,3.6-10.9-.3-13.3-2.9,3-3.2,10.7.3,13.3ZM477.5,256.3c9.1.3,13.9-3.7,15.7-10.7-9.3-.5-13.9,3.7-15.7,10.7ZM360.9,256.6c-2.4-6.1-7-11.6-16-10.1,2.1,6.3,7.7,12.1,16,10.1ZM428.6,246.3c-3,2-5,8.6-2.4,12.8,3.7-1.2,6-9.6,2.4-12.8ZM411.7,259.6c2.2-4.4,1-11.1-3-12.8-2.4,4-1.2,11.7,3,12.8ZM455.8,258.4c6.9-.6,10.4-4.4,11.3-11-6.8.6-10.7,4.2-11.3,11ZM597.9,259.9c12.4,7.5,33.6,3.2,38.6-8-12.3-8-33.5-3.3-38.6,8ZM202,252.2c5.5,10.8,26,16.7,38.6,8.3-5.6-10.9-25.9-16.3-38.6-8.3ZM382.3,259.3c-.6-6.8-4.4-10.5-11-11.3.5,6.9,4.3,10.6,11,11.3ZM433,261.1c4.3-1.1,7.5-7.2,5-12.2-3.5,2.1-6.5,6-5,12.2ZM404.8,261.7c1.2-5.9-1.1-10.5-5.3-11.9-1.8,5.5,1.4,11.3,5.3,11.9ZM503.3,260.5c9.8,2.9,18.3-1.9,21.1-8.9-9.7-2.7-18.7,1.5-21.1,8.9ZM314.1,252.5c3.4,6.4,11,11.8,21.1,8.9-2.3-7.2-11.7-12.5-21.1-8.9ZM446.4,253.7c-4.1,1.9-7.4,4.4-6.8,11,4.4-1.1,8.8-5.4,6.8-11ZM398.6,265.2c0-6.2-2.8-9.5-7.4-11-.6,5.6,2.1,10.3,7.4,11ZM562.6,267c10.5,6.3,27.6,2.5,32-6.8-10.4-6.6-28.6-2.5-32,6.8ZM244.1,260.5c4.2,9.3,21.5,13.8,32,7.1-4.5-9.1-21.4-13.7-32-7.1ZM462.1,266.4c7.9.4,11.8-3.1,13.3-8.9-7.8-.4-11.6,3.2-13.3,8.9ZM376.1,267.3c-1.7-5.8-5.4-9.4-13-9.2,1.5,5.9,5.3,9.6,13,9.2ZM445.2,269.1c5.3-.3,9.9-4.3,8.6-9.2-4.9,1-8.3,3.6-8.6,9.2ZM484,268.5c8.3,2.2,15.3-1.6,17.5-7.4-7.8-2.4-15.6,1.1-17.5,7.4ZM393,270c-.5-5.7-3.8-8.7-9.2-9.5.5,5.7,3.5,9,9.2,9.5ZM336.9,262c2.7,5.2,9.5,10,17.5,7.1-2.1-5.8-10.1-10.4-17.5-7.1ZM533,272.9c8.9,5.1,22.8,1.9,26.7-5.6-8.3-5.9-24.4-2.1-26.7,5.6ZM279.1,267.6c3.4,7.6,18.8,11.8,26.7,5.3-4.1-6.8-18.1-11-26.7-5.3ZM449.6,274.7c6.5.4,9.8-2.4,11-7.4-6.3-.2-9.6,2.7-11,7.4ZM377.8,268.2c.8,4,4.2,8,10.7,7.4-1-4.9-5.1-8.1-10.7-7.4ZM467.1,275.6c7.3,1.4,12.6-1.4,14.5-6.2-6.7-2-13.3.9-14.5,6.2ZM356.8,270.3c2.3,4.3,7.6,8.1,14.5,5.9-1.5-5.1-8.7-8.8-14.5-5.9ZM508.3,277.7c7.3,4.2,19.5,1.8,22.2-4.7-7.1-4.6-19.5-2-22.2,4.7ZM308.2,273.2c2.1,6.1,14.8,10,21.9,5-2.7-6.4-14.7-9.4-21.9-5ZM453.2,281.2c6,1.4,10.6-1.2,12.2-5.3-6-1.2-10.9.8-12.2,5.3ZM487.9,281.5c5.9,3.9,16.2,1.6,18.7-3.9-6-3.6-16.4-1.6-18.7,3.9ZM332.2,278.3c2.5,5.3,12.2,7.8,18.4,4.2-2.3-5.6-12.6-8.1-18.4-4.2ZM373.4,276.5c1.1,4.4,6.4,7.2,11.9,5.3-1.5-4.1-6-6.6-11.9-5.3ZM470.1,285.4c5.3,2.8,13.3,1.1,15.4-3.6-5.1-3.1-14.6-1-15.4,3.6ZM353.2,282.4c2,4.4,10,6.6,15.1,3.6-.8-4.2-10.3-6.9-15.1-3.6ZM455,288.1c4.1,2.6,11.3,1.3,13-2.7-4.3-2.7-11.1-1.1-13,2.7ZM370.4,286.3c2.2,3.1,9.4,5.6,13,2.1-2.2-3.1-9.4-5.6-13-2.1ZM667.3,285.7c-9.5.2-16.8,4.9-22.2,9.5,9.7,11.3,37.8,12.6,47.2,0-5.8-4.9-14.7-9.7-24.9-9.5ZM623.4,287.5c-9.5-.8-17.4,2.9-21.9,8,8.9,9.4,31.9,9.7,39.4-.3-4.3-3.2-10.2-7.1-17.5-7.7ZM197.2,295.5c8.8,9.5,32.1,10.3,39.4-.3-8.1-9.3-31.9-9.9-39.4.3ZM565.3,295.5c6.9,7.6,26.3,8.3,32.6-.3-6.6-7.9-26.7-8.8-32.6.3ZM240.2,294.9c6,8.9,25.7,9,32.6.9-6-8.6-25.7-8.6-32.6-.9ZM551.6,300.5c2.1-.2,10.8-3.3,10.7-5.3,0-.7-3.7-2.6-5-3.3-7.3-3.6-18.8-2.1-22.2,3.6,4,2.6,8.8,5.9,16.6,5ZM282.3,291.3c-1.4.5-6.6,2.7-6.5,4.2,0,.8,3.9,2.6,5.3,3.3,7.4,3.4,18.4,1.9,21.9-3.6-3.9-3.9-13.3-6.7-20.8-3.9ZM510.1,295.5c4.9,5.2,18.4,5.6,22.8-.3-4.5-5.4-18.9-6.3-22.8.3ZM305.2,295.5c4.8,5.3,18.7,6.2,22.8-.3-4.7-5.3-18.5-5.6-22.8.3ZM489.4,295.5c4.3,4.4,15.1,4.6,19-.3-4-4.4-15.6-5.4-19,.3ZM329.8,295.5c4.2,4.4,14.7,5,19,.3-3.2-5.4-15.4-5.2-19-.3ZM471,295.5c3.7,3.4,12.9,4,15.7-.6-3.7-3.3-12.9-4.2-15.7.6ZM351.5,295.5c3,3.7,12.4,3.9,15.7.3-2.6-4.5-12.8-4.5-15.7-.3ZM455.8,295.5c2.9,2.8,11,3.4,13-.6-2.9-2.8-11-3.4-13,.6ZM369.2,295.8c3.2,2.6,10.7,3.4,13-.6-2.8-2.8-11.1-3.5-13,.6ZM370.1,305.3c4.3,2.4,11.4,1,13-2.7-4.1-2.8-11.3-1.2-13,2.7ZM454.4,302.9c2,3.2,9.1,5.5,13,2.4-1.8-3.4-9.3-5.5-13-2.4ZM352.9,308.8c5.2,2.9,13.5,1.2,15.4-3.6-5.2-2.7-13.6-1.4-15.4,3.6ZM469.2,305.9c2.6,3.9,10.1,6.3,15.4,3.3-1.8-4.9-10.9-7-15.4-3.3ZM331.9,313c6,3.5,16.4,1.7,18.4-4.2-6.1-3.4-16.2-1.6-18.4,4.2ZM487.3,309.1c2.4,5.3,12.3,7.8,18.4,4.2-2.4-5.6-12.5-8.1-18.4-4.2ZM373.1,314.5c5.5,1.8,10.8-.9,12.2-5-5.4-1.8-10.7,1-12.2,5ZM452.3,309.4c1.5,4.2,6.1,6.6,12.2,5.3-1.5-4.2-6.5-7.2-12.2-5.3ZM307.6,317.7c7.2,4.4,19.5,2.1,22.2-4.7-7.2-4.4-19.2-1.8-22.2,4.7ZM507.7,313c2.8,6.7,15.4,9.8,22.2,4.7-3.3-5.9-14.8-9.2-22.2-4.7ZM356.8,321.3c6.8,2,13-1.1,14.5-6.2-6.7-1.8-12.8,1.2-14.5,6.2ZM466.2,315.1c1.8,5.1,7.6,8.3,14.5,6.5-1.8-5.1-7.6-8.4-14.5-6.5ZM278.5,323.4c8.6,5.5,23.6,2.5,27-5.6-9-5.1-23.1-2-27,5.6ZM532.1,318.3c4.2,7,17.8,11.1,26.7,5.6-3.4-8-18.5-11.9-26.7-5.6ZM377.8,323.1c6.5.4,9.7-2.6,11-7.4-6.3-.2-9.8,2.5-11,7.4ZM459.7,323.1c-1.4-4.7-4.4-7.9-11-7.4,1.6,4.5,4.3,7.9,11,7.4ZM243.8,330.5c10.4,6.4,28,2.7,32-6.8-10.4-6.6-28.6-2.1-32,6.8ZM561.7,324c4.4,8.9,22.3,13.8,32.3,6.5-5.1-8.5-21.9-13.7-32.3-6.5ZM453.5,330.5c-.5-5.7-3.6-8.8-9.2-9.5.4,5.8,3.7,8.8,9.2,9.5ZM384.1,330.5c5.5-.6,8.9-3.4,9.2-9.2-5.4.7-8.8,3.5-9.2,9.2ZM483.1,322.2c2.1,5.7,10.1,10.5,17.5,7.1-2.6-5.4-9.5-9.8-17.5-7.1ZM336.9,329.6c8.4,2.2,15.3-1.5,17.5-7.4-8.3-2.2-15.5,1.4-17.5,7.4ZM363,332.9c7.7.4,11.8-2.8,13-8.9-7.5-.2-11.4,3.2-13,8.9ZM474.5,332.6c-1.9-5.1-5.9-9.7-13.3-8.3,1.8,5.1,6.6,10.1,13.3,8.3ZM446.1,336.4c.2-6.3-2.6-9.7-7.4-11-.4,6.5,2.5,9.8,7.4,11ZM391.5,336.7c4.8-1.4,8-4.5,7.7-11-4.8,1.4-8,4.5-7.7,11ZM201.7,338.8c12.5,7.8,33.4,3.4,38.6-8-12.4-7.8-33.3-3.3-38.6,8ZM597.3,331.1c5.5,10.5,26.7,16.6,38.6,7.7-6.1-10.3-26.3-16.5-38.6-7.7ZM437.5,340.9c1.3-6.1-1.1-10.8-5.3-12.2-1.3,6,1.1,10.7,5.3,12.2ZM400.1,341.2c4.2-1.2,7.6-7,5-12.2-3.5,2.1-6.5,6.1-5,12.2ZM314.1,339.1c10.3,2.4,18.5-1.7,21.1-8.9-9.8-3-18.5,1.8-21.1,8.9ZM502.4,330.2c2.6,6.8,11.8,12.4,21.1,8.6-3.2-6.4-11.1-11.9-21.1-8.6ZM428.3,343.5c2.3-4.3,1.1-11.3-3-12.8-2.5,4.2-1,11.4,3,12.8ZM412,331.1c-3.1,2-5.2,9.3-2.1,13,3.2-1.9,5.7-9.6,2.1-13ZM418.5,344.4c3.1-3.1,3.5-10.7-.3-13.3-2.8,2.9-3.4,10.9.3,13.3ZM465.9,342.9c-.6-6.8-4.4-10.5-11-11.3.6,6.8,4.2,10.6,11,11.3ZM371.6,342.9c6.6-.7,10.6-4.1,11-11-6.4.9-10.5,4.1-11,11ZM345.2,344.7c8.5,1,14.1-3.5,15.7-10.4-8.3-.7-14.1,3.5-15.7,10.4ZM492.3,345c-2-6.9-6.3-11.4-15.7-11,2,6.9,6.4,11.4,15.7,11ZM151,348.6c15,10.4,40.9,3.6,46.3-9.5-15.9-9.4-39.4-3.1-46.3,9.5ZM640.3,339.4c6.5,12.7,31.7,20.4,46.3,9.5-7.5-12.3-31.8-19.8-46.3-9.5ZM455.8,351.2c.4-7.8-3.2-11.6-8.9-13.3-.5,7.9,3.2,11.7,8.9,13.3ZM382,351.5c5.2-1.7,10.1-6.6,8.3-13.3-5,2-9.7,6-8.3,13.3ZM286.8,350.4c12,3.1,22.2-2,25.2-10.7-11.5-3.5-22.1,2.1-25.2,10.7ZM525.5,339.7c3,8.3,14.2,14.8,25.2,10.4-3.9-7.7-13.5-14.3-25.2-10.4ZM444.3,357.2c1.8-6.8-1.3-12.6-6.2-14.5-2,6.7,1.1,13,6.2,14.5ZM393.3,357.5c5.1-1.5,8.8-8.2,6.2-14.5-4.5,2.4-8.1,7.6-6.2,14.5ZM356.2,358.4c7.9-.9,13.5-5.7,13.3-13.6-7.7,1.3-12.5,5.5-13.3,13.6ZM481.1,358.1c-.7-8.2-5.1-12.7-13.3-13.3,1.2,7.7,5,12.7,13.3,13.3ZM431.8,360.7c2.9-5.4.9-13.1-3.6-15.4-3.2,5.1-.9,14.6,3.6,15.4ZM324.8,358.7c11,.4,16.5-4.6,19-12.8-10.3-.9-17.1,4.2-19,12.8ZM493.8,346.2c3,7.5,7.7,13.2,19,12.5-2.1-8-8.7-14.6-19-12.5ZM409,345.9c-3.7,2.6-6.1,10.3-3,15.4,4.5-1.6,7.1-11.3,3-15.4ZM418.5,362.2c3.6-3.3,4.2-13.2-.3-16-3.6,3.6-4,12.9.3,16ZM553.4,351.2c3.8,9.9,17,17.8,30.3,12.5-4.6-9.3-16.3-17.3-30.3-12.5ZM253.9,363.7c13.6,4.5,26.7-2.2,30.3-12.5-14.1-4.2-26.4,2.6-30.3,12.5ZM457,353.3c-.3,9.1,3.8,13.8,10.7,15.7.4-9.2-3.5-14.1-10.7-15.7ZM369.8,369.3c6.6-2.2,11.4-6.2,10.7-15.7-6.9,1.8-11.6,7.1-10.7,15.7ZM498.6,375.6c-.9-9.8-6.4-15.2-16-16.3,1.1,9.6,6.2,15.4,16,16.3ZM300.1,375c13.4.6,20.1-5.4,22.8-15.4-13.2-.5-20.1,5.4-22.8,15.4ZM338.7,375.6c9.3-.6,16.8-7.1,15.7-16-9,1.5-14.6,6.6-15.7,16ZM452.3,377c2.6-7.9-1.3-15.6-7.4-17.5-2,8.3,1.5,15.3,7.4,17.5ZM537.4,375c-3.2-9.5-9-16.5-22.8-15.4,3,9.6,10,16.7,22.8,15.4ZM392.4,359.8c-5.2,3-9.7,8.9-7.4,17.5,6.2-1.8,10.7-10,7.4-17.5ZM214.4,380.3c16.9,4.8,31.9-2.8,36.2-15.4-16.8-4.6-31.7,3-36.2,15.4ZM436,381.8c3.4-6.2,1.4-16-4.2-18.4-3.8,6-1.2,17.2,4.2,18.4ZM586.9,364.9c4.2,11.5,19,21,36.2,15.7-4.9-11.9-18.9-20.9-36.2-15.7ZM405.4,364c-4.7,2.8-7.3,12.5-3.6,18.4,5.2-2.1,8.4-13.3,3.6-18.4ZM418.2,364.6c-4.3,4.1-4.9,15.4.3,19,4.4-3.8,5-15.7-.3-19ZM481.4,389.5c.7-11.3-4.5-16.7-12.8-19-.4,11,4.5,16.7,12.8,19ZM355.9,389.5c7.7-1.7,14.1-7.3,13-18.7h-.6c-7.4,3-13,7.8-12.5,18.7ZM270.5,394.5c15.3,1.4,24.2-6.2,27.3-18.1-15-1.1-24.1,6.3-27.3,18.1ZM539.8,376.7c3.7,11.3,11.9,19.4,27.3,18.1-3.4-11.3-12-20.6-27.3-18.1ZM519.3,396.6c-1-11.9-7.3-18.6-19.3-19.6,1.6,11.4,7.8,18.1,19.3,19.6ZM317.9,396.6c11.5-1.5,18.3-7.6,19.6-19.3-11.8,1.2-18.4,7.5-19.6,19.3ZM461.8,399.9c2.9-9.8-1.6-18.6-8.9-21.1-2.6,9.7,1.8,18.3,8.9,21.1ZM375.8,400.2c7-2.7,12.5-12.1,8.6-21.1-6.3,3.2-11.8,11.2-8.6,21.1ZM627.3,381.8c5.6,13.7,24.4,25.8,43.6,18.1-6.1-13.5-24.5-25.2-43.6-18.1ZM166.4,399.9c20,6.2,38.4-3.3,43.9-18.1-20.9-6.5-37.9,4.5-43.9,18.1ZM440.7,406.1c4.1-7.3,1.8-19.5-4.7-22.2-4.6,7-2,19.6,4.7,22.2ZM396.8,406.4c6.2-1.9,10.3-15.5,4.7-22.2-5.7,3.6-9.2,14.7-4.7,22.2ZM418.5,408.2c5.4-4.8,6-18.6-.3-22.8-5.1,4.7-5.8,18.7.3,22.8ZM497.7,414.1c1.2-12.7-5.2-20.3-15.1-22.8-.7,13.3,5.5,19.8,15.1,22.8ZM339.6,414.1c9.9-2.6,16.8-9.7,15.4-22.5h-.6c-8.9,3.6-15.7,9.2-14.8,22.5ZM234.9,418.3c18.7,1.7,28.8-7.7,32.9-21.7-18.4-1.4-29,7.6-32.9,21.7ZM569.7,396.9c4.7,13,14.6,24,32.9,21.4-4.5-13.2-14.2-24.3-32.9-21.4ZM315.9,398.7c0-.2,0-.4-.3-.3-13,2.1-22.2,9.6-22.5,23.4,13.3-1.8,22.3-9.6,22.8-23.1ZM544.5,421.8c-1.3-14.2-8.8-22.2-23.1-23.4,1.9,13.6,9.3,21.8,23.1,23.4ZM462.4,402c-3.1,12,2.3,21.9,10.7,25.2,3.6-11.5-1.8-22.4-10.7-25.2ZM374.9,402.3c-7.8,3.4-14.6,14.2-10.1,25.2,7.6-3.6,14.7-14,10.1-25.2ZM446.4,435.2c5.4-8.9,2.4-23.2-5.6-27-5.3,8.8-2.1,23.4,5.6,27ZM396.5,408.8c-6.9,4.2-10.9,18-5.3,26.7,7.5-3.3,12-18.9,5.3-26.7ZM417.9,437.5c7.6-4.7,7.7-22.3.3-27.3-6.3,6-6.8,21.1-.3,27.3ZM499.4,416.5c-1.3,15.2,6.5,24,18.1,27.3,1.2-15.2-6.1-24.4-18.1-27.3ZM319.7,443.8c11.3-2.9,21-12.4,18.1-27h-.6c-10.5,4.3-18.5,11.1-17.5,27ZM606.2,420.6c5.2,16.5,16.6,28.5,39.1,26.7-5-16.8-16.5-28.6-39.1-26.7ZM191.9,447c22.4,1.7,34.7-9.1,39.4-26.1-22.3-1.7-34.7,9.2-39.4,26.1ZM547.2,423.9c1.9,16.7,11,26.1,27.6,28.2-1.6-17-10.7-26.4-27.6-28.2ZM262.5,451.8c16.7-1.8,26.4-10.5,27.9-27.6-16.5,2-26.1,10.8-27.9,27.6ZM473.9,429.8c-3.9,14.2,2.7,26.3,12.8,30.2,4.2-13.7-2.1-26.8-12.8-30.2ZM363.3,430.1c-9.4,4.1-17.6,17-12.2,30.2,9.2-4.4,17.6-16.8,12.2-30.2ZM446.7,437.8c-6.7,10.2-2.3,29,6.8,32,6.3-10.6,2.6-27.7-6.8-32ZM390.9,438.4c-8.7,4.6-13.8,22.3-6.2,32,8.4-5.1,13.8-22.1,6.2-32ZM418.2,440.5c-7.7,6.8-8.4,26.6.3,32.9,7.7-7.1,8.8-26.5-.3-32.9ZM541.3,479.4c1.6-18.7-7.6-29.2-21.9-32.9-.8,19.1,7.9,28.6,21.9,32.9ZM296,479.4c14-4.1,23.9-13.8,22.2-32.6h-.6c-13.2,4.7-23.3,14-21.6,32.6ZM611.6,488.6c-2.5-19.9-13-31.8-33.5-33.8,2.5,19.9,13.2,31.7,33.5,33.8ZM226,488.3c8.6-.7,16.2-3.6,21.7-8,6.7-5.5,11.7-14.6,11.3-25.2-19.2,2.9-31.1,13-32.9,33.2ZM503,499.5c5.4-16.6-2.9-31.9-15.1-36.5-4.9,17,3.1,31.7,15.1,36.5ZM334.2,499.8c11.9-4.9,20.9-18.9,15.7-36.2h-.6c-11.4,5.2-20.2,19.2-15.1,36.2ZM453.8,473.4c-8,12.3-3.1,33.1,7.7,38.6,8.1-12.2,3.6-33.3-7.7-38.6ZM383.8,473.7c0,.4-.5.3-.6.6-9.5,5.9-15.6,25.5-7.4,38,11.5-5.9,16.8-27.2,8-38.6ZM418.2,476.7c-9.3,8.4-10.2,31.6.3,39.4,10.1-10.6,10.1-30.9-.3-39.4ZM543.6,482.9c-1.1,23,9.7,34.2,26.4,39.4,1.6-22.3-9-35.1-26.4-39.4ZM267.2,522.4c15-4.5,28.4-16.1,27-35.6,0-1.2.2-3.4-1.2-3.6-15.9,5.6-27.6,16.8-25.8,39.1ZM505.1,503.7c0-.2,0-.4-.3-.3-6.3,19.9,3.5,38.3,18.1,43.9,6.3-20.7-4-38-17.8-43.6ZM314.4,547.6c14.1-5.6,25.8-24.5,18.7-43.6h-.6c-13.3,6.9-24.6,22.9-18.1,43.6ZM476.6,539.6c-.9-10.6-7.8-18.3-13.9-23.1,0-.2,0-.4-.3-.3-3.4,6.3-5.6,13.9-5,21.9.8,11.1,7.3,19.4,14.2,24.6,3.4-6.5,5.8-13.9,5-23.1ZM375.8,517c-.3,0-.4-.2-.6-.3-12.4,9.7-19.7,28.1-9.5,46.3,12.9-6.6,20-31.6,10.1-46ZM427.7,546.7c.9-11.4-3.7-19.8-8.9-26.1h-.9c-4.2,6-8.4,13.3-8.9,22.5-.5,9.8,3.7,18.8,9.5,24.6,3.8-5.4,8.5-12.3,9.2-21.1Z"/>
    <path class="cls-1" d="M418.5,22.3h.3c4.7,5.7,9.1,13.5,8.9,23.7-.2,9.9-4.3,18.3-9.5,23.4-5.2-5.9-9.3-14-9.2-23.4.1-9.5,5-18.3,9.5-23.7Z"/>
    <path class="cls-1" d="M463,73.3c-2.7-5.9-5-11.1-5-18.1,0-12.2,7.3-22,14.5-28.2.3,0,.3.1.3.3,10.5,14.2,3,39.5-9.8,46Z"/>
    <path class="cls-1" d="M374.6,74.2c-13-7.2-19.8-30.6-9.2-46.6.3,0,.3.1.3.3,12.6,7,18.5,31,8.9,46.3Z"/>
    <path class="cls-1" d="M505.7,86.4c-7.2-20.9,4.3-36.5,18.1-43.6.2,0,.3.3.6.3,6,20.5-4.8,37-18.7,43.3Z"/>
    <path class="cls-1" d="M332.2,87c-14.2-5.2-24.6-23.9-18.1-43.6,13.6,5.2,24.8,23.5,18.1,43.6Z"/>
    <path class="cls-1" d="M570.9,68c2.8,22.2-9.7,34.2-26.1,39.1-2.3-22.9,10.1-33.6,26.1-39.1Z"/>
    <path class="cls-1" d="M266.9,68.6c17.1,4.6,27.7,17.3,26.4,39.4-17.2-4.6-27.8-17.2-26.4-39.4Z"/>
    <path class="cls-1" d="M418.8,113.4c-11-7.6-9.9-31.2-.3-39.4,9.9,8.1,9.9,29.5.3,39.4Z"/>
    <path class="cls-1" d="M454.7,116.4c-9.1-13.9-2.2-31.6,7.7-38.6,9.4,11.2,2.5,33.1-7.7,38.6Z"/>
    <path class="cls-1" d="M383.2,116.9c-11.4-5.1-15.9-26.1-8-38.6,10.6,5.2,16.1,25.6,8,38.6Z"/>
    <path class="cls-1" d="M503.9,90.5h.6c5,17.2-3.9,31.1-15.7,36.2-5.4-16.7,3.6-30.9,15.1-36.2Z"/>
    <path class="cls-1" d="M349.1,127.3c-12.5-4.3-20.1-19.3-15.4-36.2,12.3,4.5,20.2,19.3,15.4,36.2Z"/>
    <path class="cls-1" d="M612.7,102.1c-2.3,20-13.8,30.9-33.8,33.2,2.1-20.3,13.7-31,33.8-33.2Z"/>
    <path class="cls-1" d="M225.7,102.4c20.1,2.3,31,13.9,33.5,33.8-20.5-1.9-31.1-13.8-33.5-33.8Z"/>
    <path class="cls-1" d="M542.2,111c2.8,18.2-8.3,28.5-21.7,32.6-2-18.9,8.2-28.2,21.7-32.6Z"/>
    <path class="cls-1" d="M317.6,144.2c-14.5-3.5-23.3-14.3-21.9-32.6,14.2,4,22.8,13.6,21.9,32.6Z"/>
    <path class="cls-1" d="M418.5,116.6c8.5,6.8,7.8,25.6.3,32.9-9.2-6-8.2-26.3-.3-32.9Z"/>
    <path class="cls-1" d="M447.8,151.9c-7.6-10-2.3-27.3,6.2-32.3,7.5,10.1,2.3,27.2-6.2,32.3Z"/>
    <path class="cls-1" d="M390.3,152.5c-9.5-3.9-13.4-22.4-6.5-32.3,8.9,4.8,12.9,21.7,6.5,32.3Z"/>
    <path class="cls-1" d="M475.4,160.2c-5.5-13.3,2.7-26.2,12.2-30.3,5.3,13.3-2.9,25.8-12.2,30.3Z"/>
    <path class="cls-1" d="M363,160.8c-10.5-3.5-17.2-16.5-12.8-30.3,10.1,4,16.5,16.1,12.8,30.3Z"/>
    <path class="cls-1" d="M576.3,138.6c-1.9,16.7-11.8,25.6-28.2,27.9,1.5-17.2,11.4-26,28.2-27.9Z"/>
    <path class="cls-1" d="M290.1,167.1c-17.1-1.5-25.7-11.5-27.9-27.9,17.1,1.5,25.7,11.4,27.9,27.9Z"/>
    <path class="cls-1" d="M646.5,143.3c-4.6,17.2-17.3,27.8-39.4,26.4,4.9-17.1,16.3-27.6,39.4-26.4Z"/>
    <path class="cls-1" d="M231,170.3c-22.8,2.4-34.5-10.4-38.9-26.4,22.4-1.8,33.7,10,38.9,26.4Z"/>
    <path class="cls-1" d="M518.1,146.6c2.4,6.9-.7,13.6-3.9,17.8-3.3,4.4-8.2,8-13.9,9.2-1.6-15.4,6.8-23.2,17.8-27Z"/>
    <path class="cls-1" d="M319.4,147.2c12,3.3,19,11.5,18.4,27.3-11.9-3.3-19.3-11.2-18.4-27.3Z"/>
    <path class="cls-1" d="M418.5,179.8c-7.2-5.5-6.7-21.2-.3-27.3,7.7,4.9,6.7,21.8.3,27.3Z"/>
    <path class="cls-1" d="M441.6,181.3c-5.9-8.7-1.5-22.2,5.3-26.7,6.4,7.8,2.3,23.3-5.3,26.7Z"/>
    <path class="cls-1" d="M390.6,155.2c7.6,3.8,10.8,17.8,5.6,26.7-7.8-2.4-11.5-18.3-5.6-26.7Z"/>
    <path class="cls-1" d="M463.9,188.1c-4.7-11.1,2.2-21.9,10.1-25.2,4.4,11.1-2.4,21.5-10.1,25.2Z"/>
    <path class="cls-1" d="M363.9,163.5c8.4,3.3,13.7,13.2,10.7,25.2-8.8-2.8-14.3-13.7-10.7-25.2Z"/>
    <path class="cls-1" d="M545.7,168.8c-1.2,14.2-9.7,21.2-23.1,23.1,1-14.4,9.4-21.5,23.1-23.1Z"/>
    <path class="cls-1" d="M315.6,192.6c-14.4-1.1-21.2-9.6-23.1-23.1,14.2,1.2,21.5,9.3,23.1,23.1Z"/>
    <path class="cls-1" d="M603.5,172.1c-4,14.2-13.7,22.8-32.9,21.9,3.9-14.2,14.4-23.4,32.9-21.9Z"/>
    <path class="cls-1" d="M267.5,194.6c-18.9,1.9-28.3-8.2-32.6-21.9,18.8-1.8,28.3,8.3,32.6,21.9Z"/>
    <path class="cls-1" d="M498.3,176.3c1.7,3.1.8,7.4-.3,10.4-2.2,5.9-8,10.4-14.5,12.2-.9-13.4,5.7-19.2,14.8-22.5Z"/>
    <path class="cls-1" d="M354.4,199.7c-9.7-2.7-16.3-10.2-15.1-22.8,10,2.5,16.1,10.3,15.1,22.8Z"/>
    <path class="cls-1" d="M418.2,181.9c6.4,4.1,5.7,18.2.3,22.8-6-4.2-5.5-18.1-.3-22.8Z"/>
    <path class="cls-1" d="M437.2,205.9c-5.4-6.5-1.7-18.8,3.9-22.2,5.9,6.2,1.8,18.9-3.9,22.2Z"/>
    <path class="cls-1" d="M396.2,184.3c6.6,3.1,9.1,14.9,4.7,22.2-6.7-2.9-9.3-15-4.7-22.2Z"/>
    <path class="cls-1" d="M671.8,190.8c-5.7,14.3-23.4,24-43.6,18.1,5.2-14.4,23.5-24.9,43.6-18.1Z"/>
    <path class="cls-1" d="M210.3,209.5c-20,7.3-37.2-4.9-43.6-18.1,18.2-7.6,38.3,4.1,43.6,18.1Z"/>
    <path class="cls-1" d="M453.8,211c-3-9.8,2.2-17.5,8.6-20.8,4.2,8.7-1.6,18.5-8.6,20.8Z"/>
    <path class="cls-1" d="M375.2,190.8c7.1,2.7,11.2,10.9,8.9,21.1-7.2-2.4-11.9-11.2-8.9-21.1Z"/>
    <path class="cls-1" d="M520.5,194.1c-1,11.8-8.1,17.6-19.3,19.3.8-12,7.7-18,19.3-19.3Z"/>
    <path class="cls-1" d="M317.6,194.6c11.8,1,17.9,7.8,19.3,19.3-11.9-.9-17.7-8-19.3-19.3Z"/>
    <path class="cls-1" d="M568,195.8c-3.3,11.9-11.5,19-27.3,18.4,3.2-12.1,11.2-19.2,27.3-18.4Z"/>
    <path class="cls-1" d="M297.8,214.8c-15.5,1.7-24.4-7.2-27-18.4,15.4-1.4,23.2,7.2,27,18.4Z"/>
    <path class="cls-1" d="M469.8,219.6c-1.5-10.8,4.8-16.4,12.5-19,1.5,10.8-4.7,16.4-12.5,19Z"/>
    <path class="cls-1" d="M355.6,201.2c8.1,2.5,13.3,7.9,12.8,19-8.5-2-13.3-7.9-12.8-19Z"/>
    <path class="cls-1" d="M418.2,206.5c5.3,3.2,4.8,15.3.3,19-5.1-3.7-4.6-14.8-.3-19Z"/>
    <path class="cls-1" d="M436.6,207.7c4.3,5.7,1.3,16-3.6,18.7-4.5-5.7-1.5-15.7,3.6-18.7Z"/>
    <path class="cls-1" d="M401,208.3c5.4,2.4,7.7,12.2,4.2,18.4-5.4-1.2-7.9-12.4-4.2-18.4Z"/>
    <path class="cls-1" d="M624,210.4c-4.5,12.1-19.6,20.1-36.5,15.1,4.7-12.1,19.4-20.2,36.5-15.1Z"/>
    <path class="cls-1" d="M250.9,225.8c-16.3,7-31.9-3.7-36.5-15.1,17.2-5.1,30.9,3.9,36.5,15.1Z"/>
    <path class="cls-1" d="M453.2,212.7c3,7.5-1.2,15.6-7.4,17.5-2.3-8.5,2-14.7,7.4-17.5Z"/>
    <path class="cls-1" d="M384.4,213.6c6.2,2,9.6,9,7.7,17.2-5.7-1.2-10-8.9-7.7-17.2Z"/>
    <path class="cls-1" d="M499.7,214.8c-1,9.7-6.6,14.9-16.3,16,1-9.7,6.5-15.1,16.3-16Z"/>
    <path class="cls-1" d="M338.7,215.4c9.7,1.1,14.8,6.7,16,16.3-9.7-1.1-15.2-6.4-16-16.3Z"/>
    <path class="cls-1" d="M538.3,215.7c-2.5,10-10.4,16-22.8,15.1,2.6-9.9,10.2-16.2,22.8-15.1Z"/>
    <path class="cls-1" d="M322.7,231.7c-13.4.9-19.3-5.8-22.5-15.1,12.2-2,20,5.4,22.5,15.1Z"/>
    <path class="cls-1" d="M458.2,236.8c-1.3-8.7,4-13.4,10.1-15.7.3,0,.5,0,.6.3,1.8,8.2-5,13.8-10.7,15.4Z"/>
    <path class="cls-1" d="M369.2,221.6c6.8,2.1,11.2,6.6,10.7,16-7-1.9-11.2-6.6-10.7-16Z"/>
    <path class="cls-1" d="M584.6,226.7c-3.9,10.1-16.3,16.8-30.5,12.8,3.9-10.2,16.1-16.9,30.5-12.8Z"/>
    <path class="cls-1" d="M284.4,239.7c-13.4,5.4-26.5-2.5-30.3-12.5,13.9-4.7,25.6,3.2,30.3,12.5Z"/>
    <path class="cls-1" d="M418.5,243.9c-4.2-3.1-4-12.3-.3-15.7,4.7,2.5,3.8,12.7.3,15.7Z"/>
    <path class="cls-1" d="M429.2,244.2c-3.3-5-.8-13,3-15.4,4,4.2,1.6,13.6-3,15.4Z"/>
    <path class="cls-1" d="M405.1,229.3c4.7,2,6.4,10.2,3.6,15.4-5.1-1.6-6.3-10.3-3.6-15.4Z"/>
    <path class="cls-1" d="M513.7,232c-2.2,8.4-8,13.2-19,12.8,2.4-8.2,7.7-13.4,19-12.8Z"/>
    <path class="cls-1" d="M482.2,232.3c-.8,8.2-5.7,12.3-13.6,13.3,1-8,5.3-12.7,13.6-13.3Z"/>
    <path class="cls-1" d="M324.5,232.9c10.8-1.6,16.6,4.6,19,12.5-10.7,1.4-16.2-5-19-12.5Z"/>
    <path class="cls-1" d="M444.9,232.6c2.8,6.3-1.1,13-5.9,14.5-2.2-6.9,1.6-12.3,5.9-14.5Z"/>
    <path class="cls-1" d="M355.9,232.9c8.4.5,12.2,5.6,13.6,13-8.1.4-12.6-5.4-13.6-13Z"/>
    <path class="cls-1" d="M392.7,233.2c4.9,1.9,8.3,7.9,6.2,14.8-5-1.9-8.2-7.8-6.2-14.8Z"/>
    <path class="cls-1" d="M687.2,241.8c-6,12.8-30.8,19.2-46.3,9.5,6.3-13,30.7-19.4,46.3-9.5Z"/>
    <path class="cls-1" d="M197.8,251.6c-5.9,3.6-12.9,6-21.7,5.3-11.3-.9-19.5-8.3-24.9-14.5,14.7-10.7,38.9-3,46.6,9.2Z"/>
    <path class="cls-1" d="M456.4,238.8c1.8,6.8-3.1,11.9-8.6,13.3-.7-8,3.6-11.1,8.6-13.3Z"/>
    <path class="cls-1" d="M551.6,240.3c-3.3,8.4-13.4,13.9-25.5,10.7,3.2-8.5,13.3-14,25.5-10.7Z"/>
    <path class="cls-1" d="M312.3,251.3c-11.1,4.5-22.2-2.1-25.2-10.4,11.6-3.9,21.4,2.7,25.2,10.4Z"/>
    <path class="cls-1" d="M381.1,239.7c6,1.4,9.3,5.3,8.9,13-5.8-1.5-9.1-5.6-8.9-13Z"/>
    <path class="cls-1" d="M418.2,245.7c3.9,2.5,3.4,10.3.3,13.3-3.5-2.6-3.2-10.3-.3-13.3Z"/>
    <path class="cls-1" d="M493.2,245.7c-1.8,7-6.6,11-15.7,10.7,1.8-7,6.4-11.2,15.7-10.7Z"/>
    <path class="cls-1" d="M344.9,246.5c9-1.5,13.6,4,16,10.1-8.4,2-13.9-3.8-16-10.1Z"/>
    <path class="cls-1" d="M426.2,259c-2.6-4.1-.7-10.7,2.4-12.8,3.6,3.2,1.3,11.5-2.4,12.8Z"/>
    <path class="cls-1" d="M408.7,246.8c4,1.7,5.2,8.3,3,12.8-4.2-1-5.4-8.7-3-12.8Z"/>
    <path class="cls-1" d="M467.1,247.4c-.9,6.5-4.4,10.4-11.3,11,.6-6.8,4.5-10.3,11.3-11Z"/>
    <path class="cls-1" d="M636.5,251.9c-5,11.2-26.1,15.5-38.6,8,5.1-11.3,26.2-16,38.6-8Z"/>
    <path class="cls-1" d="M240.5,260.5c-12.5,8.4-33.1,2.5-38.6-8.3,12.6-8,32.9-2.6,38.6,8.3Z"/>
    <path class="cls-1" d="M371.3,248c6.6.8,10.4,4.5,11,11.3-6.7-.7-10.5-4.3-11-11.3Z"/>
    <path class="cls-1" d="M438.1,248.9c2.5,5-.7,11.1-5,12.2-1.5-6.1,1.6-10,5-12.2Z"/>
    <path class="cls-1" d="M399.5,249.8c4.2,1.4,6.5,6,5.3,11.9-4-.5-7.1-6.4-5.3-11.9Z"/>
    <path class="cls-1" d="M524.4,251.6c-2.7,7-11.3,11.8-21.1,8.9,2.4-7.4,11.3-11.6,21.1-8.9Z"/>
    <path class="cls-1" d="M335.1,261.4c-10,2.9-17.6-2.5-21.1-8.9,9.3-3.6,18.7,1.7,21.1,8.9Z"/>
    <path class="cls-1" d="M439.5,264.6c-.6-6.5,2.7-9.1,6.8-11,2,5.6-2.4,9.9-6.8,11Z"/>
    <path class="cls-1" d="M391.2,254.3c4.6,1.5,7.5,4.7,7.4,11-5.3-.7-8-5.3-7.4-11Z"/>
    <path class="cls-1" d="M594.6,260.2c-4.4,9.3-21.5,13.1-32,6.8,3.4-9.4,21.6-13.5,32-6.8Z"/>
    <path class="cls-1" d="M276.1,267.6c-10.5,6.7-27.8,2.1-32-7.1,10.6-6.6,27.6-2,32,7.1Z"/>
    <path class="cls-1" d="M475.4,257.5c-1.6,5.8-5.5,9.3-13.3,8.9,1.7-5.7,5.6-9.3,13.3-8.9Z"/>
    <path class="cls-1" d="M363,258.1c7.7-.2,11.4,3.4,13,9.2-7.8.4-11.5-3.3-13-9.2Z"/>
    <path class="cls-1" d="M453.8,259.9c1.3,4.9-3.3,8.9-8.6,9.2.3-5.6,3.7-8.2,8.6-9.2Z"/>
    <path class="cls-1" d="M501.5,261.1c-2.2,5.8-9.2,9.6-17.5,7.4,1.9-6.3,9.7-9.8,17.5-7.4Z"/>
    <path class="cls-1" d="M383.8,260.5c5.4.8,8.7,3.8,9.2,9.5-5.7-.5-8.7-3.8-9.2-9.5Z"/>
    <path class="cls-1" d="M354.4,269.1c-8,2.9-14.8-1.9-17.5-7.1,7.4-3.3,15.4,1.3,17.5,7.1Z"/>
    <path class="cls-1" d="M559.6,267.3c-3.9,7.6-17.7,10.7-26.7,5.6,2.3-7.8,18.4-11.5,26.7-5.6Z"/>
    <path class="cls-1" d="M305.8,272.9c-7.9,6.5-23.3,2.3-26.7-5.3,8.6-5.7,22.6-1.5,26.7,5.3Z"/>
    <path class="cls-1" d="M460.6,267.3c-1.1,5-4.5,7.8-11,7.4,1.4-4.7,4.7-7.6,11-7.4Z"/>
    <path class="cls-1" d="M388.5,275.6c-6.4.6-9.9-3.4-10.7-7.4,5.6-.7,9.7,2.5,10.7,7.4Z"/>
    <path class="cls-1" d="M481.6,269.4c-2,4.8-7.3,7.7-14.5,6.2,1.3-5.4,7.8-8.2,14.5-6.2Z"/>
    <path class="cls-1" d="M371.3,276.2c-6.9,2.2-12.2-1.6-14.5-5.9,5.8-2.8,13,.8,14.5,5.9Z"/>
    <path class="cls-1" d="M530.6,272.9c-2.7,6.5-15,8.9-22.2,4.7,2.7-6.7,15.2-9.3,22.2-4.7Z"/>
    <path class="cls-1" d="M330.1,278.3c-7.2,5-19.9,1.1-21.9-5,7.3-4.3,19.2-1.4,21.9,5Z"/>
    <path class="cls-1" d="M465.3,275.9c-1.5,4.1-6.1,6.7-12.2,5.3,1.2-4.5,6.2-6.5,12.2-5.3Z"/>
    <path class="cls-1" d="M506.6,277.7c-2.5,5.5-12.8,7.7-18.7,3.9,2.3-5.4,12.7-7.4,18.7-3.9Z"/>
    <path class="cls-1" d="M350.6,282.4c-6.2,3.6-15.9,1.2-18.4-4.2,5.8-4,16.1-1.4,18.4,4.2Z"/>
    <path class="cls-1" d="M385.3,281.8c-5.5,1.9-10.7-1-11.9-5.3,5.9-1.2,10.4,1.2,11.9,5.3Z"/>
    <path class="cls-1" d="M485.5,281.8c-2.1,4.6-10.1,6.4-15.4,3.6.9-4.5,10.3-6.7,15.4-3.6Z"/>
    <path class="cls-1" d="M368.4,286c-5.1,3.1-13.1.8-15.1-3.6,4.9-3.3,14.3-.7,15.1,3.6Z"/>
    <path class="cls-1" d="M468,285.4c-1.8,3.9-8.9,5.3-13,2.7,2-3.8,8.8-5.4,13-2.7Z"/>
    <path class="cls-1" d="M383.5,288.4c-3.6,3.6-10.9,1-13-2.1,3.7-3.5,10.8-1,13,2.1Z"/>
    <path class="cls-1" d="M692.2,295.2c-9.3,12.6-37.4,11.3-47.2,0,5.4-4.6,12.7-9.3,22.2-9.5,10.2-.2,19.1,4.6,24.9,9.5Z"/>
    <path class="cls-1" d="M145.6,295.5v-.6c5.9-4.4,13.8-9,23.7-8.9,9.7.1,18.1,4.6,23.4,9.5-5.4,5.2-13.3,9.4-23.4,9.2-10.2-.2-17.9-4.7-23.7-9.2Z"/>
    <path class="cls-1" d="M640.9,295.2c-7.6,10-30.6,9.7-39.4.3,4.6-5.1,12.5-8.8,21.9-8,7.3.6,13.2,4.5,17.5,7.7Z"/>
    <path class="cls-1" d="M236.7,295.2c-7.4,10.6-30.7,9.8-39.4.3,7.6-10.2,31.3-9.6,39.4-.3Z"/>
    <path class="cls-1" d="M597.9,295.2c-6.3,8.6-25.7,7.9-32.6.3,6-9.1,26-8.2,32.6-.3Z"/>
    <path class="cls-1" d="M272.9,295.8c-6.9,8.1-26.6,8-32.6-.9,6.9-7.7,26.6-7.7,32.6.9Z"/>
    <path class="cls-1" d="M535,295.5c3.4-5.6,14.9-7.1,22.2-3.6,1.3.6,5,2.5,5,3.3,0,2-8.6,5.1-10.7,5.3-7.8.9-12.6-2.5-16.6-5Z"/>
    <path class="cls-1" d="M303.1,295.2c-3.5,5.5-14.6,7-21.9,3.6-1.4-.6-5.3-2.5-5.3-3.3,0-1.5,5.2-3.6,6.5-4.2,7.5-2.8,16.8,0,20.8,3.9Z"/>
    <path class="cls-1" d="M533,295.2c-4.4,5.9-18,5.5-22.8.3,3.9-6.6,18.3-5.7,22.8-.3Z"/>
    <path class="cls-1" d="M328,295.2c-4.1,6.5-18.1,5.6-22.8.3,4.3-5.9,18.1-5.6,22.8-.3Z"/>
    <path class="cls-1" d="M508.3,295.2c-3.9,4.9-14.7,4.7-19,.3,3.3-5.7,15-4.7,19-.3Z"/>
    <path class="cls-1" d="M348.8,295.8c-4.3,4.7-14.8,4.1-19-.3,3.6-4.9,15.8-5.1,19,.3Z"/>
    <path class="cls-1" d="M486.7,294.9c-2.9,4.6-12,4-15.7.6,2.8-4.8,12-3.9,15.7-.6Z"/>
    <path class="cls-1" d="M367.2,295.8c-3.3,3.6-12.7,3.4-15.7-.3,2.9-4.2,13.1-4.3,15.7.3Z"/>
    <path class="cls-1" d="M468.9,294.9c-2.1,4-10.1,3.4-13,.6,2.1-4,10.1-3.4,13-.6Z"/>
    <path class="cls-1" d="M382.3,295.2c-2.3,4-9.9,3.2-13,.6,2-4.1,10.2-3.4,13-.6Z"/>
    <path class="cls-1" d="M383.2,302.6c-1.7,3.7-8.8,5.1-13,2.7,1.7-3.8,9-5.5,13-2.7Z"/>
    <path class="cls-1" d="M467.4,305.3c-4,3.1-11,.9-13-2.4,3.8-3.1,11.3-1,13,2.4Z"/>
    <path class="cls-1" d="M368.4,305.3c-1.9,4.7-10.2,6.4-15.4,3.6,1.8-5,10.2-6.2,15.4-3.6Z"/>
    <path class="cls-1" d="M484.6,309.1c-5.3,3-12.8.7-15.4-3.3,4.5-3.8,13.6-1.6,15.4,3.3Z"/>
    <path class="cls-1" d="M350.3,308.8c-2,5.8-12.4,7.6-18.4,4.2,2.1-5.7,12.3-7.6,18.4-4.2Z"/>
    <path class="cls-1" d="M505.7,313.3c-6.1,3.7-15.9,1.1-18.4-4.2,5.9-3.9,16-1.5,18.4,4.2Z"/>
    <path class="cls-1" d="M385.3,309.4c-1.4,4.2-6.7,6.9-12.2,5,1.5-4,6.7-6.8,12.2-5Z"/>
    <path class="cls-1" d="M464.4,314.8c-6.1,1.3-10.6-1.2-12.2-5.3,5.6-1.9,10.7,1.2,12.2,5.3Z"/>
    <path class="cls-1" d="M329.8,313c-2.8,6.8-15.1,9.1-22.2,4.7,3-6.6,15-9.2,22.2-4.7Z"/>
    <path class="cls-1" d="M530,317.7c-6.8,5.1-19.4,1.9-22.2-4.7,7.5-4.5,19-1.2,22.2,4.7Z"/>
    <path class="cls-1" d="M371.3,315.1c-1.6,5.1-7.8,8.2-14.5,6.2,1.7-5.1,7.8-8,14.5-6.2Z"/>
    <path class="cls-1" d="M480.8,321.6c-6.9,1.8-12.7-1.4-14.5-6.5,6.9-1.9,12.7,1.4,14.5,6.5Z"/>
    <path class="cls-1" d="M305.5,317.7c-3.4,8.2-18.4,11.2-27,5.6,3.9-7.6,18-10.8,27-5.6Z"/>
    <path class="cls-1" d="M558.8,324c-8.9,5.5-22.5,1.4-26.7-5.6,8.2-6.3,23.2-2.3,26.7,5.6Z"/>
    <path class="cls-1" d="M388.8,315.7c-1.3,4.8-4.4,7.8-11,7.4,1.2-4.9,4.7-7.6,11-7.4Z"/>
    <path class="cls-1" d="M448.7,315.7c6.6-.5,9.6,2.7,11,7.4-6.6.5-9.4-2.9-11-7.4Z"/>
    <path class="cls-1" d="M275.8,323.7c-4,9.5-21.6,13.2-32,6.8,3.4-9,21.6-13.4,32-6.8Z"/>
    <path class="cls-1" d="M594.1,330.5c-10,7.2-27.9,2.4-32.3-6.5,10.4-7.2,27.3-2,32.3,6.5Z"/>
    <path class="cls-1" d="M444.3,321c5.5.7,8.7,3.8,9.2,9.5-5.5-.7-8.8-3.7-9.2-9.5Z"/>
    <path class="cls-1" d="M393.3,321.3c-.3,5.8-3.7,8.6-9.2,9.2.4-5.7,3.8-8.5,9.2-9.2Z"/>
    <path class="cls-1" d="M500.6,329.3c-7.4,3.4-15.4-1.4-17.5-7.1,8-2.7,14.8,1.7,17.5,7.1Z"/>
    <path class="cls-1" d="M354.4,322.2c-2.2,5.9-9.1,9.6-17.5,7.4,2-6.1,9.2-9.6,17.5-7.4Z"/>
    <path class="cls-1" d="M376.1,324c-1.3,6.1-5.3,9.3-13,8.9,1.6-5.7,5.6-9.1,13-8.9Z"/>
    <path class="cls-1" d="M461.2,324.3c7.5-1.4,11.4,3.2,13.3,8.3-6.7,1.8-11.6-3.2-13.3-8.3Z"/>
    <path class="cls-1" d="M438.6,325.4c4.8,1.3,7.6,4.7,7.4,11-4.9-1.2-7.8-4.5-7.4-11Z"/>
    <path class="cls-1" d="M399.2,325.7c.3,6.5-2.9,9.6-7.7,11-.3-6.5,2.9-9.6,7.7-11Z"/>
    <path class="cls-1" d="M240.2,330.8c-5.2,11.4-26.1,15.8-38.6,8,5.3-11.3,26.1-15.8,38.6-8Z"/>
    <path class="cls-1" d="M635.9,338.8c-11.9,8.9-33,2.8-38.6-7.7,12.3-8.8,32.5-2.6,38.6,7.7Z"/>
    <path class="cls-1" d="M432.1,328.7c4.3,1.4,6.7,6.1,5.3,12.2-4.3-1.4-6.6-6.2-5.3-12.2Z"/>
    <path class="cls-1" d="M405.1,329c2.6,5.1-.8,10.9-5,12.2-1.4-6.1,1.5-10.1,5-12.2Z"/>
    <path class="cls-1" d="M335.1,330.2c-2.6,7.2-10.8,11.3-21.1,8.9,2.5-7.1,11.3-11.9,21.1-8.9Z"/>
    <path class="cls-1" d="M523.5,338.8c-9.3,3.8-18.5-1.8-21.1-8.6,9.9-3.3,17.9,2.2,21.1,8.6Z"/>
    <path class="cls-1" d="M425.3,330.8c4.1,1.5,5.2,8.4,3,12.8-3.9-1.3-5.4-8.6-3-12.8Z"/>
    <path class="cls-1" d="M409.9,344.1c-3.1-3.7-1-11.1,2.1-13,3.7,3.5,1.1,11.1-2.1,13Z"/>
    <path class="cls-1" d="M418.2,331.1c3.8,2.6,3.4,10.3.3,13.3-3.7-2.4-3.1-10.4-.3-13.3Z"/>
    <path class="cls-1" d="M455,331.7c6.6.8,10.4,4.5,11,11.3-6.7-.7-10.4-4.5-11-11.3Z"/>
    <path class="cls-1" d="M382.6,332c-.4,6.9-4.3,10.3-11,11,.5-6.8,4.5-10.1,11-11Z"/>
    <path class="cls-1" d="M360.9,334.3c-1.6,6.9-7.2,11.3-15.7,10.4,1.6-6.9,7.4-11.1,15.7-10.4Z"/>
    <path class="cls-1" d="M476.6,334c9.4-.5,13.7,4.1,15.7,11-9.3.4-13.7-4.1-15.7-11Z"/>
    <path class="cls-1" d="M197.2,339.1c-5.4,13.1-31.2,19.9-46.3,9.5,6.9-12.6,30.4-18.9,46.3-9.5Z"/>
    <path class="cls-1" d="M686.6,348.9c-14.6,10.9-39.8,3.2-46.3-9.5,14.5-10.3,38.7-2.8,46.3,9.5Z"/>
    <path class="cls-1" d="M447,337.9c5.7,1.7,9.3,5.5,8.9,13.3-5.7-1.7-9.4-5.5-8.9-13.3Z"/>
    <path class="cls-1" d="M390.3,338.2c1.8,6.8-3.1,11.7-8.3,13.3-1.3-7.4,3.3-11.3,8.3-13.3Z"/>
    <path class="cls-1" d="M312,339.7c-3,8.7-13.2,13.8-25.2,10.7,3.1-8.6,13.7-14.2,25.2-10.7Z"/>
    <path class="cls-1" d="M550.8,350.1c-11.1,4.5-22.2-2.1-25.2-10.4,11.7-4,21.4,2.7,25.2,10.4Z"/>
    <path class="cls-1" d="M438.1,342.6c4.9,1.9,8.1,7.7,6.2,14.5-5.2-1.5-8.2-7.8-6.2-14.5Z"/>
    <path class="cls-1" d="M399.5,342.9c2.6,6.4-1.1,13.1-6.2,14.5-1.9-6.9,1.7-12.2,6.2-14.5Z"/>
    <path class="cls-1" d="M369.5,344.7c.2,8-5.5,12.7-13.3,13.6.8-8.2,5.7-12.3,13.3-13.6Z"/>
    <path class="cls-1" d="M467.7,344.7c8.2.7,12.6,5.2,13.3,13.3-8.3-.6-12.1-5.7-13.3-13.3Z"/>
    <path class="cls-1" d="M428.3,345.3c4.5,2.3,6.4,10,3.6,15.4-4.5-.8-6.7-10.4-3.6-15.4Z"/>
    <path class="cls-1" d="M343.7,345.9c-2.4,8.1-8,13.2-19,12.8,1.8-8.5,8.7-13.6,19-12.8Z"/>
    <path class="cls-1" d="M512.8,358.7c-11.3.8-16-5-19-12.5,10.3-2.2,16.9,4.5,19,12.5Z"/>
    <path class="cls-1" d="M406,361.3c-3.2-5.1-.7-12.8,3-15.4,4.2,4.1,1.6,13.8-3,15.4Z"/>
    <path class="cls-1" d="M418.2,346.2c4.5,2.8,3.9,12.7.3,16-4.3-3.1-3.9-12.4-.3-16Z"/>
    <path class="cls-1" d="M583.7,363.7c-13.3,5.3-26.5-2.6-30.3-12.5,14-4.8,25.7,3.2,30.3,12.5Z"/>
    <path class="cls-1" d="M284.1,351.2c-3.6,10.3-16.6,17-30.3,12.5,3.9-9.9,16.2-16.6,30.3-12.5Z"/>
    <path class="cls-1" d="M467.7,369c-6.9-1.9-10.9-6.7-10.7-15.7,7.1,1.7,11.1,6.5,10.7,15.7Z"/>
    <path class="cls-1" d="M380.5,353.6c.7,9.5-4.1,13.5-10.7,15.7-.9-8.6,3.8-14,10.7-15.7Z"/>
    <path class="cls-1" d="M482.5,359.2c9.6,1.2,15.1,6.5,16,16.3-9.8-.9-14.9-6.7-16-16.3Z"/>
    <path class="cls-1" d="M323,359.5c-2.8,10-9.4,16.1-22.8,15.4,2.7-10,9.6-15.9,22.8-15.4Z"/>
    <path class="cls-1" d="M354.4,359.5c1.1,9-6.4,15.4-15.7,16,1.1-9.5,6.7-14.5,15.7-16Z"/>
    <path class="cls-1" d="M444.9,359.5c6.1,1.9,10,9.6,7.4,17.5-5.9-2.2-9.5-9.2-7.4-17.5Z"/>
    <path class="cls-1" d="M514.6,359.5c13.8-1.1,19.6,5.9,22.8,15.4-12.9,1.2-19.9-5.8-22.8-15.4Z"/>
    <path class="cls-1" d="M385,377.3c-2.3-8.6,2.2-14.5,7.4-17.5,3.3,7.5-1.2,15.7-7.4,17.5Z"/>
    <path class="cls-1" d="M250.6,364.9c-4.2,12.6-19.3,20.2-36.2,15.4,4.5-12.4,19.4-20.1,36.2-15.4Z"/>
    <path class="cls-1" d="M431.8,363.4c5.5,2.4,7.6,12.2,4.2,18.4-5.3-1.2-7.9-12.4-4.2-18.4Z"/>
    <path class="cls-1" d="M623.1,380.6c-17.2,5.3-32-4.3-36.2-15.7,17.3-5.1,31.3,3.8,36.2,15.7Z"/>
    <path class="cls-1" d="M401.9,382.4c-3.8-5.9-1.1-15.6,3.6-18.4,4.9,5,1.6,16.3-3.6,18.4Z"/>
    <path class="cls-1" d="M418.5,383.6c-5.2-3.6-4.6-14.9-.3-19,5.3,3.2,4.7,15.2.3,19Z"/>
    <path class="cls-1" d="M468.6,370.5c8.3,2.3,13.5,7.7,12.8,19-8.3-2.3-13.2-8-12.8-19Z"/>
    <path class="cls-1" d="M368.4,370.8h.6c1,11.4-5.4,17-13,18.7-.5-10.9,5-15.7,12.5-18.7Z"/>
    <path class="cls-1" d="M297.8,376.4c-3.1,11.9-11.9,19.5-27.3,18.1,3.2-11.8,12.2-19.2,27.3-18.1Z"/>
    <path class="cls-1" d="M567.1,394.8c-15.4,1.3-23.6-6.8-27.3-18.1,15.3-2.5,23.9,6.8,27.3,18.1Z"/>
    <path class="cls-1" d="M500,377c11.9,1,18.2,7.7,19.3,19.6-11.5-1.4-17.7-8.2-19.3-19.6Z"/>
    <path class="cls-1" d="M337.5,377.3c-1.2,11.7-8.1,17.8-19.6,19.3,1.2-11.8,7.8-18.1,19.6-19.3Z"/>
    <path class="cls-1" d="M452.9,378.8c7.3,2.4,11.8,11.2,8.9,21.1-7.1-2.7-11.5-11.3-8.9-21.1Z"/>
    <path class="cls-1" d="M384.4,379.1c3.9,9-1.6,18.4-8.6,21.1-3.2-9.8,2.3-17.8,8.6-21.1Z"/>
    <path class="cls-1" d="M670.9,399.9c-19.2,7.7-38-4.4-43.6-18.1,19.1-7.1,37.5,4.5,43.6,18.1Z"/>
    <path class="cls-1" d="M210.3,381.8c-5.5,14.8-23.9,24.3-43.9,18.1,6-13.6,23-24.6,43.9-18.1Z"/>
    <path class="cls-1" d="M436,383.9c6.6,2.7,8.9,14.9,4.7,22.2-6.7-2.6-9.3-15.2-4.7-22.2Z"/>
    <path class="cls-1" d="M401.6,384.2c5.5,6.7,1.5,20.3-4.7,22.2-4.5-7.6-.9-18.7,4.7-22.2Z"/>
    <path class="cls-1" d="M418.2,385.3c6.3,4.2,5.7,18.1.3,22.8-6.1-4.2-5.4-18.2-.3-22.8Z"/>
    <path class="cls-1" d="M482.5,391.3c10,2.5,16.4,10.1,15.1,22.8-9.6-3-15.8-9.5-15.1-22.8Z"/>
    <path class="cls-1" d="M354.4,391.6h.6c1.3,12.8-5.5,19.9-15.4,22.5-.9-13.3,5.9-19,14.8-22.5Z"/>
    <path class="cls-1" d="M267.8,396.6c-4.1,13.9-14.2,23.4-32.9,21.7,3.9-14.1,14.5-23.1,32.9-21.7Z"/>
    <path class="cls-1" d="M602.7,418.3c-18.3,2.6-28.2-8.3-32.9-21.4,18.7-3,28.4,8.2,32.9,21.4Z"/>
    <path class="cls-1" d="M293,421.8c.3-13.8,9.5-21.3,22.5-23.4.3,0,.3.1.3.3-.6,13.6-9.5,21.3-22.8,23.1Z"/>
    <path class="cls-1" d="M521.4,398.4c14.3,1.2,21.8,9.2,23.1,23.4-13.9-1.6-21.2-9.8-23.1-23.4Z"/>
    <path class="cls-1" d="M473,427.2c-8.3-3.3-13.8-13.2-10.7-25.2,8.9,2.8,14.2,13.7,10.7,25.2Z"/>
    <path class="cls-1" d="M364.8,427.5c-4.5-11,2.2-21.8,10.1-25.2,4.6,11.2-2.4,21.6-10.1,25.2Z"/>
    <path class="cls-1" d="M440.7,408.2c8,3.8,11,18.1,5.6,27-7.7-3.6-10.9-18.2-5.6-27Z"/>
    <path class="cls-1" d="M391.2,435.5c-5.5-8.7-1.5-22.5,5.3-26.7,6.7,7.8,2.2,23.3-5.3,26.7Z"/>
    <path class="cls-1" d="M418.2,410.3c7.4,5,7.3,22.5-.3,27.3-6.5-6.1-6-21.3.3-27.3Z"/>
    <path class="cls-1" d="M517.5,443.8c-11.6-3.3-19.4-12.1-18.1-27.3,12,2.9,19.3,12.1,18.1,27.3Z"/>
    <path class="cls-1" d="M337.2,416.8h.6c2.9,14.6-6.8,24.1-18.1,27-1-15.9,7-22.7,17.5-27Z"/>
    <path class="cls-1" d="M645.4,447.3c-22.6,1.8-33.9-10.2-39.1-26.7,22.7-1.9,34.2,9.9,39.1,26.7Z"/>
    <path class="cls-1" d="M231.3,420.9c-4.7,17-17.1,27.8-39.4,26.1,4.8-16.9,17.1-27.8,39.4-26.1Z"/>
    <path class="cls-1" d="M574.8,452.1c-16.5-2-25.7-11.5-27.6-28.2,16.8,1.7,26,11.2,27.6,28.2Z"/>
    <path class="cls-1" d="M290.4,424.2c-1.4,17-11.2,25.8-27.9,27.6,1.7-16.8,11.4-25.6,27.9-27.6Z"/>
    <path class="cls-1" d="M486.7,460.1c-10-4-16.7-16.1-12.8-30.2,10.6,3.5,17,16.5,12.8,30.2Z"/>
    <path class="cls-1" d="M351.2,460.4c-5.4-13.3,2.7-26.1,12.2-30.2,5.5,13.4-2.9,25.9-12.2,30.2Z"/>
    <path class="cls-1" d="M453.5,469.9c-9.1-3.1-13.5-21.8-6.8-32,9.4,4.3,13.1,21.5,6.8,32Z"/>
    <path class="cls-1" d="M384.7,470.5c-7.6-9.7-2.5-27.4,6.2-32,7.6,9.9,2.2,27-6.2,32Z"/>
    <path class="cls-1" d="M418.5,473.4c-8.7-6.3-8-26.1-.3-32.9,9.1,6.4,8,25.8.3,32.9Z"/>
    <path class="cls-1" d="M519.3,446.4c14.3,3.8,23.5,14.2,21.9,32.9-14-4.3-22.8-13.8-21.9-32.9Z"/>
    <path class="cls-1" d="M317.6,446.7h.6c1.6,18.8-8.2,28.5-22.2,32.6-1.6-18.6,8.4-27.9,21.6-32.6Z"/>
    <path class="cls-1" d="M578,454.7c20.5,2,31,13.9,33.5,33.8-20.3-2.2-31-13.9-33.5-33.8Z"/>
    <path class="cls-1" d="M258.9,455c.4,10.7-4.5,19.7-11.3,25.2-5.4,4.5-13,7.3-21.7,8,1.8-20.2,13.8-30.3,32.9-33.2Z"/>
    <path class="cls-1" d="M487.9,463.1c12.2,4.6,20.5,19.9,15.1,36.5-12-4.7-20-19.5-15.1-36.5Z"/>
    <path class="cls-1" d="M349.4,463.6h.6c5.1,17.3-3.8,31.3-15.7,36.2-5.1-17,3.7-31,15.1-36.2Z"/>
    <path class="cls-1" d="M461.5,512c-10.8-5.4-15.7-26.3-7.7-38.6,11.4,5.3,15.8,26.4,7.7,38.6Z"/>
    <path class="cls-1" d="M375.8,512.3c-8.2-12.5-2.1-32.1,7.4-38,0-.3.6-.2.6-.6,8.8,11.4,3.5,32.7-8,38.6Z"/>
    <path class="cls-1" d="M418.5,516.1c-10.4-7.8-9.6-31-.3-39.4,10.4,8.5,10.4,28.8.3,39.4Z"/>
    <path class="cls-1" d="M570,522.4c-16.7-5.2-27.4-16.4-26.4-39.4,17.4,4.3,28,17.1,26.4,39.4Z"/>
    <path class="cls-1" d="M293,483.2c1.4.2,1.1,2.4,1.2,3.6,1.4,19.5-12,31.1-27,35.6-1.8-22.3,9.9-33.6,25.8-39.1Z"/>
    <path class="cls-1" d="M522.9,547.3c-14.6-5.6-24.4-24-18.1-43.9.3,0,.3.1.3.3,13.8,5.6,24.1,22.9,17.8,43.6Z"/>
    <path class="cls-1" d="M332.5,504h.6c7.1,19.1-4.6,38-18.7,43.6-6.5-20.7,4.7-36.7,18.1-43.6Z"/>
    <path class="cls-1" d="M471.6,562.7c-6.9-5.2-13.4-13.5-14.2-24.6-.6-8.1,1.7-15.6,5-21.9.3,0,.3.1.3.3,6.1,4.8,13,12.5,13.9,23.1.8,9.3-1.7,16.6-5,23.1Z"/>
    <path class="cls-1" d="M365.7,563c-10.2-18.2-3-36.5,9.5-46.3.2,0,.3.3.6.3,9.9,14.4,2.8,39.4-10.1,46Z"/>
    <path class="cls-1" d="M418.5,567.7c-5.8-5.8-10-14.9-9.5-24.6.5-9.2,4.7-16.5,8.9-22.5h.9c5.2,6.3,9.8,14.7,8.9,26.1-.7,8.8-5.4,15.7-9.2,21.1Z"/>
  </g>
  <text/>
</svg>