<svg viewBox="0 0 548 547" fill="none" xmlns="http://www.w3.org/2000/svg">
<path fill-rule="evenodd" clip-rule="evenodd" d="M327.751 6.05007C327.731 5.87007 327.711 5.70007 327.451 5.75007C320.261 11.9301 312.891 21.7401 312.921 33.9201C312.941 40.8801 315.261 46.1401 317.961 52.0101C330.731 45.5701 338.251 20.2501 327.751 6.04007V6.05007ZM220.691 6.64007C220.671 6.46007 220.641 6.29007 220.391 6.34007C209.831 22.2701 216.601 45.6901 229.581 52.9001C239.211 37.5901 233.251 13.6501 220.681 6.63007L220.691 6.64007ZM379.361 21.7601C379.061 21.7601 379.011 21.5201 378.771 21.4601C364.991 28.5301 353.451 44.2001 360.681 65.0601C374.561 58.7501 385.341 42.2901 379.371 21.7601H379.361ZM169.081 22.0601C162.531 41.7901 172.971 60.4101 187.171 65.6601C193.871 45.6001 182.711 27.2801 169.081 22.0601ZM399.821 85.8301C416.181 80.8301 428.691 68.8301 425.921 46.6801C409.931 52.2401 397.481 62.9201 399.821 85.8301ZM148.321 86.7201C149.641 64.6101 139.061 51.9101 121.921 47.2801C120.491 69.5501 131.101 82.1401 148.321 86.7201ZM273.481 52.6101C263.891 60.8601 262.821 84.4901 273.781 92.0501C283.351 82.1101 283.361 60.6901 273.481 52.6101ZM317.371 56.4601C307.481 63.4301 300.581 81.1401 309.661 95.0201C319.861 89.6101 326.761 67.7101 317.371 56.4601ZM230.181 57.0601C222.311 69.4701 226.781 90.5301 238.191 95.6201C246.331 82.7101 240.811 62.2901 230.181 57.0601ZM343.771 105.4C355.631 100.35 364.441 86.4001 359.491 69.2201H358.901C347.331 74.4801 338.331 88.6701 343.771 105.4ZM188.661 69.8101C183.941 86.7301 191.561 101.64 204.081 105.99C208.831 89.1501 200.991 74.2601 188.661 69.8101ZM433.931 114C453.991 111.71 465.431 100.82 467.741 80.7801C447.601 82.9801 436.011 93.7401 433.931 114ZM114.211 114.89C111.661 95.0001 100.831 83.3901 80.7009 81.0801C83.1209 101.1 93.6709 112.99 114.211 114.89ZM375.501 122.31C388.821 118.14 399.931 107.84 397.151 89.6901C383.711 94.1501 373.511 103.42 375.501 122.31ZM150.701 90.2701C149.391 108.61 158.101 119.42 172.651 122.89C173.461 103.89 164.881 94.2801 150.701 90.2701ZM273.771 128.24C281.321 120.93 281.941 102.1 273.471 95.3201C265.541 101.94 264.541 122.27 273.771 128.24ZM309.071 98.2801C300.551 103.35 295.211 120.57 302.841 130.61C311.381 125.48 316.561 108.34 309.071 98.2801ZM238.781 98.8701C231.861 108.82 235.771 127.26 245.311 131.2C251.661 120.52 247.691 103.69 238.781 98.8701ZM342.581 108.66C333.081 112.67 324.871 125.56 330.421 138.91C339.641 134.47 347.861 121.97 342.581 108.66ZM205.261 109.26C200.821 123.02 207.531 136 218.011 139.51C221.771 125.35 215.381 113.25 205.261 109.26ZM403.081 145.14C419.471 142.84 429.311 134 431.261 117.26C414.441 119.12 404.561 127.93 403.081 145.14ZM117.181 117.86C119.391 134.23 127.931 144.28 145.061 145.74C142.921 129.29 134.291 119.34 117.181 117.86ZM462.101 148.4C484.251 149.76 496.931 139.16 501.551 122C478.441 120.83 466.961 131.31 462.101 148.4ZM47.1909 122.6C51.5609 138.59 63.2309 151.44 86.0409 149C80.9109 132.58 69.5809 120.78 47.1909 122.6ZM355.331 152.26C361.101 151.07 365.971 147.45 369.271 143.07C372.461 138.84 375.501 132.21 373.131 125.28C362.141 129.04 353.731 136.9 355.341 152.27L355.331 152.26ZM192.811 153.15C193.401 137.34 186.381 129.13 174.421 125.86C173.551 141.95 180.871 149.85 192.811 153.15ZM273.181 131.2C266.731 137.25 266.261 152.94 273.481 158.49C279.901 152.98 280.901 136.07 273.181 131.2ZM301.951 133.28C295.111 137.79 290.701 151.24 296.611 159.97C304.291 156.62 308.381 141.1 301.951 133.28ZM251.231 160.56C256.401 151.69 253.191 137.66 245.601 133.87C239.771 142.25 243.471 158.16 251.231 160.56ZM328.941 141.58C321.011 144.85 314.191 155.7 318.861 166.79C326.521 163.09 333.381 152.68 328.941 141.58ZM229.591 167.38C232.621 155.4 227.331 145.51 218.911 142.17C215.241 153.68 220.771 164.58 229.591 167.38ZM377.581 170.65C391.061 168.71 399.501 161.72 400.711 147.52C386.941 149.17 378.601 156.25 377.581 170.65ZM147.431 148.11C149.321 161.64 156.211 170.18 170.561 171.24C168.931 157.44 161.611 149.34 147.431 148.11ZM425.621 172.72C444.791 173.6 454.501 165.02 458.541 150.77C439.991 149.36 429.561 158.53 425.621 172.72ZM89.9009 151.37C94.1809 165.09 103.581 175.26 122.521 173.32C118.151 159.7 108.691 149.58 89.9009 151.37ZM338.431 177.47C344.981 175.69 350.741 171.2 352.961 165.31C354.081 162.35 354.911 158 353.251 154.93C344.101 158.24 337.491 164.08 338.421 177.47H338.431ZM194.291 155.52C193.131 168.19 199.671 175.62 209.421 178.36C210.441 165.85 204.291 158 194.291 155.52ZM273.481 183.4C278.901 178.76 279.581 164.66 273.181 160.56C268.011 165.3 267.441 179.17 273.481 183.4ZM296.021 162.34C290.471 165.75 286.721 178.08 292.161 184.58C297.861 181.29 301.941 168.51 296.021 162.34ZM255.981 185.18C260.311 177.86 257.871 166 251.231 162.94C246.711 170.16 249.311 182.31 255.981 185.18ZM483.161 187.55C503.371 193.45 521.031 183.73 526.761 169.46C506.671 162.69 488.361 173.16 483.161 187.55ZM21.6809 170.05C28.0509 183.26 45.2909 195.46 65.2809 188.14C59.9609 174.14 39.8909 162.46 21.6809 170.05ZM317.371 168.87C311.011 172.11 305.811 179.85 308.771 189.63C315.771 187.41 321.581 177.54 317.371 168.87ZM239.081 190.52C241.421 180.33 237.281 172.12 230.181 169.46C227.131 179.28 231.881 188.08 239.081 190.52ZM356.221 192C367.381 190.31 374.481 184.55 375.501 172.72C363.951 174.02 357.061 179.98 356.221 192ZM191.921 192.59C190.571 181.08 184.481 174.32 172.641 173.31C174.251 184.55 179.981 191.68 191.921 192.59ZM395.671 192.89C411.471 193.46 419.641 186.41 422.961 174.5C406.901 173.66 398.831 180.82 395.671 192.89ZM125.781 175.1C128.341 186.3 137.261 195.23 152.771 193.49C149.011 182.32 141.181 173.66 125.781 175.1ZM337.241 179.25C329.571 181.87 323.331 187.47 324.781 198.23C332.521 195.69 338.741 190.05 337.241 179.25ZM223.361 198.82C223.871 187.73 218.661 182.36 210.611 179.84C210.061 190.97 214.821 196.79 223.361 198.82ZM273.481 204.16C277.951 200.5 278.481 188.35 273.181 185.18C268.881 189.34 268.341 200.5 273.481 204.16ZM288.011 205.05C292.861 202.32 295.861 192.05 291.571 186.37C286.551 189.33 283.511 199.34 288.011 205.05ZM260.131 205.35C263.671 199.18 261.371 189.39 255.981 186.96C252.251 192.99 254.751 204.16 260.131 205.35ZM442.531 204.16C459.451 209.17 474.471 201.16 479.011 189.03C461.981 183.97 447.201 192.1 442.531 204.16ZM69.4309 189.33C74.0109 200.72 89.6509 211.41 105.911 204.45C100.301 193.25 86.6609 184.21 69.4309 189.33ZM300.761 208.91C306.981 207.02 311.211 198.89 308.171 191.41C302.801 194.18 298.471 200.36 300.761 208.91ZM247.081 209.5C248.981 201.29 245.591 194.25 239.371 192.3C237.111 200.61 241.361 208.27 247.081 209.5ZM338.431 209.5C348.121 208.42 353.701 203.21 354.741 193.48C344.921 194.44 339.471 199.77 338.431 209.5ZM209.711 210.39C208.511 200.82 203.421 195.13 193.701 194.08C194.551 204 200.031 209.3 209.711 210.39ZM370.461 209.5C382.891 210.39 390.771 204.36 393.301 194.37C380.701 193.27 373.071 199.63 370.461 209.5ZM155.141 195.26C158.361 204.6 164.251 211.26 177.681 210.39C175.181 200.71 167.371 193.24 155.141 195.26ZM323.901 200.01C323.851 199.78 323.641 199.67 323.311 199.71C317.211 202.02 311.941 206.72 313.231 215.43C318.881 213.79 325.741 208.21 323.911 200.01H323.901ZM234.921 216.32C235.421 206.92 231.001 202.44 224.241 200.3C223.771 209.67 227.951 214.39 234.921 216.32ZM409.011 218.1C423.301 222.14 435.651 215.48 439.561 205.35C425.151 201.24 412.911 207.93 409.011 218.1ZM109.171 205.94C112.911 215.87 126.051 223.77 139.421 218.4C134.811 209.19 123.021 201.21 109.171 205.94ZM273.181 206.83C269.461 210.27 269.301 219.49 273.481 222.55C277.001 219.5 277.881 209.3 273.181 206.83ZM287.121 207.42C283.381 209.86 280.901 217.86 284.161 222.84C288.681 221.03 291.161 211.66 287.121 207.42ZM263.691 223.44C266.541 218.19 264.801 210.03 260.131 208.02C257.391 213.14 258.621 221.84 263.691 223.44ZM349.701 223.44C360.681 223.85 366.531 219.11 368.681 210.69C357.421 210.01 352.101 215.27 349.701 223.44ZM323.601 224.33C331.571 223.3 336.431 219.17 337.241 210.98C328.921 211.66 324.611 216.35 323.601 224.33ZM198.441 224.03C196.041 216.15 190.311 210.02 179.461 211.57C182.261 219.06 187.751 225.42 198.441 224.03ZM293.941 225.81C298.781 224.23 302.631 217.57 299.871 211.28C295.541 213.54 291.721 218.93 293.941 225.81ZM224.541 224.62C223.081 217.18 219.271 212.09 210.901 211.57C211.941 219.23 216.421 225.03 224.541 224.62ZM253.901 226.7C255.931 219.76 252.571 213.79 247.671 211.87C245.741 218.85 248.941 224.75 253.901 226.7ZM495.911 229.96C511.331 239.69 536.181 233.29 542.181 220.47C526.641 210.56 502.251 216.93 495.911 229.96ZM6.26093 221.07C11.7109 227.26 19.8809 234.74 31.1709 235.6C39.9509 236.27 46.9609 233.9 52.8209 230.26C45.1909 218.1 20.9309 210.4 6.26093 221.07ZM302.841 230.85C308.341 229.4 313.211 224.26 311.441 217.5C306.391 219.77 302.171 222.86 302.841 230.85ZM381.141 229.67C393.271 232.91 403.301 227.39 406.651 218.99C394.481 215.67 384.331 221.13 381.141 229.67ZM142.091 219.58C145.111 227.9 156.181 234.48 167.301 229.96C163.441 222.3 153.741 215.68 142.091 219.58ZM245.011 231.45C245.431 223.72 242.071 219.76 236.111 218.4C235.931 225.89 239.191 229.95 245.011 231.45ZM273.481 237.67C276.551 234.67 277.101 226.8 273.181 224.32C270.281 227.36 269.941 235.06 273.481 237.67ZM332.501 235.01C341.601 235.31 346.441 231.35 348.221 224.33C338.931 223.83 334.331 228.04 332.501 235.01ZM215.941 235.3C213.561 229.18 208.911 223.75 199.921 225.22C202.001 231.49 207.571 237.29 215.941 235.3ZM283.561 224.92C280.521 226.96 278.571 233.56 281.191 237.67C284.901 236.43 287.191 228.09 283.561 224.92ZM266.661 238.27C268.861 233.84 267.651 227.17 263.691 225.52C261.301 229.54 262.471 237.23 266.661 238.27ZM310.851 237.08C317.711 236.53 321.251 232.65 322.121 226.11C315.351 226.75 311.451 230.27 310.851 237.08ZM452.911 238.56C465.351 246.06 486.501 241.79 491.461 230.55C479.131 222.56 457.981 227.27 452.911 238.56ZM56.9809 230.85C62.4809 241.61 83.0309 247.58 95.5309 239.15C89.9209 228.22 69.6009 222.8 56.9809 230.85ZM237.301 237.97C236.681 231.18 232.931 227.51 226.331 226.7C226.821 233.62 230.611 237.25 237.301 237.97ZM288.011 239.75C292.311 238.66 295.531 232.6 293.051 227.59C289.561 229.72 286.531 233.61 288.011 239.75ZM259.841 240.34C261.041 234.48 258.731 229.87 254.501 228.48C252.711 233.93 255.871 239.8 259.841 240.34ZM358.301 239.16C368.081 242.03 376.611 237.26 379.361 230.26C369.631 227.52 360.681 231.74 358.301 239.16ZM169.081 231.15C172.521 237.59 180.101 242.96 190.141 240.05C187.821 232.82 178.431 227.56 169.081 231.15ZM301.361 232.34C297.281 234.2 293.941 236.78 294.541 243.31C298.981 242.2 303.381 237.93 301.361 232.34ZM253.611 243.9C253.711 237.67 250.821 234.44 246.201 232.93C245.601 238.57 248.301 243.21 253.611 243.9ZM417.611 245.68C428.151 251.95 445.241 248.14 449.641 238.86C439.251 232.21 421.051 236.32 417.611 245.68ZM99.0909 239.16C103.281 248.43 120.631 252.96 131.121 246.28C126.651 237.16 109.681 232.6 99.0909 239.16ZM317.081 245.09C324.931 245.53 328.851 242.03 330.431 236.19C322.651 235.83 318.831 239.42 317.081 245.09ZM231.071 245.98C229.411 240.23 225.681 236.54 218.021 236.79C219.541 242.68 223.291 246.35 231.071 245.98ZM300.171 247.76C305.451 247.49 310.091 243.46 308.771 238.57C303.861 239.59 300.501 242.17 300.171 247.76ZM339.021 247.17C347.351 249.37 354.301 245.59 356.521 239.76C348.681 237.37 340.931 240.88 339.021 247.17ZM247.971 248.65C247.471 242.92 244.201 239.97 238.781 239.16C239.281 244.89 242.261 248.14 247.971 248.65ZM191.921 240.64C194.631 245.88 201.411 250.65 209.421 247.76C207.341 241.97 199.321 237.35 191.921 240.64ZM387.961 251.61C396.901 256.69 410.741 253.55 414.651 245.98C406.341 240.08 390.281 243.85 387.961 251.61ZM134.091 246.27C137.511 253.9 152.881 258.1 160.781 251.61C156.701 244.79 142.691 240.62 134.091 246.27ZM304.621 253.39C311.101 253.74 314.461 250.97 315.591 245.98C309.301 245.82 306.041 248.69 304.621 253.39ZM232.851 246.87C233.651 250.91 237.091 254.89 243.531 254.28C242.571 249.36 238.421 246.21 232.851 246.87ZM322.121 254.28C329.381 255.72 334.681 252.86 336.651 248.05C329.941 246.05 323.391 248.9 322.121 254.28ZM211.791 248.94C214.131 253.22 219.431 257.04 226.321 254.87C224.811 249.73 217.621 246.1 211.791 248.94ZM363.341 256.36C370.591 260.51 382.881 258.15 385.581 251.61C378.511 247.04 366.041 249.64 363.341 256.36ZM163.151 251.91C165.231 258.01 177.911 261.91 185.101 256.95C182.361 250.55 170.411 247.57 163.151 251.91ZM308.181 259.92C314.231 261.28 318.821 258.73 320.341 254.58C314.331 253.38 309.421 255.41 308.181 259.92ZM342.881 260.21C348.801 264.09 359.071 261.86 361.571 256.35C355.551 252.8 345.181 254.77 342.881 260.21ZM187.171 256.95C189.631 262.26 199.391 264.74 205.561 261.1C203.271 255.52 192.991 252.96 187.171 256.95ZM228.401 255.17C229.521 259.55 234.811 262.37 240.261 260.51C238.771 256.38 234.301 253.93 228.401 255.17ZM325.081 264.07C330.421 266.87 338.361 265.12 340.501 260.51C335.391 257.41 325.931 259.54 325.081 264.07ZM208.231 261.1C210.221 265.51 218.281 267.73 223.351 264.66C222.551 260.42 213.101 257.76 208.231 261.1ZM309.961 266.74C314.111 269.33 321.241 268.02 323.011 264.07C318.741 261.36 311.931 262.99 309.961 266.74ZM225.431 264.96C227.611 268.08 234.831 270.59 238.481 267.04C236.261 263.92 229.091 261.47 225.431 264.96ZM522.311 264.37C512.791 264.59 505.521 269.3 500.071 273.86C509.821 285.17 537.911 286.47 547.221 273.86C541.421 268.94 532.551 264.13 522.311 264.37ZM478.421 266.15C468.961 265.37 461.071 269.07 456.471 274.16C465.321 283.6 488.361 283.86 495.921 273.86C491.641 270.68 485.681 266.74 478.421 266.15ZM52.2309 274.15C61.0209 283.66 84.2909 284.5 91.6809 273.85C83.5809 264.57 59.7909 263.91 52.2309 274.15ZM420.291 274.15C427.221 281.72 446.571 282.49 452.911 273.85C446.341 265.9 426.241 265.01 420.291 274.15ZM95.2309 273.56C101.221 282.41 120.971 282.52 127.851 274.45C121.861 265.85 102.151 265.82 95.2309 273.56ZM406.641 279.2C408.701 278.97 417.401 275.9 417.321 273.86C417.291 273.15 413.591 271.24 412.281 270.6C404.951 267.03 393.441 268.53 390.041 274.16C394.051 276.75 398.871 280.07 406.651 279.2H406.641ZM137.351 270C135.991 270.51 130.731 272.65 130.831 274.15C130.881 274.94 134.771 276.76 136.171 277.41C143.541 280.85 154.581 279.35 158.121 273.85C154.201 269.95 144.851 267.18 137.361 269.99L137.351 270ZM365.121 274.15C369.991 279.36 383.531 279.71 387.951 273.85C383.421 268.49 369.031 267.56 365.121 274.15ZM160.191 274.15C164.961 279.42 178.881 280.37 183.031 273.85C178.311 268.56 164.481 268.26 160.191 274.15ZM344.361 274.15C348.661 278.54 359.431 278.71 363.341 273.85C359.371 269.43 347.711 268.42 344.361 274.15ZM184.801 274.15C188.991 278.59 199.461 279.12 203.781 274.45C200.561 269 188.411 269.3 184.801 274.15ZM325.971 274.15C329.671 277.58 338.821 278.19 341.691 273.56C338.001 270.22 328.741 269.34 325.971 274.15ZM206.451 274.15C209.481 277.89 218.881 278.08 222.171 274.45C219.531 269.9 209.391 269.98 206.451 274.15ZM310.851 274.15C313.771 276.96 321.801 277.55 323.901 273.56C320.961 270.73 312.951 270.16 310.851 274.15ZM224.251 274.45C227.451 277.1 234.961 277.84 237.301 273.86C234.451 271.07 226.241 270.36 224.251 274.45ZM225.141 283.94C229.401 286.34 236.511 284.98 238.191 281.27C234.101 278.45 226.861 280.11 225.141 283.94ZM309.361 281.57C311.391 284.8 318.441 287.05 322.411 283.94C320.651 280.57 313.121 278.43 309.361 281.57ZM207.931 287.5C213.161 290.39 221.461 288.69 223.351 283.94C218.161 281.26 209.711 282.53 207.931 287.5ZM324.191 284.53C326.831 288.46 334.291 290.84 339.611 287.79C337.781 282.92 328.711 280.78 324.191 284.53ZM186.881 291.65C192.861 295.1 203.301 293.3 205.271 287.5C199.191 284.1 189.021 285.93 186.881 291.65ZM342.281 287.8C344.731 293.06 354.561 295.63 360.671 291.95C358.311 286.34 348.211 283.86 342.281 287.8ZM228.101 293.13C233.581 294.96 238.891 292.26 240.261 288.09C234.851 286.33 229.591 289.08 228.101 293.13ZM307.291 288.09C308.831 292.26 313.381 294.74 319.451 293.43C317.951 289.28 312.921 286.22 307.291 288.09ZM162.561 296.4C169.751 300.77 182.041 298.5 184.801 291.65C177.551 287.22 165.571 289.82 162.561 296.4ZM362.751 291.65C365.551 298.33 378.181 301.48 384.991 296.4C381.711 290.49 370.211 287.2 362.751 291.65ZM211.791 299.96C218.561 301.95 224.761 298.85 226.321 293.73C219.601 291.97 213.541 294.89 211.791 299.96ZM321.231 293.73C323.081 298.83 328.861 302.05 335.761 300.26C333.951 295.16 328.171 291.83 321.231 293.73ZM133.491 302.03C142.131 307.55 157.041 304.57 160.481 296.4C151.491 291.25 137.371 294.39 133.491 302.03ZM387.071 296.99C391.291 304.01 404.851 308.09 413.761 302.62C410.321 294.67 395.261 290.73 387.071 296.99ZM232.851 301.73C239.381 302.13 242.501 299.12 243.821 294.32C237.521 294.16 234.031 296.79 232.851 301.73ZM314.701 301.73C313.301 297 310.351 293.83 303.731 294.32C305.341 298.84 308.071 302.24 314.701 301.73ZM98.7909 309.15C109.171 315.53 126.781 311.81 130.821 302.33C120.371 295.76 102.211 300.2 98.7909 309.15ZM416.731 302.63C421.181 311.51 439.031 316.38 449.061 309.15C444.001 300.63 427.161 295.43 416.731 302.63ZM308.471 309.15C307.961 303.44 304.821 300.34 299.281 299.66C299.691 305.48 302.941 308.46 308.471 309.15ZM239.081 309.15C244.621 308.56 247.971 305.78 248.271 299.96C242.841 300.66 239.501 303.45 239.081 309.15ZM338.131 300.85C340.191 306.56 348.251 311.37 355.631 307.97C352.981 302.58 346.121 298.13 338.131 300.85ZM191.921 308.26C200.301 310.45 207.261 306.78 209.421 300.85C201.141 298.65 193.881 302.2 191.921 308.26ZM218.021 311.52C225.771 311.95 229.811 308.68 231.071 302.62C223.601 302.47 219.641 305.82 218.021 311.52ZM329.531 311.23C327.601 306.14 323.651 301.49 316.181 302.93C317.941 308.05 322.801 313.04 329.531 311.23ZM301.061 315.08C301.241 308.77 298.451 305.43 293.651 304.11C293.261 310.63 296.131 313.89 301.061 315.08ZM246.491 315.38C251.341 314 254.461 310.9 254.201 304.41C249.351 305.79 246.231 308.9 246.491 315.38ZM56.6809 317.46C69.1509 325.25 90.0409 320.83 95.2309 309.45C82.8009 301.68 61.9409 306.19 56.6809 317.46ZM452.321 309.74C457.851 320.24 478.991 326.36 490.871 317.45C484.811 307.18 464.571 300.95 452.321 309.74ZM292.461 319.53C293.801 313.48 291.411 308.77 287.121 307.37C285.861 313.34 288.191 318.12 292.461 319.53ZM255.091 319.83C259.291 318.62 262.691 312.79 260.131 307.67C256.591 309.75 253.671 313.75 255.091 319.83ZM169.081 317.75C179.331 320.15 187.551 316.02 190.141 308.85C180.381 305.85 171.601 310.63 169.081 317.75ZM357.411 308.85C360.001 315.64 369.171 321.21 378.471 317.45C375.281 311.09 367.351 305.59 357.411 308.85ZM283.261 322.2C285.521 317.87 284.351 310.91 280.301 309.45C277.841 313.62 279.321 320.86 283.261 322.2ZM266.951 309.74C263.891 311.73 261.731 319.08 264.871 322.79C268.051 320.85 270.601 313.2 266.951 309.74ZM273.481 323.09C276.631 320.02 276.941 312.38 273.181 309.74C270.351 312.64 269.781 320.69 273.481 323.09ZM320.931 321.61C320.321 314.8 316.581 311.14 309.961 310.34C310.561 317.16 314.191 320.95 320.931 321.61ZM226.621 321.61C233.271 320.94 237.201 317.56 237.591 310.64C231.161 311.53 227.091 314.78 226.621 321.61ZM200.221 323.39C208.691 324.34 214.331 319.91 215.941 313.01C207.641 312.28 201.851 316.48 200.221 323.39ZM347.331 323.68C345.291 316.82 340.981 312.23 331.611 312.71C333.631 319.59 338.001 324.12 347.331 323.68ZM5.96094 327.24C21.0109 337.68 46.8209 330.81 52.2309 317.75C36.3709 308.31 12.8409 314.67 5.96094 327.24ZM495.321 318.05C501.781 330.71 527.031 338.43 541.591 327.54C534.071 315.28 509.801 307.72 495.321 318.05ZM310.851 329.91C311.261 322.09 307.641 318.29 301.951 316.56C301.491 324.44 305.121 328.22 310.851 329.91ZM237.001 330.21C242.231 328.54 247.111 323.62 245.301 316.86C240.331 318.91 235.651 322.83 237.001 330.21ZM141.801 329.02C153.771 332.13 163.981 327.01 167.011 318.34C155.511 314.8 144.931 320.45 141.801 329.02ZM380.541 318.34C383.571 326.65 394.701 333.18 405.751 328.72C401.891 321.06 392.251 314.38 380.541 318.34ZM299.281 335.84C301.111 329 297.961 323.25 293.051 321.31C291.081 328.04 294.121 334.33 299.281 335.84ZM248.271 336.14C253.421 334.66 257.091 327.98 254.501 321.6C250.011 323.97 246.381 329.22 248.271 336.14ZM211.201 337.03C219.081 336.11 224.701 331.35 224.551 323.39C216.891 324.72 212.021 328.85 211.201 337.03ZM336.061 336.73C335.331 328.57 330.911 324.08 322.711 323.38C323.941 331.04 327.751 336.13 336.061 336.73ZM286.821 339.4C289.681 333.96 287.761 326.26 283.261 323.98C280.101 329.03 282.331 338.59 286.821 339.4ZM179.761 337.32C190.791 337.77 196.291 332.7 198.741 324.57C188.451 323.69 181.611 328.77 179.761 337.32ZM348.811 324.87C351.831 332.33 356.541 338.1 367.791 337.33C365.661 329.37 359.111 322.7 348.811 324.87ZM263.991 324.57C260.301 327.2 257.851 334.87 261.021 339.99C265.551 338.34 268.151 328.69 263.991 324.57ZM273.481 340.88C277.111 337.6 277.681 327.64 273.181 324.87C269.621 328.47 269.161 337.75 273.481 340.88ZM408.421 329.91C412.211 339.77 425.391 347.68 438.671 342.37C434.111 333.11 422.381 325.08 408.421 329.91ZM108.881 342.37C122.531 346.9 135.561 340.17 139.131 329.91C125.061 325.76 112.731 332.47 108.881 342.37ZM312.031 331.99C311.761 341.06 315.781 345.83 322.711 347.71C323.151 338.47 319.171 333.65 312.031 331.99ZM224.841 348C231.421 345.78 236.201 341.77 235.521 332.28C228.641 334.04 223.901 339.39 224.841 348ZM353.551 354.23C352.621 344.39 347.161 339.07 337.531 337.92C338.681 347.55 343.711 353.3 353.551 354.23ZM155.141 353.64C168.541 354.28 175.221 348.22 177.981 338.22C164.751 337.75 157.881 343.63 155.141 353.64ZM193.701 354.23C203.011 353.65 210.501 347.17 209.421 338.21C200.381 339.75 194.821 344.76 193.701 354.23ZM307.291 355.71C309.921 347.83 306.021 340.14 299.881 338.21C297.831 346.51 301.361 353.5 307.291 355.71ZM392.411 353.64C389.161 344.13 383.381 337.16 369.571 338.22C372.531 347.86 379.551 354.88 392.411 353.64ZM247.381 338.51C242.191 341.49 237.701 347.45 239.971 356.01C246.151 354.2 250.661 346.03 247.381 338.51ZM69.4309 358.97C86.3309 363.75 101.381 356.12 105.611 343.55C88.7909 338.92 73.9109 346.59 69.4309 358.97ZM290.981 360.46C294.431 354.23 292.371 344.46 286.831 342.07C283.051 348.04 285.681 359.26 290.981 360.46ZM441.931 343.55C446.131 355 460.921 364.55 478.111 359.27C473.201 347.34 459.191 338.4 441.931 343.55ZM260.431 342.66C255.771 345.42 253.081 355.15 256.871 361.05C262.071 358.92 265.301 347.7 260.431 342.66ZM273.181 343.26C268.891 347.35 268.301 358.67 273.481 362.24C277.871 358.48 278.511 346.5 273.181 343.26ZM336.351 368.17C337.051 356.89 331.881 351.48 323.601 349.19C323.171 360.19 328.091 365.86 336.351 368.17ZM210.901 368.17C218.571 366.44 224.961 360.87 223.951 349.48H223.361C215.941 352.44 210.401 357.28 210.901 368.17ZM125.491 373.21C140.841 374.61 149.701 366.97 152.781 355.12C137.741 354.04 128.661 361.43 125.491 373.21ZM394.781 355.42C398.501 366.68 406.711 374.85 422.071 373.51C418.641 362.2 410.041 352.93 394.781 355.42ZM374.311 375.29C373.271 363.37 366.971 356.74 355.031 355.72C356.601 367.1 362.801 373.85 374.311 375.29ZM172.941 375.29C184.401 373.8 191.281 367.73 192.521 356.01C180.741 357.18 174.141 363.53 172.941 375.29ZM316.781 378.55C319.711 368.74 315.181 359.91 307.881 357.49C305.231 367.22 309.671 375.81 316.781 378.55ZM230.771 378.85C237.771 376.18 243.271 366.79 239.371 357.79C233.051 361.01 227.591 369 230.771 378.85ZM482.271 360.46C487.891 374.18 506.701 386.26 525.871 378.55C519.771 365.01 501.341 353.32 482.271 360.46ZM21.3909 378.55C41.4109 384.76 59.8309 375.3 65.2809 360.46C44.3609 353.97 27.3509 364.98 21.3909 378.55ZM295.721 384.78C299.851 377.47 297.531 365.27 290.971 362.54C286.411 369.57 288.971 382.14 295.721 384.78ZM251.831 385.07C258.061 383.18 262.091 369.57 256.581 362.83C250.891 366.38 247.381 377.52 251.831 385.07ZM273.481 386.85C278.921 382.09 279.501 368.25 273.181 364.01C268.041 368.69 267.391 382.69 273.481 386.85ZM352.671 392.79C353.921 380.06 347.501 372.46 337.541 369.95C336.851 383.3 343.051 389.75 352.671 392.79ZM194.591 392.79C204.471 390.2 211.351 383.09 210.011 370.25H209.421C200.521 373.81 193.721 379.46 194.591 392.79ZM89.9009 396.94C108.611 398.65 118.731 389.2 122.821 375.29C104.411 373.89 93.8109 382.85 89.9009 396.94ZM424.731 375.58C429.401 388.62 439.321 399.53 457.651 396.93C453.141 383.74 443.421 372.61 424.731 375.58ZM170.861 377.36C170.841 377.18 170.821 377.01 170.561 377.06C157.541 379.17 148.341 386.67 148.021 400.49C161.341 398.68 170.291 390.93 170.861 377.36ZM399.521 400.5C398.201 386.3 390.681 378.3 376.391 377.07C378.311 390.67 385.651 398.85 399.521 400.5ZM317.371 380.63C314.231 392.59 319.711 402.51 328.051 405.84C331.601 394.33 326.261 383.43 317.371 380.63ZM229.881 380.92C222.041 384.32 215.251 395.09 219.801 406.13C227.441 402.49 234.531 392.11 229.881 380.92ZM301.361 413.84C306.751 404.96 303.731 390.66 295.731 386.85C290.451 395.64 293.621 410.27 301.361 413.84ZM251.531 387.45C244.641 391.6 240.661 405.44 246.191 414.14C253.721 410.8 258.201 395.26 251.531 387.45ZM272.891 416.21C280.451 411.46 280.551 393.94 273.191 388.92C266.881 394.94 266.351 410.06 272.891 416.21ZM354.441 395.16C353.151 410.39 360.941 419.11 372.531 422.45C373.741 407.27 366.471 398.08 354.441 395.16ZM174.721 422.44C185.971 419.59 195.741 410.03 192.811 395.45H192.221C181.701 399.75 173.681 406.57 174.721 422.44ZM461.211 399.31C466.431 415.85 477.811 427.77 500.361 426C495.391 409.18 483.901 397.43 461.211 399.31ZM46.8909 425.71C69.2609 427.41 81.6409 416.58 86.3309 399.61C64.0009 397.94 51.6809 408.85 46.8909 425.71ZM402.191 402.57C404.071 419.27 413.231 428.71 429.771 430.75C428.171 413.76 419.041 404.31 402.191 402.57ZM117.481 430.45C134.151 428.63 143.921 419.91 145.361 402.87C128.871 404.87 119.211 413.69 117.481 430.45ZM328.941 408.5C325.021 422.67 331.671 434.75 341.691 438.75C345.901 425.02 339.561 412 328.941 408.5ZM218.311 408.8C208.891 412.94 200.751 425.77 206.151 439.05C215.391 434.67 223.781 422.24 218.311 408.8ZM301.651 416.51C294.981 426.7 299.371 445.48 308.471 448.54C314.771 437.98 311.031 420.81 301.651 416.51ZM245.901 417.11C237.181 421.75 232.101 439.45 239.671 449.14C248.121 444.08 253.471 427.05 245.901 417.11ZM273.181 419.18C265.471 426.03 264.821 445.79 273.481 452.1C281.211 445 282.251 425.61 273.181 419.18ZM396.261 458.03C397.841 439.34 388.641 428.88 374.311 425.11C373.481 444.23 382.251 453.75 396.261 458.03ZM150.991 458.03C165.001 453.91 174.881 444.21 173.231 425.41H172.641C159.421 430.11 149.361 439.46 150.991 458.03ZM466.551 467.23C464.021 447.32 453.511 435.38 433.041 433.42C435.541 453.37 446.271 465.08 466.551 467.23ZM81.0009 466.93C89.6109 466.27 97.2109 463.37 102.651 458.92C109.391 453.41 114.341 444.37 113.921 433.71C94.7609 436.59 82.8509 446.73 81.0009 466.93ZM358.001 478.2C363.371 461.6 355.111 446.3 342.881 441.72C337.971 458.68 345.991 473.45 358.001 478.2ZM189.251 478.5C201.191 473.58 210.101 459.6 204.971 442.32H204.381C192.961 447.53 184.131 461.49 189.251 478.5ZM308.771 452.1C300.741 464.36 305.631 485.24 316.481 490.65C324.581 478.48 320.131 457.4 308.771 452.1ZM238.781 452.4C238.781 452.79 238.261 452.67 238.191 452.99C228.651 458.9 222.581 478.5 230.781 490.95C242.251 485.07 247.561 463.78 238.791 452.39L238.781 452.4ZM273.181 455.36C263.861 463.81 263.031 486.96 273.481 494.81C283.551 484.21 283.541 463.91 273.181 455.36ZM398.631 461.59C397.581 484.59 408.291 495.82 425.031 501.04C426.591 478.69 416.071 465.93 398.631 461.59ZM122.221 501.04C137.171 496.51 150.641 484.99 149.211 465.45C149.121 464.27 149.441 462.06 148.021 461.89C132.141 467.49 120.391 478.71 122.221 501.04ZM360.081 482.35C360.061 482.17 360.041 482 359.781 482.05C353.461 501.98 363.301 520.36 377.871 525.94C384.181 505.27 373.911 487.98 360.081 482.34V482.35ZM169.381 526.25C183.501 520.61 195.161 501.76 188.061 482.65H187.471C174.131 489.55 162.911 505.6 169.381 526.25ZM331.611 518.24C330.691 507.65 323.811 499.93 317.671 495.11C317.651 494.93 317.631 494.76 317.371 494.81C313.981 501.11 311.741 508.68 312.331 516.76C313.131 527.83 319.671 536.13 326.571 541.38C329.921 534.89 332.421 527.51 331.611 518.25V518.24ZM230.771 495.7C230.471 495.7 230.421 495.46 230.181 495.41C217.741 505.15 210.501 523.46 220.691 541.68C233.551 535.11 240.721 510.13 230.771 495.71V495.7ZM282.671 525.36C283.541 513.96 279.011 505.54 273.771 499.26H272.881C268.651 505.26 264.441 512.6 263.981 521.8C263.491 531.55 267.711 540.61 273.471 546.42C277.271 541.07 282.001 534.12 282.661 525.36H282.671Z" stroke="#302B29" stroke-width="0.34" stroke-miterlimit="10"/>
<path fill-rule="evenodd" clip-rule="evenodd" d="M273.481 1H273.781C278.521 6.66 282.881 14.51 282.681 24.73C282.481 34.65 278.411 43.07 273.191 48.16C267.971 42.21 263.871 34.2 264.001 24.73C264.131 15.27 268.961 6.38 273.491 1H273.481Z" stroke="#302B29" stroke-width="0.34" stroke-miterlimit="10"/>
<path fill-rule="evenodd" clip-rule="evenodd" d="M317.972 52.0101C315.272 46.1401 312.942 40.8801 312.932 33.9201C312.902 21.7401 320.282 11.9201 327.462 5.75007C327.712 5.70007 327.742 5.87007 327.762 6.05007C338.262 20.2601 330.752 45.5801 317.972 52.0201V52.0101Z" stroke="#302B29" stroke-width="0.34" stroke-miterlimit="10"/>
<path fill-rule="evenodd" clip-rule="evenodd" d="M229.59 52.9097C216.6 45.6997 209.83 22.2697 220.4 6.34968C220.65 6.29968 220.681 6.46968 220.701 6.64968C233.261 13.6697 239.231 37.6097 229.601 52.9197L229.59 52.9097Z" stroke="#302B29" stroke-width="0.34" stroke-miterlimit="10"/>
<path fill-rule="evenodd" clip-rule="evenodd" d="M360.671 65.0697C353.451 44.2097 364.991 28.5497 378.761 21.4697C379.001 21.5297 379.051 21.7697 379.351 21.7697C385.321 42.2997 374.551 58.7597 360.661 65.0697H360.671Z" stroke="#302B29" stroke-width="0.34" stroke-miterlimit="10"/>
<path fill-rule="evenodd" clip-rule="evenodd" d="M187.171 65.6596C172.971 60.4096 162.531 41.7996 169.081 22.0596C182.711 27.2796 193.881 45.5996 187.171 65.6596Z" stroke="#302B29" stroke-width="0.34" stroke-miterlimit="10"/>
<path fill-rule="evenodd" clip-rule="evenodd" d="M425.921 46.6797C428.691 68.8297 416.181 80.8297 399.821 85.8297C397.471 62.9197 409.921 52.2397 425.921 46.6797Z" stroke="#302B29" stroke-width="0.34" stroke-miterlimit="10"/>
<path fill-rule="evenodd" clip-rule="evenodd" d="M121.931 47.2695C139.071 51.8995 149.641 64.5995 148.331 86.7095C131.111 82.1195 120.501 69.5295 121.931 47.2695Z" stroke="#302B29" stroke-width="0.34" stroke-miterlimit="10"/>
<path fill-rule="evenodd" clip-rule="evenodd" d="M273.771 92.0503C262.811 84.4903 263.891 60.8604 273.471 52.6104C283.351 60.7004 283.341 82.1203 273.771 92.0503Z" stroke="#302B29" stroke-width="0.34" stroke-miterlimit="10"/>
<path fill-rule="evenodd" clip-rule="evenodd" d="M309.661 95.02C300.591 81.14 307.481 63.43 317.371 56.46C326.751 67.7 319.861 89.61 309.661 95.02Z" stroke="#302B29" stroke-width="0.34" stroke-miterlimit="10"/>
<path fill-rule="evenodd" clip-rule="evenodd" d="M238.191 95.6098C226.791 90.5298 222.311 69.4598 230.181 57.0498C240.811 62.2798 246.331 82.6998 238.191 95.6098Z" stroke="#302B29" stroke-width="0.34" stroke-miterlimit="10"/>
<path fill-rule="evenodd" clip-rule="evenodd" d="M358.89 69.2197H359.48C364.43 86.3997 355.62 100.35 343.76 105.4C338.31 88.6697 347.32 74.4697 358.89 69.2197Z" stroke="#302B29" stroke-width="0.34" stroke-miterlimit="10"/>
<path fill-rule="evenodd" clip-rule="evenodd" d="M204.08 105.99C191.55 101.64 183.94 86.7296 188.66 69.8096C201 74.2596 208.83 89.1596 204.08 105.99Z" stroke="#302B29" stroke-width="0.34" stroke-miterlimit="10"/>
<path fill-rule="evenodd" clip-rule="evenodd" d="M467.742 80.7803C465.432 100.82 453.992 111.71 433.932 114C436.012 93.7403 447.602 82.9803 467.742 80.7803Z" stroke="#302B29" stroke-width="0.34" stroke-miterlimit="10"/>
<path fill-rule="evenodd" clip-rule="evenodd" d="M80.7012 81.0801C100.831 83.3901 111.661 95.0001 114.211 114.89C93.6712 112.99 83.1212 101.1 80.7012 81.0801Z" stroke="#302B29" stroke-width="0.34" stroke-miterlimit="10"/>
<path fill-rule="evenodd" clip-rule="evenodd" d="M397.151 89.6797C399.931 107.84 388.821 118.13 375.501 122.3C373.511 103.4 383.721 94.1397 397.151 89.6797Z" stroke="#302B29" stroke-width="0.34" stroke-miterlimit="10"/>
<path fill-rule="evenodd" clip-rule="evenodd" d="M172.64 122.9C158.1 119.43 149.38 108.62 150.69 90.2803C164.86 94.2903 173.44 103.91 172.64 122.9Z" stroke="#302B29" stroke-width="0.34" stroke-miterlimit="10"/>
<path fill-rule="evenodd" clip-rule="evenodd" d="M273.481 95.3203C281.941 102.1 281.331 120.93 273.781 128.24C264.551 122.27 265.551 101.94 273.481 95.3203Z" stroke="#302B29" stroke-width="0.34" stroke-miterlimit="10"/>
<path fill-rule="evenodd" clip-rule="evenodd" d="M302.842 130.61C295.212 120.57 300.552 103.35 309.072 98.2803C316.562 108.34 311.382 125.48 302.842 130.61Z" stroke="#302B29" stroke-width="0.34" stroke-miterlimit="10"/>
<path fill-rule="evenodd" clip-rule="evenodd" d="M245.302 131.2C235.772 127.26 231.862 108.83 238.772 98.8701C247.672 103.68 251.652 120.52 245.302 131.2Z" stroke="#302B29" stroke-width="0.34" stroke-miterlimit="10"/>
<path fill-rule="evenodd" clip-rule="evenodd" d="M330.422 138.91C324.872 125.56 333.082 112.66 342.582 108.66C347.862 121.98 339.642 134.47 330.422 138.91Z" stroke="#302B29" stroke-width="0.34" stroke-miterlimit="10"/>
<path fill-rule="evenodd" clip-rule="evenodd" d="M218.021 139.51C207.531 136 200.831 123.02 205.271 109.26C215.391 113.25 221.791 125.35 218.021 139.51Z" stroke="#302B29" stroke-width="0.34" stroke-miterlimit="10"/>
<path fill-rule="evenodd" clip-rule="evenodd" d="M431.26 117.26C429.31 133.99 419.47 142.84 403.08 145.14C404.56 127.94 414.43 119.12 431.26 117.26Z" stroke="#302B29" stroke-width="0.34" stroke-miterlimit="10"/>
<path fill-rule="evenodd" clip-rule="evenodd" d="M145.062 145.74C127.932 144.29 119.392 134.23 117.182 117.86C134.292 119.34 142.922 129.29 145.062 145.74Z" stroke="#302B29" stroke-width="0.34" stroke-miterlimit="10"/>
<path fill-rule="evenodd" clip-rule="evenodd" d="M501.552 122.01C496.942 139.17 484.252 149.77 462.102 148.41C466.962 131.32 478.432 120.85 501.552 122.01Z" stroke="#302B29" stroke-width="0.34" stroke-miterlimit="10"/>
<path fill-rule="evenodd" clip-rule="evenodd" d="M86.0414 149C63.2314 151.45 51.5614 138.6 47.1914 122.6C69.5814 120.77 80.9114 132.57 86.0414 149Z" stroke="#302B29" stroke-width="0.34" stroke-miterlimit="10"/>
<path fill-rule="evenodd" clip-rule="evenodd" d="M373.131 125.27C375.511 132.21 372.461 138.84 369.271 143.06C365.971 147.44 361.101 151.07 355.331 152.25C353.721 136.88 362.141 129.02 373.121 125.26L373.131 125.27Z" stroke="#302B29" stroke-width="0.34" stroke-miterlimit="10"/>
<path fill-rule="evenodd" clip-rule="evenodd" d="M174.42 125.86C186.38 129.12 193.39 137.33 192.81 153.15C180.88 149.86 173.56 141.95 174.42 125.86Z" stroke="#302B29" stroke-width="0.34" stroke-miterlimit="10"/>
<path fill-rule="evenodd" clip-rule="evenodd" d="M273.482 158.49C266.262 152.94 266.732 137.25 273.182 131.2C280.892 136.07 279.892 152.98 273.482 158.49Z" stroke="#302B29" stroke-width="0.34" stroke-miterlimit="10"/>
<path fill-rule="evenodd" clip-rule="evenodd" d="M296.611 159.97C290.691 151.24 295.111 137.79 301.951 133.28C308.381 141.1 304.291 156.63 296.611 159.97Z" stroke="#302B29" stroke-width="0.34" stroke-miterlimit="10"/>
<path fill-rule="evenodd" clip-rule="evenodd" d="M245.601 133.87C253.191 137.67 256.401 151.69 251.231 160.56C243.461 158.16 239.771 142.25 245.601 133.87Z" stroke="#302B29" stroke-width="0.34" stroke-miterlimit="10"/>
<path fill-rule="evenodd" clip-rule="evenodd" d="M318.85 166.79C314.18 155.7 321.01 144.85 328.93 141.58C333.37 152.68 326.5 163.09 318.85 166.79Z" stroke="#302B29" stroke-width="0.34" stroke-miterlimit="10"/>
<path fill-rule="evenodd" clip-rule="evenodd" d="M218.911 142.18C227.331 145.51 232.621 155.41 229.591 167.39C220.781 164.59 215.241 153.69 218.911 142.18Z" stroke="#302B29" stroke-width="0.34" stroke-miterlimit="10"/>
<path fill-rule="evenodd" clip-rule="evenodd" d="M400.71 147.51C399.5 161.72 391.06 168.7 377.58 170.64C378.61 156.24 386.95 149.16 400.71 147.51Z" stroke="#302B29" stroke-width="0.34" stroke-miterlimit="10"/>
<path fill-rule="evenodd" clip-rule="evenodd" d="M170.571 171.24C156.221 170.17 149.331 161.64 147.441 148.11C161.631 149.34 168.951 157.45 170.571 171.24Z" stroke="#302B29" stroke-width="0.34" stroke-miterlimit="10"/>
<path fill-rule="evenodd" clip-rule="evenodd" d="M458.541 150.78C454.501 165.03 444.791 173.61 425.621 172.73C429.551 158.55 439.991 149.37 458.541 150.78Z" stroke="#302B29" stroke-width="0.34" stroke-miterlimit="10"/>
<path fill-rule="evenodd" clip-rule="evenodd" d="M122.52 173.32C103.57 175.26 94.1704 165.09 89.9004 151.37C108.7 149.58 118.15 159.7 122.52 173.32Z" stroke="#302B29" stroke-width="0.34" stroke-miterlimit="10"/>
<path fill-rule="evenodd" clip-rule="evenodd" d="M353.261 154.93C354.911 158 354.081 162.35 352.971 165.31C350.741 171.2 344.991 175.69 338.441 177.47C337.511 164.08 344.121 158.24 353.271 154.93H353.261Z" stroke="#302B29" stroke-width="0.34" stroke-miterlimit="10"/>
<path fill-rule="evenodd" clip-rule="evenodd" d="M209.421 178.36C199.671 175.62 193.141 168.19 194.291 155.52C204.291 158 210.431 165.85 209.421 178.36Z" stroke="#302B29" stroke-width="0.34" stroke-miterlimit="10"/>
<path fill-rule="evenodd" clip-rule="evenodd" d="M273.182 160.56C279.572 164.66 278.902 178.76 273.482 183.4C267.452 179.17 268.022 165.3 273.182 160.56Z" stroke="#302B29" stroke-width="0.34" stroke-miterlimit="10"/>
<path fill-rule="evenodd" clip-rule="evenodd" d="M292.161 184.59C286.721 178.08 290.461 165.76 296.021 162.35C301.941 168.52 297.861 181.3 292.161 184.59Z" stroke="#302B29" stroke-width="0.34" stroke-miterlimit="10"/>
<path fill-rule="evenodd" clip-rule="evenodd" d="M251.231 162.94C257.861 166 260.301 177.86 255.981 185.18C249.321 182.3 246.721 170.16 251.231 162.94Z" stroke="#302B29" stroke-width="0.34" stroke-miterlimit="10"/>
<path fill-rule="evenodd" clip-rule="evenodd" d="M526.76 169.46C521.04 183.73 503.38 193.45 483.16 187.55C488.36 173.16 506.67 162.69 526.76 169.46Z" stroke="#302B29" stroke-width="0.34" stroke-miterlimit="10"/>
<path fill-rule="evenodd" clip-rule="evenodd" d="M65.2816 188.15C45.2916 195.47 28.0616 183.27 21.6816 170.06C39.8916 162.48 59.9616 174.15 65.2816 188.15Z" stroke="#302B29" stroke-width="0.34" stroke-miterlimit="10"/>
<path fill-rule="evenodd" clip-rule="evenodd" d="M308.771 189.63C305.811 179.85 311.011 172.11 317.371 168.87C321.581 177.54 315.771 187.41 308.771 189.63Z" stroke="#302B29" stroke-width="0.34" stroke-miterlimit="10"/>
<path fill-rule="evenodd" clip-rule="evenodd" d="M230.181 169.46C237.281 172.12 241.421 180.33 239.081 190.52C231.881 188.08 227.131 179.28 230.181 169.46Z" stroke="#302B29" stroke-width="0.34" stroke-miterlimit="10"/>
<path fill-rule="evenodd" clip-rule="evenodd" d="M375.501 172.72C374.481 184.55 367.381 190.31 356.221 192C357.051 179.98 363.951 174.02 375.501 172.72Z" stroke="#302B29" stroke-width="0.34" stroke-miterlimit="10"/>
<path fill-rule="evenodd" clip-rule="evenodd" d="M172.641 173.32C184.481 174.33 190.571 181.09 191.921 192.6C179.981 191.69 174.251 184.57 172.641 173.32Z" stroke="#302B29" stroke-width="0.34" stroke-miterlimit="10"/>
<path fill-rule="evenodd" clip-rule="evenodd" d="M422.95 174.5C419.64 186.41 411.46 193.46 395.66 192.89C398.81 180.82 406.88 173.66 422.95 174.5Z" stroke="#302B29" stroke-width="0.34" stroke-miterlimit="10"/>
<path fill-rule="evenodd" clip-rule="evenodd" d="M152.771 193.48C137.261 195.22 128.341 186.29 125.781 175.09C141.181 173.65 149.011 182.3 152.771 193.48Z" stroke="#302B29" stroke-width="0.34" stroke-miterlimit="10"/>
<path fill-rule="evenodd" clip-rule="evenodd" d="M324.791 198.23C323.341 187.47 329.581 181.87 337.251 179.25C338.751 190.05 332.531 195.69 324.791 198.23Z" stroke="#302B29" stroke-width="0.34" stroke-miterlimit="10"/>
<path fill-rule="evenodd" clip-rule="evenodd" d="M210.602 179.84C218.652 182.37 223.862 187.73 223.352 198.82C214.812 196.79 210.052 190.96 210.602 179.84Z" stroke="#302B29" stroke-width="0.34" stroke-miterlimit="10"/>
<path fill-rule="evenodd" clip-rule="evenodd" d="M273.182 185.18C278.482 188.35 277.952 200.5 273.482 204.16C268.352 200.5 268.882 189.34 273.182 185.18Z" stroke="#302B29" stroke-width="0.34" stroke-miterlimit="10"/>
<path fill-rule="evenodd" clip-rule="evenodd" d="M291.57 186.37C295.86 192.06 292.86 202.32 288.01 205.05C283.51 199.34 286.55 189.33 291.57 186.37Z" stroke="#302B29" stroke-width="0.34" stroke-miterlimit="10"/>
<path fill-rule="evenodd" clip-rule="evenodd" d="M255.981 186.96C261.381 189.39 263.681 199.18 260.131 205.35C254.751 204.16 252.251 192.99 255.981 186.96Z" stroke="#302B29" stroke-width="0.34" stroke-miterlimit="10"/>
<path fill-rule="evenodd" clip-rule="evenodd" d="M479.011 189.04C474.471 201.17 459.451 209.17 442.531 204.17C447.191 192.12 461.981 183.99 479.011 189.04Z" stroke="#302B29" stroke-width="0.34" stroke-miterlimit="10"/>
<path fill-rule="evenodd" clip-rule="evenodd" d="M105.912 204.46C89.6517 211.41 74.0116 200.73 69.4316 189.34C86.6616 184.23 100.292 193.27 105.912 204.46Z" stroke="#302B29" stroke-width="0.34" stroke-miterlimit="10"/>
<path fill-rule="evenodd" clip-rule="evenodd" d="M308.181 191.41C311.211 198.88 306.991 207.01 300.771 208.91C298.481 200.36 302.811 194.18 308.181 191.41Z" stroke="#302B29" stroke-width="0.34" stroke-miterlimit="10"/>
<path fill-rule="evenodd" clip-rule="evenodd" d="M239.372 192.3C245.592 194.25 248.992 201.3 247.082 209.5C241.362 208.26 237.112 200.61 239.372 192.3Z" stroke="#302B29" stroke-width="0.34" stroke-miterlimit="10"/>
<path fill-rule="evenodd" clip-rule="evenodd" d="M354.742 193.48C353.702 203.21 348.122 208.41 338.432 209.5C339.472 199.77 344.932 194.45 354.742 193.48Z" stroke="#302B29" stroke-width="0.34" stroke-miterlimit="10"/>
<path fill-rule="evenodd" clip-rule="evenodd" d="M193.701 194.08C203.421 195.13 208.511 200.82 209.711 210.39C200.031 209.3 194.551 204 193.701 194.08Z" stroke="#302B29" stroke-width="0.34" stroke-miterlimit="10"/>
<path fill-rule="evenodd" clip-rule="evenodd" d="M393.301 194.37C390.781 204.35 382.891 210.38 370.461 209.5C373.071 199.63 380.701 193.27 393.301 194.37Z" stroke="#302B29" stroke-width="0.34" stroke-miterlimit="10"/>
<path fill-rule="evenodd" clip-rule="evenodd" d="M177.681 210.39C164.251 211.27 158.361 204.6 155.141 195.26C167.371 193.23 175.181 200.71 177.681 210.39Z" stroke="#302B29" stroke-width="0.34" stroke-miterlimit="10"/>
<path fill-rule="evenodd" clip-rule="evenodd" d="M313.221 215.43C311.931 206.72 317.211 202.02 323.301 199.71C323.631 199.66 323.841 199.77 323.891 200.01C325.721 208.21 318.861 213.79 313.211 215.43H313.221Z" stroke="#302B29" stroke-width="0.34" stroke-miterlimit="10"/>
<path fill-rule="evenodd" clip-rule="evenodd" d="M224.251 200.3C231.011 202.44 235.431 206.92 234.931 216.32C227.961 214.39 223.781 209.68 224.251 200.3Z" stroke="#302B29" stroke-width="0.34" stroke-miterlimit="10"/>
<path fill-rule="evenodd" clip-rule="evenodd" d="M439.562 205.35C435.652 215.48 423.302 222.14 409.012 218.1C412.912 207.93 425.152 201.23 439.562 205.35Z" stroke="#302B29" stroke-width="0.34" stroke-miterlimit="10"/>
<path fill-rule="evenodd" clip-rule="evenodd" d="M139.42 218.4C126.05 223.77 112.91 215.88 109.17 205.94C123.02 201.21 134.81 209.19 139.42 218.4Z" stroke="#302B29" stroke-width="0.34" stroke-miterlimit="10"/>
<path fill-rule="evenodd" clip-rule="evenodd" d="M273.48 222.55C269.31 219.49 269.47 210.27 273.18 206.83C277.87 209.3 277 219.5 273.48 222.55Z" stroke="#302B29" stroke-width="0.34" stroke-miterlimit="10"/>
<path fill-rule="evenodd" clip-rule="evenodd" d="M284.162 222.85C280.902 217.87 283.392 209.87 287.122 207.43C291.162 211.67 288.672 221.04 284.162 222.85Z" stroke="#302B29" stroke-width="0.34" stroke-miterlimit="10"/>
<path fill-rule="evenodd" clip-rule="evenodd" d="M260.131 208.02C264.801 210.03 266.531 218.19 263.691 223.44C258.621 221.84 257.391 213.14 260.131 208.02Z" stroke="#302B29" stroke-width="0.34" stroke-miterlimit="10"/>
<path fill-rule="evenodd" clip-rule="evenodd" d="M368.681 210.68C366.521 219.1 360.681 223.84 349.701 223.43C352.101 215.25 357.421 209.99 368.681 210.68Z" stroke="#302B29" stroke-width="0.34" stroke-miterlimit="10"/>
<path fill-rule="evenodd" clip-rule="evenodd" d="M337.242 210.98C336.432 219.17 331.562 223.3 323.602 224.33C324.622 216.35 328.922 211.66 337.242 210.98Z" stroke="#302B29" stroke-width="0.34" stroke-miterlimit="10"/>
<path fill-rule="evenodd" clip-rule="evenodd" d="M179.461 211.58C190.311 210.02 196.041 216.15 198.441 224.04C187.751 225.43 182.261 219.07 179.461 211.58Z" stroke="#302B29" stroke-width="0.34" stroke-miterlimit="10"/>
<path fill-rule="evenodd" clip-rule="evenodd" d="M299.872 211.28C302.632 217.57 298.782 224.23 293.942 225.81C291.722 218.92 295.552 213.53 299.872 211.28Z" stroke="#302B29" stroke-width="0.34" stroke-miterlimit="10"/>
<path fill-rule="evenodd" clip-rule="evenodd" d="M210.9 211.58C219.27 212.1 223.09 217.19 224.54 224.63C216.42 225.04 211.94 219.24 210.9 211.58Z" stroke="#302B29" stroke-width="0.34" stroke-miterlimit="10"/>
<path fill-rule="evenodd" clip-rule="evenodd" d="M247.681 211.87C252.581 213.79 255.941 219.75 253.911 226.7C248.951 224.75 245.751 218.85 247.681 211.87Z" stroke="#302B29" stroke-width="0.34" stroke-miterlimit="10"/>
<path fill-rule="evenodd" clip-rule="evenodd" d="M542.18 220.47C536.19 233.29 511.33 239.69 495.91 229.96C502.24 216.93 526.64 210.56 542.18 220.47Z" stroke="#302B29" stroke-width="0.34" stroke-miterlimit="10"/>
<path fill-rule="evenodd" clip-rule="evenodd" d="M52.8217 230.26C46.9617 233.9 39.9517 236.26 31.1717 235.6C19.8717 234.74 11.7017 227.26 6.26172 221.07C20.9317 210.4 45.2017 218.1 52.8217 230.26Z" stroke="#302B29" stroke-width="0.34" stroke-miterlimit="10"/>
<path fill-rule="evenodd" clip-rule="evenodd" d="M311.442 217.51C313.212 224.27 308.342 229.4 302.842 230.86C302.172 222.88 306.392 219.78 311.442 217.51Z" stroke="#302B29" stroke-width="0.34" stroke-miterlimit="10"/>
<path fill-rule="evenodd" clip-rule="evenodd" d="M406.641 218.99C403.301 227.39 393.271 232.91 381.131 229.67C384.311 221.13 394.461 215.67 406.641 218.99Z" stroke="#302B29" stroke-width="0.34" stroke-miterlimit="10"/>
<path fill-rule="evenodd" clip-rule="evenodd" d="M167.302 229.96C156.182 234.48 145.122 227.9 142.092 219.58C153.742 215.68 163.442 222.3 167.302 229.96Z" stroke="#302B29" stroke-width="0.34" stroke-miterlimit="10"/>
<path fill-rule="evenodd" clip-rule="evenodd" d="M236.111 218.4C242.071 219.76 245.421 223.72 245.011 231.45C239.191 229.95 235.931 225.89 236.111 218.4Z" stroke="#302B29" stroke-width="0.34" stroke-miterlimit="10"/>
<path fill-rule="evenodd" clip-rule="evenodd" d="M273.181 224.33C277.091 226.81 276.551 234.68 273.481 237.68C269.951 235.08 270.281 227.38 273.181 224.33Z" stroke="#302B29" stroke-width="0.34" stroke-miterlimit="10"/>
<path fill-rule="evenodd" clip-rule="evenodd" d="M348.22 224.33C346.44 231.35 341.6 235.31 332.5 235.01C334.33 228.04 338.92 223.84 348.22 224.33Z" stroke="#302B29" stroke-width="0.34" stroke-miterlimit="10"/>
<path fill-rule="evenodd" clip-rule="evenodd" d="M199.932 225.22C208.912 223.75 213.572 229.18 215.952 235.3C207.582 237.29 202.012 231.48 199.932 225.22Z" stroke="#302B29" stroke-width="0.34" stroke-miterlimit="10"/>
<path fill-rule="evenodd" clip-rule="evenodd" d="M281.191 237.67C278.571 233.55 280.531 226.96 283.561 224.92C287.191 228.1 284.901 236.43 281.191 237.67Z" stroke="#302B29" stroke-width="0.34" stroke-miterlimit="10"/>
<path fill-rule="evenodd" clip-rule="evenodd" d="M263.691 225.51C267.641 227.16 268.851 233.83 266.661 238.26C262.481 237.21 261.311 229.52 263.691 225.51Z" stroke="#302B29" stroke-width="0.34" stroke-miterlimit="10"/>
<path fill-rule="evenodd" clip-rule="evenodd" d="M322.122 226.11C321.252 232.65 317.722 236.53 310.852 237.08C311.452 230.27 315.352 226.75 322.122 226.11Z" stroke="#302B29" stroke-width="0.34" stroke-miterlimit="10"/>
<path fill-rule="evenodd" clip-rule="evenodd" d="M491.46 230.56C486.5 241.8 465.35 246.07 452.91 238.57C457.98 227.28 479.13 222.57 491.46 230.56Z" stroke="#302B29" stroke-width="0.34" stroke-miterlimit="10"/>
<path fill-rule="evenodd" clip-rule="evenodd" d="M95.5305 239.16C83.0205 247.59 62.4705 241.62 56.9805 230.86C69.6105 222.82 89.9305 228.23 95.5305 239.16Z" stroke="#302B29" stroke-width="0.34" stroke-miterlimit="10"/>
<path fill-rule="evenodd" clip-rule="evenodd" d="M226.32 226.7C232.92 227.51 236.67 231.18 237.29 237.97C230.59 237.25 226.81 233.62 226.32 226.7Z" stroke="#302B29" stroke-width="0.34" stroke-miterlimit="10"/>
<path fill-rule="evenodd" clip-rule="evenodd" d="M293.052 227.59C295.532 232.6 292.312 238.66 288.012 239.75C286.542 233.61 289.562 229.72 293.052 227.59Z" stroke="#302B29" stroke-width="0.34" stroke-miterlimit="10"/>
<path fill-rule="evenodd" clip-rule="evenodd" d="M254.501 228.48C258.721 229.88 261.041 234.48 259.841 240.34C255.881 239.8 252.721 233.93 254.501 228.48Z" stroke="#302B29" stroke-width="0.34" stroke-miterlimit="10"/>
<path fill-rule="evenodd" clip-rule="evenodd" d="M379.361 230.26C376.621 237.26 368.081 242.02 358.301 239.16C360.681 231.74 369.621 227.52 379.361 230.26Z" stroke="#302B29" stroke-width="0.34" stroke-miterlimit="10"/>
<path fill-rule="evenodd" clip-rule="evenodd" d="M190.14 240.05C180.1 242.96 172.52 237.59 169.08 231.15C178.42 227.56 187.81 232.82 190.14 240.05Z" stroke="#302B29" stroke-width="0.34" stroke-miterlimit="10"/>
<path fill-rule="evenodd" clip-rule="evenodd" d="M294.541 243.31C293.941 236.78 297.291 234.19 301.361 232.34C303.381 237.93 298.981 242.21 294.541 243.31Z" stroke="#302B29" stroke-width="0.34" stroke-miterlimit="10"/>
<path fill-rule="evenodd" clip-rule="evenodd" d="M246.19 232.93C250.81 234.44 253.7 237.67 253.6 243.9C248.28 243.21 245.59 238.57 246.19 232.93Z" stroke="#302B29" stroke-width="0.34" stroke-miterlimit="10"/>
<path fill-rule="evenodd" clip-rule="evenodd" d="M449.651 238.86C445.251 248.14 428.161 251.95 417.621 245.68C421.061 236.32 439.261 232.21 449.651 238.86Z" stroke="#302B29" stroke-width="0.34" stroke-miterlimit="10"/>
<path fill-rule="evenodd" clip-rule="evenodd" d="M131.122 246.27C120.632 252.95 103.282 248.42 99.0918 239.15C109.682 232.58 126.662 237.15 131.122 246.27Z" stroke="#302B29" stroke-width="0.34" stroke-miterlimit="10"/>
<path fill-rule="evenodd" clip-rule="evenodd" d="M330.42 236.19C328.84 242.02 324.93 245.53 317.07 245.09C318.81 239.42 322.64 235.83 330.42 236.19Z" stroke="#302B29" stroke-width="0.34" stroke-miterlimit="10"/>
<path fill-rule="evenodd" clip-rule="evenodd" d="M218.021 236.78C225.681 236.53 229.412 240.22 231.072 245.97C223.292 246.34 219.541 242.67 218.021 236.78Z" stroke="#302B29" stroke-width="0.34" stroke-miterlimit="10"/>
<path fill-rule="evenodd" clip-rule="evenodd" d="M308.77 238.56C310.09 243.45 305.45 247.49 300.17 247.75C300.5 242.15 303.86 239.58 308.77 238.56Z" stroke="#302B29" stroke-width="0.34" stroke-miterlimit="10"/>
<path fill-rule="evenodd" clip-rule="evenodd" d="M356.521 239.75C354.301 245.59 347.351 249.36 339.021 247.16C340.931 240.87 348.681 237.36 356.521 239.75Z" stroke="#302B29" stroke-width="0.34" stroke-miterlimit="10"/>
<path fill-rule="evenodd" clip-rule="evenodd" d="M238.781 239.16C244.201 239.97 247.481 242.92 247.971 248.65C242.251 248.14 239.281 244.89 238.781 239.16Z" stroke="#302B29" stroke-width="0.34" stroke-miterlimit="10"/>
<path fill-rule="evenodd" clip-rule="evenodd" d="M209.42 247.76C201.41 250.65 194.63 245.88 191.92 240.64C199.32 237.35 207.34 241.97 209.42 247.76Z" stroke="#302B29" stroke-width="0.34" stroke-miterlimit="10"/>
<path fill-rule="evenodd" clip-rule="evenodd" d="M414.651 245.98C410.741 253.56 396.901 256.69 387.961 251.61C390.291 243.85 406.351 240.08 414.651 245.98Z" stroke="#302B29" stroke-width="0.34" stroke-miterlimit="10"/>
<path fill-rule="evenodd" clip-rule="evenodd" d="M160.782 251.61C152.872 258.1 137.512 253.9 134.092 246.27C142.692 240.62 156.712 244.79 160.782 251.61Z" stroke="#302B29" stroke-width="0.34" stroke-miterlimit="10"/>
<path fill-rule="evenodd" clip-rule="evenodd" d="M315.591 245.98C314.461 250.98 311.101 253.75 304.621 253.39C306.041 248.68 309.301 245.81 315.591 245.98Z" stroke="#302B29" stroke-width="0.34" stroke-miterlimit="10"/>
<path fill-rule="evenodd" clip-rule="evenodd" d="M243.522 254.28C237.082 254.88 233.652 250.91 232.842 246.87C238.402 246.22 242.562 249.36 243.522 254.28Z" stroke="#302B29" stroke-width="0.34" stroke-miterlimit="10"/>
<path fill-rule="evenodd" clip-rule="evenodd" d="M336.651 248.05C334.681 252.86 329.371 255.72 322.121 254.28C323.391 248.91 329.941 246.05 336.651 248.05Z" stroke="#302B29" stroke-width="0.34" stroke-miterlimit="10"/>
<path fill-rule="evenodd" clip-rule="evenodd" d="M226.321 254.88C219.431 257.04 214.131 253.23 211.791 248.95C217.621 246.11 224.811 249.74 226.321 254.88Z" stroke="#302B29" stroke-width="0.34" stroke-miterlimit="10"/>
<path fill-rule="evenodd" clip-rule="evenodd" d="M385.582 251.61C382.872 258.15 370.592 260.51 363.342 256.36C366.042 249.65 378.512 247.04 385.582 251.61Z" stroke="#302B29" stroke-width="0.34" stroke-miterlimit="10"/>
<path fill-rule="evenodd" clip-rule="evenodd" d="M185.1 256.95C177.92 261.91 165.24 258.01 163.15 251.91C170.41 247.57 182.36 250.55 185.1 256.95Z" stroke="#302B29" stroke-width="0.34" stroke-miterlimit="10"/>
<path fill-rule="evenodd" clip-rule="evenodd" d="M320.342 254.58C318.822 258.72 314.232 261.28 308.182 259.92C309.422 255.41 314.342 253.39 320.342 254.58Z" stroke="#302B29" stroke-width="0.34" stroke-miterlimit="10"/>
<path fill-rule="evenodd" clip-rule="evenodd" d="M361.561 256.36C359.071 261.86 348.791 264.1 342.871 260.22C345.171 254.78 355.531 252.81 361.561 256.36Z" stroke="#302B29" stroke-width="0.34" stroke-miterlimit="10"/>
<path fill-rule="evenodd" clip-rule="evenodd" d="M205.56 261.1C199.39 264.74 189.63 262.26 187.17 256.95C192.99 252.96 203.27 255.52 205.56 261.1Z" stroke="#302B29" stroke-width="0.34" stroke-miterlimit="10"/>
<path fill-rule="evenodd" clip-rule="evenodd" d="M240.26 260.51C234.81 262.37 229.52 259.55 228.4 255.17C234.3 253.93 238.77 256.38 240.26 260.51Z" stroke="#302B29" stroke-width="0.34" stroke-miterlimit="10"/>
<path fill-rule="evenodd" clip-rule="evenodd" d="M340.5 260.51C338.36 265.12 330.41 266.87 325.08 264.07C325.93 259.54 335.39 257.41 340.5 260.51Z" stroke="#302B29" stroke-width="0.34" stroke-miterlimit="10"/>
<path fill-rule="evenodd" clip-rule="evenodd" d="M223.36 264.66C218.28 267.73 210.23 265.51 208.24 261.1C213.11 257.76 222.56 260.42 223.36 264.66Z" stroke="#302B29" stroke-width="0.34" stroke-miterlimit="10"/>
<path fill-rule="evenodd" clip-rule="evenodd" d="M323.011 264.07C321.241 268.02 314.111 269.33 309.961 266.74C311.931 262.99 318.741 261.36 323.011 264.07Z" stroke="#302B29" stroke-width="0.34" stroke-miterlimit="10"/>
<path fill-rule="evenodd" clip-rule="evenodd" d="M238.482 267.04C234.832 270.6 227.612 268.09 225.432 264.96C229.092 261.47 236.262 263.92 238.482 267.04Z" stroke="#302B29" stroke-width="0.34" stroke-miterlimit="10"/>
<path fill-rule="evenodd" clip-rule="evenodd" d="M547.22 273.86C537.9 286.47 509.82 285.17 500.07 273.86C505.52 269.3 512.79 264.59 522.31 264.37C532.55 264.13 541.42 268.94 547.22 273.86Z" stroke="#302B29" stroke-width="0.34" stroke-miterlimit="10"/>
<path fill-rule="evenodd" clip-rule="evenodd" d="M0.630859 274.15V273.56C6.54086 269.13 14.3909 264.55 24.3609 264.66C34.0609 264.77 42.4608 269.26 47.7908 274.15C42.3508 279.34 34.4509 283.54 24.3609 283.34C14.1109 283.14 6.44086 278.67 0.630859 274.15Z" stroke="#302B29" stroke-width="0.34" stroke-miterlimit="10"/>
<path fill-rule="evenodd" clip-rule="evenodd" d="M495.911 273.86C488.361 283.86 465.321 283.59 456.461 274.16C461.061 269.07 468.941 265.37 478.411 266.15C485.671 266.75 491.631 270.68 495.911 273.86Z" stroke="#302B29" stroke-width="0.34" stroke-miterlimit="10"/>
<path fill-rule="evenodd" clip-rule="evenodd" d="M91.6707 273.86C84.2907 284.51 61.0207 283.67 52.2207 274.16C59.7807 263.92 83.5607 264.59 91.6707 273.86Z" stroke="#302B29" stroke-width="0.34" stroke-miterlimit="10"/>
<path fill-rule="evenodd" clip-rule="evenodd" d="M452.911 273.86C446.571 282.5 427.211 281.73 420.291 274.16C426.251 265.02 446.341 265.92 452.911 273.86Z" stroke="#302B29" stroke-width="0.34" stroke-miterlimit="10"/>
<path fill-rule="evenodd" clip-rule="evenodd" d="M127.86 274.45C120.97 282.52 101.23 282.41 95.2402 273.56C102.16 265.82 121.87 265.85 127.86 274.45Z" stroke="#302B29" stroke-width="0.34" stroke-miterlimit="10"/>
<path fill-rule="evenodd" clip-rule="evenodd" d="M390.031 274.15C393.431 268.52 404.941 267.03 412.271 270.59C413.581 271.23 417.281 273.14 417.311 273.85C417.391 275.89 408.691 278.96 406.631 279.19C398.851 280.06 394.031 276.74 390.021 274.15H390.031Z" stroke="#302B29" stroke-width="0.34" stroke-miterlimit="10"/>
<path fill-rule="evenodd" clip-rule="evenodd" d="M158.112 273.86C154.572 279.36 143.542 280.86 136.162 277.42C134.772 276.77 130.872 274.94 130.822 274.16C130.722 272.66 135.992 270.52 137.342 270.01C144.832 267.19 154.182 269.97 158.102 273.87L158.112 273.86Z" stroke="#302B29" stroke-width="0.34" stroke-miterlimit="10"/>
<path fill-rule="evenodd" clip-rule="evenodd" d="M387.961 273.86C383.541 279.72 370.001 279.37 365.131 274.16C369.041 267.57 383.441 268.51 387.961 273.86Z" stroke="#302B29" stroke-width="0.34" stroke-miterlimit="10"/>
<path fill-rule="evenodd" clip-rule="evenodd" d="M183.022 273.86C178.872 280.37 164.952 279.43 160.182 274.16C164.472 268.28 178.302 268.58 183.022 273.86Z" stroke="#302B29" stroke-width="0.34" stroke-miterlimit="10"/>
<path fill-rule="evenodd" clip-rule="evenodd" d="M363.341 273.86C359.431 278.71 348.661 278.55 344.361 274.16C347.711 268.44 359.371 269.44 363.341 273.86Z" stroke="#302B29" stroke-width="0.34" stroke-miterlimit="10"/>
<path fill-rule="evenodd" clip-rule="evenodd" d="M203.781 274.45C199.461 279.12 188.991 278.59 184.801 274.15C188.421 269.29 200.561 269 203.781 274.45Z" stroke="#302B29" stroke-width="0.34" stroke-miterlimit="10"/>
<path fill-rule="evenodd" clip-rule="evenodd" d="M341.691 273.56C338.821 278.2 329.671 277.58 325.971 274.15C328.741 269.34 338.001 270.22 341.691 273.56Z" stroke="#302B29" stroke-width="0.34" stroke-miterlimit="10"/>
<path fill-rule="evenodd" clip-rule="evenodd" d="M222.171 274.45C218.881 278.08 209.481 277.89 206.451 274.15C209.391 269.97 219.531 269.9 222.171 274.45Z" stroke="#302B29" stroke-width="0.34" stroke-miterlimit="10"/>
<path fill-rule="evenodd" clip-rule="evenodd" d="M323.902 273.56C321.802 277.56 313.772 276.97 310.852 274.15C312.952 270.16 320.962 270.72 323.902 273.56Z" stroke="#302B29" stroke-width="0.34" stroke-miterlimit="10"/>
<path fill-rule="evenodd" clip-rule="evenodd" d="M237.3 273.86C234.96 277.85 227.45 277.1 224.25 274.45C226.24 270.35 234.45 271.06 237.3 273.86Z" stroke="#302B29" stroke-width="0.34" stroke-miterlimit="10"/>
<path fill-rule="evenodd" clip-rule="evenodd" d="M238.191 281.27C236.521 284.97 229.401 286.34 225.141 283.94C226.861 280.11 234.101 278.45 238.191 281.27Z" stroke="#302B29" stroke-width="0.34" stroke-miterlimit="10"/>
<path fill-rule="evenodd" clip-rule="evenodd" d="M322.411 283.94C318.441 287.05 311.391 284.8 309.361 281.57C313.121 278.43 320.651 280.57 322.411 283.94Z" stroke="#302B29" stroke-width="0.34" stroke-miterlimit="10"/>
<path fill-rule="evenodd" clip-rule="evenodd" d="M223.361 283.94C221.471 288.69 213.171 290.39 207.941 287.5C209.721 282.54 218.171 281.26 223.361 283.94Z" stroke="#302B29" stroke-width="0.34" stroke-miterlimit="10"/>
<path fill-rule="evenodd" clip-rule="evenodd" d="M339.611 287.8C334.291 290.84 326.831 288.46 324.191 284.54C328.721 280.79 337.781 282.93 339.611 287.8Z" stroke="#302B29" stroke-width="0.34" stroke-miterlimit="10"/>
<path fill-rule="evenodd" clip-rule="evenodd" d="M205.261 287.5C203.301 293.3 192.851 295.1 186.871 291.65C189.011 285.93 199.171 284.09 205.261 287.5Z" stroke="#302B29" stroke-width="0.34" stroke-miterlimit="10"/>
<path fill-rule="evenodd" clip-rule="evenodd" d="M360.671 291.95C354.571 295.63 344.731 293.06 342.281 287.8C348.201 283.86 358.311 286.34 360.671 291.95Z" stroke="#302B29" stroke-width="0.34" stroke-miterlimit="10"/>
<path fill-rule="evenodd" clip-rule="evenodd" d="M240.262 288.09C238.892 292.27 233.582 294.96 228.102 293.13C229.592 289.08 234.852 286.33 240.262 288.09Z" stroke="#302B29" stroke-width="0.34" stroke-miterlimit="10"/>
<path fill-rule="evenodd" clip-rule="evenodd" d="M319.451 293.43C313.381 294.74 308.831 292.27 307.291 288.09C312.921 286.21 317.951 289.28 319.451 293.43Z" stroke="#302B29" stroke-width="0.34" stroke-miterlimit="10"/>
<path fill-rule="evenodd" clip-rule="evenodd" d="M184.801 291.65C182.041 298.5 169.741 300.76 162.561 296.4C165.571 289.82 177.561 287.22 184.801 291.65Z" stroke="#302B29" stroke-width="0.34" stroke-miterlimit="10"/>
<path fill-rule="evenodd" clip-rule="evenodd" d="M384.99 296.401C378.18 301.481 365.54 298.331 362.75 291.651C370.21 287.191 381.71 290.491 384.99 296.401Z" stroke="#302B29" stroke-width="0.34" stroke-miterlimit="10"/>
<path fill-rule="evenodd" clip-rule="evenodd" d="M226.321 293.731C224.751 298.851 218.561 301.951 211.791 299.961C213.541 294.901 219.601 291.971 226.321 293.731Z" stroke="#302B29" stroke-width="0.34" stroke-miterlimit="10"/>
<path fill-rule="evenodd" clip-rule="evenodd" d="M335.76 300.25C328.86 302.04 323.07 298.82 321.23 293.72C328.18 291.82 333.96 295.14 335.76 300.25Z" stroke="#302B29" stroke-width="0.34" stroke-miterlimit="10"/>
<path fill-rule="evenodd" clip-rule="evenodd" d="M160.48 296.4C157.04 304.58 142.13 307.55 133.49 302.03C137.37 294.39 151.49 291.25 160.48 296.4Z" stroke="#302B29" stroke-width="0.34" stroke-miterlimit="10"/>
<path fill-rule="evenodd" clip-rule="evenodd" d="M413.76 302.63C404.85 308.1 391.29 304.01 387.07 297C395.26 290.75 410.32 294.68 413.76 302.63Z" stroke="#302B29" stroke-width="0.34" stroke-miterlimit="10"/>
<path fill-rule="evenodd" clip-rule="evenodd" d="M243.822 294.32C242.502 299.13 239.372 302.13 232.852 301.73C234.042 296.79 237.532 294.15 243.822 294.32Z" stroke="#302B29" stroke-width="0.34" stroke-miterlimit="10"/>
<path fill-rule="evenodd" clip-rule="evenodd" d="M303.73 294.32C310.35 293.83 313.3 297.01 314.7 301.73C308.07 302.24 305.34 298.83 303.73 294.32Z" stroke="#302B29" stroke-width="0.34" stroke-miterlimit="10"/>
<path fill-rule="evenodd" clip-rule="evenodd" d="M130.821 302.33C126.781 311.81 109.171 315.53 98.791 309.15C102.211 300.2 120.371 295.76 130.821 302.33Z" stroke="#302B29" stroke-width="0.34" stroke-miterlimit="10"/>
<path fill-rule="evenodd" clip-rule="evenodd" d="M449.051 309.15C439.021 316.38 421.171 311.51 416.721 302.63C427.141 295.43 443.981 300.63 449.051 309.15Z" stroke="#302B29" stroke-width="0.34" stroke-miterlimit="10"/>
<path fill-rule="evenodd" clip-rule="evenodd" d="M299.281 299.66C304.831 300.34 307.961 303.44 308.471 309.15C302.931 308.46 299.691 305.48 299.281 299.66Z" stroke="#302B29" stroke-width="0.34" stroke-miterlimit="10"/>
<path fill-rule="evenodd" clip-rule="evenodd" d="M248.27 299.96C247.97 305.79 244.61 308.56 239.08 309.15C239.51 303.45 242.84 300.65 248.27 299.96Z" stroke="#302B29" stroke-width="0.34" stroke-miterlimit="10"/>
<path fill-rule="evenodd" clip-rule="evenodd" d="M355.631 307.96C348.251 311.37 340.201 306.55 338.131 300.84C346.111 298.12 352.981 302.56 355.631 307.96Z" stroke="#302B29" stroke-width="0.34" stroke-miterlimit="10"/>
<path fill-rule="evenodd" clip-rule="evenodd" d="M209.42 300.85C207.26 306.78 200.3 310.46 191.92 308.26C193.88 302.2 201.13 298.64 209.42 300.85Z" stroke="#302B29" stroke-width="0.34" stroke-miterlimit="10"/>
<path fill-rule="evenodd" clip-rule="evenodd" d="M231.072 302.63C229.812 308.69 225.771 311.96 218.021 311.53C219.641 305.83 223.602 302.48 231.072 302.63Z" stroke="#302B29" stroke-width="0.34" stroke-miterlimit="10"/>
<path fill-rule="evenodd" clip-rule="evenodd" d="M316.191 302.92C323.651 301.48 327.601 306.14 329.541 311.22C322.821 313.02 317.951 308.03 316.191 302.92Z" stroke="#302B29" stroke-width="0.34" stroke-miterlimit="10"/>
<path fill-rule="evenodd" clip-rule="evenodd" d="M293.651 304.11C298.461 305.43 301.251 308.77 301.061 315.08C296.121 313.89 293.261 310.62 293.651 304.11Z" stroke="#302B29" stroke-width="0.34" stroke-miterlimit="10"/>
<path fill-rule="evenodd" clip-rule="evenodd" d="M254.202 304.4C254.462 310.89 251.342 313.99 246.492 315.37C246.232 308.88 249.352 305.78 254.202 304.4Z" stroke="#302B29" stroke-width="0.34" stroke-miterlimit="10"/>
<path fill-rule="evenodd" clip-rule="evenodd" d="M95.2316 309.45C90.0416 320.82 69.1416 325.25 56.6816 317.46C61.9416 306.19 82.8116 301.68 95.2316 309.45Z" stroke="#302B29" stroke-width="0.34" stroke-miterlimit="10"/>
<path fill-rule="evenodd" clip-rule="evenodd" d="M490.87 317.46C478.99 326.37 457.84 320.25 452.32 309.75C464.58 300.96 484.81 307.2 490.87 317.46Z" stroke="#302B29" stroke-width="0.34" stroke-miterlimit="10"/>
<path fill-rule="evenodd" clip-rule="evenodd" d="M287.121 307.37C291.411 308.77 293.801 313.48 292.461 319.53C288.191 318.12 285.871 313.34 287.121 307.37Z" stroke="#302B29" stroke-width="0.34" stroke-miterlimit="10"/>
<path fill-rule="evenodd" clip-rule="evenodd" d="M260.131 307.67C262.691 312.79 259.291 318.62 255.091 319.83C253.671 313.75 256.601 309.76 260.131 307.67Z" stroke="#302B29" stroke-width="0.34" stroke-miterlimit="10"/>
<path fill-rule="evenodd" clip-rule="evenodd" d="M190.14 308.85C187.55 316.02 179.34 320.15 169.08 317.75C171.59 310.63 180.38 305.86 190.14 308.85Z" stroke="#302B29" stroke-width="0.34" stroke-miterlimit="10"/>
<path fill-rule="evenodd" clip-rule="evenodd" d="M378.47 317.46C369.17 321.21 360 315.65 357.41 308.86C367.34 305.6 375.28 311.11 378.47 317.46Z" stroke="#302B29" stroke-width="0.34" stroke-miterlimit="10"/>
<path fill-rule="evenodd" clip-rule="evenodd" d="M280.301 309.45C284.351 310.91 285.521 317.87 283.261 322.2C279.321 320.86 277.841 313.62 280.301 309.45Z" stroke="#302B29" stroke-width="0.34" stroke-miterlimit="10"/>
<path fill-rule="evenodd" clip-rule="evenodd" d="M264.88 322.79C261.73 319.08 263.9 311.74 266.96 309.74C270.62 313.2 268.06 320.85 264.88 322.79Z" stroke="#302B29" stroke-width="0.34" stroke-miterlimit="10"/>
<path fill-rule="evenodd" clip-rule="evenodd" d="M273.181 309.74C276.931 312.38 276.621 320.01 273.481 323.09C269.781 320.69 270.361 312.65 273.181 309.74Z" stroke="#302B29" stroke-width="0.34" stroke-miterlimit="10"/>
<path fill-rule="evenodd" clip-rule="evenodd" d="M309.961 310.34C316.581 311.13 320.331 314.8 320.931 321.61C314.181 320.95 310.551 317.16 309.961 310.34Z" stroke="#302B29" stroke-width="0.34" stroke-miterlimit="10"/>
<path fill-rule="evenodd" clip-rule="evenodd" d="M237.591 310.63C237.201 317.55 233.271 320.94 226.621 321.6C227.101 314.76 231.171 311.52 237.591 310.63Z" stroke="#302B29" stroke-width="0.34" stroke-miterlimit="10"/>
<path fill-rule="evenodd" clip-rule="evenodd" d="M215.941 313C214.331 319.9 208.691 324.33 200.221 323.38C201.851 316.47 207.641 312.26 215.941 313Z" stroke="#302B29" stroke-width="0.34" stroke-miterlimit="10"/>
<path fill-rule="evenodd" clip-rule="evenodd" d="M331.611 312.71C340.981 312.24 345.291 316.83 347.331 323.68C338.001 324.11 333.631 319.58 331.611 312.71Z" stroke="#302B29" stroke-width="0.34" stroke-miterlimit="10"/>
<path fill-rule="evenodd" clip-rule="evenodd" d="M52.2309 317.75C46.8209 330.82 21.0109 337.68 5.96094 327.24C12.8309 314.66 36.3709 308.31 52.2309 317.75Z" stroke="#302B29" stroke-width="0.34" stroke-miterlimit="10"/>
<path fill-rule="evenodd" clip-rule="evenodd" d="M541.581 327.54C527.031 338.43 501.771 330.71 495.311 318.05C509.791 307.72 534.061 315.29 541.581 327.54Z" stroke="#302B29" stroke-width="0.34" stroke-miterlimit="10"/>
<path fill-rule="evenodd" clip-rule="evenodd" d="M301.951 316.56C307.641 318.29 311.261 322.08 310.851 329.91C305.121 328.22 301.491 324.44 301.951 316.56Z" stroke="#302B29" stroke-width="0.34" stroke-miterlimit="10"/>
<path fill-rule="evenodd" clip-rule="evenodd" d="M245.301 316.86C247.101 323.61 242.221 328.53 237.001 330.21C235.651 322.83 240.341 318.91 245.301 316.86Z" stroke="#302B29" stroke-width="0.34" stroke-miterlimit="10"/>
<path fill-rule="evenodd" clip-rule="evenodd" d="M167.011 318.34C163.981 327.01 153.771 332.13 141.801 329.02C144.931 320.46 155.501 314.81 167.011 318.34Z" stroke="#302B29" stroke-width="0.34" stroke-miterlimit="10"/>
<path fill-rule="evenodd" clip-rule="evenodd" d="M405.751 328.72C394.701 333.18 383.571 326.65 380.541 318.34C392.251 314.38 401.891 321.06 405.751 328.72Z" stroke="#302B29" stroke-width="0.34" stroke-miterlimit="10"/>
<path fill-rule="evenodd" clip-rule="evenodd" d="M293.05 321.31C297.96 323.26 301.11 329 299.28 335.84C294.12 334.32 291.08 328.04 293.05 321.31Z" stroke="#302B29" stroke-width="0.34" stroke-miterlimit="10"/>
<path fill-rule="evenodd" clip-rule="evenodd" d="M254.501 321.61C257.091 327.98 253.421 334.66 248.271 336.15C246.381 329.24 250.011 323.98 254.501 321.61Z" stroke="#302B29" stroke-width="0.34" stroke-miterlimit="10"/>
<path fill-rule="evenodd" clip-rule="evenodd" d="M224.541 323.39C224.701 331.36 219.081 336.12 211.191 337.03C212.011 328.85 216.871 324.72 224.541 323.39Z" stroke="#302B29" stroke-width="0.34" stroke-miterlimit="10"/>
<path fill-rule="evenodd" clip-rule="evenodd" d="M322.711 323.39C330.911 324.09 335.321 328.57 336.061 336.74C327.761 336.14 323.951 331.06 322.711 323.39Z" stroke="#302B29" stroke-width="0.34" stroke-miterlimit="10"/>
<path fill-rule="evenodd" clip-rule="evenodd" d="M283.262 323.98C287.762 326.27 289.682 333.96 286.822 339.4C282.332 338.58 280.102 329.03 283.262 323.98Z" stroke="#302B29" stroke-width="0.34" stroke-miterlimit="10"/>
<path fill-rule="evenodd" clip-rule="evenodd" d="M198.742 324.57C196.292 332.7 190.792 337.77 179.762 337.32C181.612 328.77 188.452 323.69 198.742 324.57Z" stroke="#302B29" stroke-width="0.34" stroke-miterlimit="10"/>
<path fill-rule="evenodd" clip-rule="evenodd" d="M367.791 337.32C356.541 338.1 351.831 332.33 348.811 324.86C359.111 322.68 365.661 329.35 367.791 337.32Z" stroke="#302B29" stroke-width="0.34" stroke-miterlimit="10"/>
<path fill-rule="evenodd" clip-rule="evenodd" d="M261.022 339.99C257.842 334.87 260.292 327.2 263.992 324.57C268.152 328.69 265.562 338.34 261.022 339.99Z" stroke="#302B29" stroke-width="0.34" stroke-miterlimit="10"/>
<path fill-rule="evenodd" clip-rule="evenodd" d="M273.18 324.87C277.67 327.64 277.11 337.61 273.48 340.88C269.16 337.75 269.62 328.47 273.18 324.87Z" stroke="#302B29" stroke-width="0.34" stroke-miterlimit="10"/>
<path fill-rule="evenodd" clip-rule="evenodd" d="M438.67 342.37C425.39 347.68 412.21 339.77 408.42 329.91C422.38 325.07 434.11 333.1 438.67 342.37Z" stroke="#302B29" stroke-width="0.34" stroke-miterlimit="10"/>
<path fill-rule="evenodd" clip-rule="evenodd" d="M139.131 329.91C135.561 340.16 122.521 346.89 108.881 342.37C112.731 332.48 125.061 325.76 139.131 329.91Z" stroke="#302B29" stroke-width="0.34" stroke-miterlimit="10"/>
<path fill-rule="evenodd" clip-rule="evenodd" d="M322.71 347.71C315.79 345.83 311.76 341.06 312.03 331.99C319.17 333.65 323.15 338.47 322.71 347.71Z" stroke="#302B29" stroke-width="0.34" stroke-miterlimit="10"/>
<path fill-rule="evenodd" clip-rule="evenodd" d="M235.521 332.28C236.201 341.76 231.421 345.78 224.841 348C223.901 339.39 228.641 334.04 235.521 332.28Z" stroke="#302B29" stroke-width="0.34" stroke-miterlimit="10"/>
<path fill-rule="evenodd" clip-rule="evenodd" d="M337.541 337.92C347.161 339.07 352.621 344.39 353.561 354.23C343.721 353.29 338.691 347.55 337.541 337.92Z" stroke="#302B29" stroke-width="0.34" stroke-miterlimit="10"/>
<path fill-rule="evenodd" clip-rule="evenodd" d="M177.981 338.21C175.221 348.21 168.541 354.27 155.141 353.63C157.881 343.61 164.751 337.73 177.981 338.21Z" stroke="#302B29" stroke-width="0.34" stroke-miterlimit="10"/>
<path fill-rule="evenodd" clip-rule="evenodd" d="M209.421 338.21C210.511 347.17 203.011 353.64 193.701 354.23C194.811 344.77 200.381 339.75 209.421 338.21Z" stroke="#302B29" stroke-width="0.34" stroke-miterlimit="10"/>
<path fill-rule="evenodd" clip-rule="evenodd" d="M299.871 338.21C306.011 340.14 309.911 347.82 307.281 355.71C301.351 353.5 297.821 346.51 299.871 338.21Z" stroke="#302B29" stroke-width="0.34" stroke-miterlimit="10"/>
<path fill-rule="evenodd" clip-rule="evenodd" d="M369.57 338.21C383.38 337.15 389.16 344.13 392.41 353.63C379.56 354.86 372.53 347.85 369.57 338.21Z" stroke="#302B29" stroke-width="0.34" stroke-miterlimit="10"/>
<path fill-rule="evenodd" clip-rule="evenodd" d="M239.96 356.01C237.7 347.45 242.18 341.49 247.37 338.51C250.65 346.03 246.14 354.2 239.96 356.01Z" stroke="#302B29" stroke-width="0.34" stroke-miterlimit="10"/>
<path fill-rule="evenodd" clip-rule="evenodd" d="M105.621 343.55C101.381 356.12 86.3314 363.75 69.4414 358.97C73.9214 346.59 88.8014 338.92 105.621 343.55Z" stroke="#302B29" stroke-width="0.34" stroke-miterlimit="10"/>
<path fill-rule="evenodd" clip-rule="evenodd" d="M286.822 342.07C292.362 344.45 294.422 354.22 290.972 360.46C285.672 359.26 283.042 348.04 286.822 342.07Z" stroke="#302B29" stroke-width="0.34" stroke-miterlimit="10"/>
<path fill-rule="evenodd" clip-rule="evenodd" d="M478.121 359.27C460.931 364.56 446.131 355 441.941 343.55C459.201 338.4 473.211 347.33 478.121 359.27Z" stroke="#302B29" stroke-width="0.34" stroke-miterlimit="10"/>
<path fill-rule="evenodd" clip-rule="evenodd" d="M256.872 361.05C253.082 355.16 255.762 345.43 260.432 342.66C265.302 347.7 262.072 358.92 256.872 361.05Z" stroke="#302B29" stroke-width="0.34" stroke-miterlimit="10"/>
<path fill-rule="evenodd" clip-rule="evenodd" d="M273.481 362.24C268.301 358.67 268.891 347.35 273.181 343.26C278.511 346.5 277.871 358.48 273.481 362.24Z" stroke="#302B29" stroke-width="0.34" stroke-miterlimit="10"/>
<path fill-rule="evenodd" clip-rule="evenodd" d="M323.6 349.19C331.89 351.48 337.06 356.89 336.35 368.17C328.09 365.85 323.17 360.19 323.6 349.19Z" stroke="#302B29" stroke-width="0.34" stroke-miterlimit="10"/>
<path fill-rule="evenodd" clip-rule="evenodd" d="M223.36 349.48H223.951C224.961 360.87 218.57 366.43 210.9 368.17C210.4 357.29 215.94 352.45 223.36 349.48Z" stroke="#302B29" stroke-width="0.34" stroke-miterlimit="10"/>
<path fill-rule="evenodd" clip-rule="evenodd" d="M152.77 355.12C149.69 366.97 140.83 374.62 125.48 373.21C128.65 361.43 137.72 354.04 152.77 355.12Z" stroke="#302B29" stroke-width="0.34" stroke-miterlimit="10"/>
<path fill-rule="evenodd" clip-rule="evenodd" d="M422.061 373.51C406.711 374.85 398.501 366.68 394.771 355.42C410.021 352.93 418.621 362.21 422.061 373.51Z" stroke="#302B29" stroke-width="0.34" stroke-miterlimit="10"/>
<path fill-rule="evenodd" clip-rule="evenodd" d="M355.041 355.71C366.971 356.73 373.281 363.37 374.321 375.28C362.811 373.84 356.611 367.09 355.041 355.71Z" stroke="#302B29" stroke-width="0.34" stroke-miterlimit="10"/>
<path fill-rule="evenodd" clip-rule="evenodd" d="M192.512 356.01C191.282 367.73 184.392 373.8 172.932 375.29C174.122 363.53 180.732 357.19 192.512 356.01Z" stroke="#302B29" stroke-width="0.34" stroke-miterlimit="10"/>
<path fill-rule="evenodd" clip-rule="evenodd" d="M307.88 357.49C315.17 359.91 319.71 368.74 316.78 378.55C309.67 375.81 305.23 367.22 307.88 357.49Z" stroke="#302B29" stroke-width="0.34" stroke-miterlimit="10"/>
<path fill-rule="evenodd" clip-rule="evenodd" d="M239.371 357.79C243.271 366.78 237.771 376.18 230.771 378.85C227.591 369 233.051 361.02 239.371 357.79Z" stroke="#302B29" stroke-width="0.34" stroke-miterlimit="10"/>
<path fill-rule="evenodd" clip-rule="evenodd" d="M525.871 378.55C506.701 386.26 487.891 374.18 482.271 360.46C501.341 353.32 519.771 365.01 525.871 378.55Z" stroke="#302B29" stroke-width="0.34" stroke-miterlimit="10"/>
<path fill-rule="evenodd" clip-rule="evenodd" d="M65.2806 360.46C59.8306 375.3 41.4006 384.76 21.3906 378.55C27.3606 364.97 44.3706 353.96 65.2806 360.46Z" stroke="#302B29" stroke-width="0.34" stroke-miterlimit="10"/>
<path fill-rule="evenodd" clip-rule="evenodd" d="M290.981 362.53C297.541 365.27 299.861 377.46 295.731 384.77C288.981 382.13 286.431 369.55 290.981 362.53Z" stroke="#302B29" stroke-width="0.34" stroke-miterlimit="10"/>
<path fill-rule="evenodd" clip-rule="evenodd" d="M256.571 362.83C262.091 369.57 258.051 383.18 251.821 385.07C247.371 377.52 250.871 366.38 256.571 362.83Z" stroke="#302B29" stroke-width="0.34" stroke-miterlimit="10"/>
<path fill-rule="evenodd" clip-rule="evenodd" d="M273.182 364.02C279.502 368.26 278.912 382.1 273.482 386.86C267.402 382.71 268.042 368.7 273.182 364.02Z" stroke="#302B29" stroke-width="0.34" stroke-miterlimit="10"/>
<path fill-rule="evenodd" clip-rule="evenodd" d="M337.54 369.95C347.5 372.45 353.92 380.06 352.67 392.79C343.06 389.75 336.85 383.3 337.54 369.95Z" stroke="#302B29" stroke-width="0.34" stroke-miterlimit="10"/>
<path fill-rule="evenodd" clip-rule="evenodd" d="M209.421 370.24H210.011C211.351 383.08 204.471 390.19 194.591 392.78C193.721 379.45 200.521 373.8 209.421 370.24Z" stroke="#302B29" stroke-width="0.34" stroke-miterlimit="10"/>
<path fill-rule="evenodd" clip-rule="evenodd" d="M122.82 375.29C118.73 389.2 108.61 398.65 89.9004 396.94C93.8104 382.85 104.41 373.89 122.82 375.29Z" stroke="#302B29" stroke-width="0.34" stroke-miterlimit="10"/>
<path fill-rule="evenodd" clip-rule="evenodd" d="M457.651 396.94C439.321 399.54 429.4 388.63 424.73 375.59C443.42 372.63 453.141 383.76 457.651 396.94Z" stroke="#302B29" stroke-width="0.34" stroke-miterlimit="10"/>
<path fill-rule="evenodd" clip-rule="evenodd" d="M148.031 400.5C148.351 386.68 157.551 379.18 170.571 377.07C170.821 377.02 170.851 377.19 170.871 377.37C170.301 390.94 161.351 398.69 148.031 400.5Z" stroke="#302B29" stroke-width="0.34" stroke-miterlimit="10"/>
<path fill-rule="evenodd" clip-rule="evenodd" d="M376.391 377.07C390.681 378.3 398.201 386.3 399.521 400.5C385.651 398.85 378.311 390.67 376.391 377.07Z" stroke="#302B29" stroke-width="0.34" stroke-miterlimit="10"/>
<path fill-rule="evenodd" clip-rule="evenodd" d="M328.051 405.83C319.711 402.5 314.231 392.59 317.371 380.62C326.261 383.42 331.601 394.32 328.051 405.83Z" stroke="#302B29" stroke-width="0.34" stroke-miterlimit="10"/>
<path fill-rule="evenodd" clip-rule="evenodd" d="M219.8 406.13C215.26 395.09 222.04 384.32 229.88 380.92C234.52 392.11 227.44 402.49 219.8 406.13Z" stroke="#302B29" stroke-width="0.34" stroke-miterlimit="10"/>
<path fill-rule="evenodd" clip-rule="evenodd" d="M295.722 386.85C303.722 390.66 306.752 404.96 301.352 413.84C293.602 410.27 290.432 395.64 295.722 386.85Z" stroke="#302B29" stroke-width="0.34" stroke-miterlimit="10"/>
<path fill-rule="evenodd" clip-rule="evenodd" d="M246.192 414.14C240.652 405.44 244.642 391.6 251.532 387.45C258.202 395.26 253.722 410.8 246.192 414.14Z" stroke="#302B29" stroke-width="0.34" stroke-miterlimit="10"/>
<path fill-rule="evenodd" clip-rule="evenodd" d="M273.181 388.93C280.541 393.94 280.441 411.47 272.881 416.22C266.341 410.07 266.861 394.95 273.181 388.93Z" stroke="#302B29" stroke-width="0.34" stroke-miterlimit="10"/>
<path fill-rule="evenodd" clip-rule="evenodd" d="M372.54 422.44C360.95 419.11 353.16 410.39 354.45 395.15C366.48 398.07 373.75 407.26 372.54 422.44Z" stroke="#302B29" stroke-width="0.34" stroke-miterlimit="10"/>
<path fill-rule="evenodd" clip-rule="evenodd" d="M192.222 395.46H192.812C195.742 410.04 185.972 419.59 174.722 422.45C173.682 406.58 181.692 399.77 192.222 395.46Z" stroke="#302B29" stroke-width="0.34" stroke-miterlimit="10"/>
<path fill-rule="evenodd" clip-rule="evenodd" d="M500.361 426.001C477.811 427.771 466.441 415.851 461.211 399.311C483.891 397.431 495.391 409.191 500.361 426.001Z" stroke="#302B29" stroke-width="0.34" stroke-miterlimit="10"/>
<path fill-rule="evenodd" clip-rule="evenodd" d="M86.3404 399.61C81.6404 416.57 69.2704 427.4 46.9004 425.71C51.6904 408.85 64.0104 397.94 86.3404 399.61Z" stroke="#302B29" stroke-width="0.34" stroke-miterlimit="10"/>
<path fill-rule="evenodd" clip-rule="evenodd" d="M429.771 430.75C413.231 428.71 404.071 419.28 402.191 402.57C419.041 404.31 428.171 413.76 429.771 430.75Z" stroke="#302B29" stroke-width="0.34" stroke-miterlimit="10"/>
<path fill-rule="evenodd" clip-rule="evenodd" d="M145.36 402.87C143.92 419.91 134.15 428.63 117.48 430.45C119.21 413.69 128.87 404.87 145.36 402.87Z" stroke="#302B29" stroke-width="0.34" stroke-miterlimit="10"/>
<path fill-rule="evenodd" clip-rule="evenodd" d="M341.69 438.75C331.67 434.75 325.02 422.67 328.94 408.5C339.56 412 345.9 425.02 341.69 438.75Z" stroke="#302B29" stroke-width="0.34" stroke-miterlimit="10"/>
<path fill-rule="evenodd" clip-rule="evenodd" d="M206.16 439.05C200.76 425.77 208.9 412.94 218.32 408.8C223.79 422.24 215.4 434.68 206.16 439.05Z" stroke="#302B29" stroke-width="0.34" stroke-miterlimit="10"/>
<path fill-rule="evenodd" clip-rule="evenodd" d="M308.47 448.54C299.37 445.47 294.98 426.7 301.65 416.51C311.03 420.81 314.77 437.99 308.47 448.54Z" stroke="#302B29" stroke-width="0.34" stroke-miterlimit="10"/>
<path fill-rule="evenodd" clip-rule="evenodd" d="M239.671 449.13C232.101 439.44 237.181 421.75 245.901 417.1C253.471 427.04 248.121 444.07 239.671 449.13Z" stroke="#302B29" stroke-width="0.34" stroke-miterlimit="10"/>
<path fill-rule="evenodd" clip-rule="evenodd" d="M273.481 452.1C264.821 445.79 265.471 426.02 273.181 419.18C282.241 425.61 281.211 445 273.481 452.1Z" stroke="#302B29" stroke-width="0.34" stroke-miterlimit="10"/>
<path fill-rule="evenodd" clip-rule="evenodd" d="M374.31 425.11C388.64 428.88 397.84 439.34 396.26 458.03C382.25 453.75 373.48 444.23 374.31 425.11Z" stroke="#302B29" stroke-width="0.34" stroke-miterlimit="10"/>
<path fill-rule="evenodd" clip-rule="evenodd" d="M172.64 425.41H173.23C174.88 444.21 165 453.91 150.99 458.03C149.36 439.46 159.42 430.1 172.64 425.41Z" stroke="#302B29" stroke-width="0.34" stroke-miterlimit="10"/>
<path fill-rule="evenodd" clip-rule="evenodd" d="M433.041 433.42C453.521 435.38 464.021 447.32 466.551 467.23C446.261 465.08 435.531 453.36 433.041 433.42Z" stroke="#302B29" stroke-width="0.34" stroke-miterlimit="10"/>
<path fill-rule="evenodd" clip-rule="evenodd" d="M113.92 433.71C114.34 444.37 109.39 453.41 102.65 458.92C97.21 463.37 89.61 466.26 81 466.93C82.85 446.73 94.76 436.59 113.92 433.71Z" stroke="#302B29" stroke-width="0.34" stroke-miterlimit="10"/>
<path fill-rule="evenodd" clip-rule="evenodd" d="M342.881 441.72C355.111 446.3 363.381 461.6 358.001 478.2C345.991 473.45 337.961 458.68 342.881 441.72Z" stroke="#302B29" stroke-width="0.34" stroke-miterlimit="10"/>
<path fill-rule="evenodd" clip-rule="evenodd" d="M204.381 442.31H204.971C210.101 459.59 201.191 473.57 189.251 478.49C184.131 461.48 192.961 447.52 204.381 442.31Z" stroke="#302B29" stroke-width="0.34" stroke-miterlimit="10"/>
<path fill-rule="evenodd" clip-rule="evenodd" d="M316.481 490.66C305.631 485.25 300.741 464.37 308.771 452.11C320.131 457.41 324.581 478.49 316.481 490.66Z" stroke="#302B29" stroke-width="0.34" stroke-miterlimit="10"/>
<path fill-rule="evenodd" clip-rule="evenodd" d="M230.771 490.95C222.581 478.49 228.641 458.89 238.181 452.99C238.251 452.67 238.771 452.79 238.771 452.4C247.541 463.79 242.231 485.08 230.761 490.96L230.771 490.95Z" stroke="#302B29" stroke-width="0.34" stroke-miterlimit="10"/>
<path fill-rule="evenodd" clip-rule="evenodd" d="M273.481 494.81C263.031 486.97 263.861 463.81 273.181 455.36C283.541 463.91 283.541 484.2 273.481 494.81Z" stroke="#302B29" stroke-width="0.34" stroke-miterlimit="10"/>
<path fill-rule="evenodd" clip-rule="evenodd" d="M425.031 501.04C408.291 495.83 397.581 484.59 398.631 461.59C416.071 465.92 426.591 478.69 425.031 501.04Z" stroke="#302B29" stroke-width="0.34" stroke-miterlimit="10"/>
<path fill-rule="evenodd" clip-rule="evenodd" d="M148.031 461.89C149.441 462.06 149.131 464.27 149.221 465.45C150.661 484.99 137.181 496.51 122.231 501.04C120.401 478.71 132.151 467.49 148.031 461.89Z" stroke="#302B29" stroke-width="0.34" stroke-miterlimit="10"/>
<path fill-rule="evenodd" clip-rule="evenodd" d="M377.872 525.95C363.302 520.36 353.462 501.99 359.782 482.06C360.032 482.01 360.062 482.18 360.082 482.36C373.912 487.99 384.192 505.29 377.872 525.96V525.95Z" stroke="#302B29" stroke-width="0.34" stroke-miterlimit="10"/>
<path fill-rule="evenodd" clip-rule="evenodd" d="M187.47 482.65H188.06C195.15 501.76 183.5 520.61 169.38 526.25C162.91 505.6 174.13 489.55 187.47 482.65Z" stroke="#302B29" stroke-width="0.34" stroke-miterlimit="10"/>
<path fill-rule="evenodd" clip-rule="evenodd" d="M326.571 541.37C319.671 536.12 313.141 527.83 312.331 516.75C311.741 508.67 313.981 501.1 317.371 494.8C317.621 494.75 317.651 494.92 317.671 495.1C323.811 499.92 330.691 507.65 331.611 518.23C332.421 527.49 329.921 534.87 326.571 541.36V541.37Z" stroke="#302B29" stroke-width="0.34" stroke-miterlimit="10"/>
<path fill-rule="evenodd" clip-rule="evenodd" d="M220.691 541.67C210.491 523.46 217.741 505.14 230.181 495.4C230.421 495.45 230.481 495.69 230.771 495.69C240.721 510.11 233.551 535.09 220.691 541.66V541.67Z" stroke="#302B29" stroke-width="0.34" stroke-miterlimit="10"/>
<path fill-rule="evenodd" clip-rule="evenodd" d="M273.482 546.41C267.732 540.6 263.502 531.55 263.992 521.79C264.452 512.59 268.652 505.24 272.892 499.25H273.782C279.022 505.53 283.542 513.95 282.682 525.35C282.022 534.11 277.292 541.06 273.492 546.41H273.482Z" stroke="#302B29" stroke-width="0.34" stroke-miterlimit="10"/>
<path d="M242.231 265.82C242.231 265.4 242.431 265.23 242.861 265.23C243.071 265.23 243.251 265.31 243.361 265.49L245.121 268.33H245.131V265.71C245.131 265.38 245.311 265.22 245.621 265.22C245.931 265.22 246.101 265.38 246.101 265.71V269.18C246.101 269.58 245.931 269.81 245.501 269.81C245.181 269.81 245.081 269.74 244.951 269.54L243.201 266.78H243.191V269.33C243.191 269.66 243.011 269.82 242.711 269.82C242.411 269.82 242.221 269.66 242.221 269.33V265.82H242.231Z" fill="#EAE6E4" style="fill:#EAE6E4;fill:color(display-p3 0.9176 0.9020 0.8941);fill-opacity:1;"/>
<path d="M249.06 269.02C249.98 269.02 250.29 268.31 250.29 267.46C250.29 266.61 249.88 266.01 249.06 266.01C248.24 266.01 247.83 266.61 247.83 267.46C247.83 268.31 248.11 269.02 249.06 269.02ZM249.06 265.21C250.51 265.21 251.3 266.17 251.3 267.47C251.3 268.77 250.57 269.84 249.06 269.84C247.55 269.84 246.83 268.81 246.83 267.47C246.83 266.13 247.62 265.21 249.06 265.21Z" fill="#EAE6E4" style="fill:#EAE6E4;fill:color(display-p3 0.9176 0.9020 0.8941);fill-opacity:1;"/>
<path d="M253.041 267.271H254.051C254.431 267.271 254.811 267.171 254.811 266.671C254.811 266.201 254.521 266.081 254.081 266.081H253.041V267.271ZM252.031 265.901C252.031 265.451 252.261 265.311 252.621 265.311H254.301C255.501 265.311 255.821 265.971 255.821 266.541C255.821 267.021 255.541 267.491 255.061 267.601C255.581 267.691 255.671 268.061 255.671 268.511C255.671 269.021 255.801 269.211 255.801 269.421C255.801 269.651 255.561 269.811 255.331 269.811C254.781 269.811 254.731 269.281 254.731 269.101C254.731 268.331 254.591 268.011 254.041 268.011H253.051V269.311C253.051 269.611 252.851 269.811 252.551 269.811C252.251 269.811 252.051 269.611 252.051 269.311V265.901H252.031Z" fill="#EAE6E4" style="fill:#EAE6E4;fill:color(display-p3 0.9176 0.9020 0.8941);fill-opacity:1;"/>
<path d="M257.59 268.921H258.44C259.24 268.921 259.5 268.201 259.5 267.521C259.5 266.651 259.17 266.121 258.43 266.121H257.59V268.921ZM256.58 265.901C256.58 265.451 256.81 265.311 257.17 265.311H258.4C259.5 265.311 260.51 265.791 260.51 267.521C260.51 268.921 259.73 269.731 258.39 269.731H257.18C256.82 269.731 256.59 269.591 256.59 269.141V265.901H256.58Z" fill="#EAE6E4" style="fill:#EAE6E4;fill:color(display-p3 0.9176 0.9020 0.8941);fill-opacity:1;"/>
<path d="M261.24 265.73C261.24 265.43 261.44 265.23 261.74 265.23C262.04 265.23 262.24 265.43 262.24 265.73V269.3C262.24 269.6 262.04 269.8 261.74 269.8C261.44 269.8 261.24 269.6 261.24 269.3V265.73Z" fill="#EAE6E4" style="fill:#EAE6E4;fill:color(display-p3 0.9176 0.9020 0.8941);fill-opacity:1;"/>
<path d="M265.5 267.17C266.42 267.38 266.65 267.93 266.65 268.44C266.65 269.24 266.05 269.83 264.83 269.83C263.55 269.83 262.98 269.19 262.98 268.71C262.98 268.46 263.16 268.29 263.4 268.29C263.95 268.29 263.8 269.09 264.82 269.09C265.34 269.09 265.63 268.8 265.63 268.51C265.63 268.33 265.54 268.14 265.2 268.05L264.06 267.76C263.14 267.53 262.98 267.02 262.98 266.55C262.98 265.57 263.89 265.2 264.74 265.2C265.53 265.2 266.45 265.64 266.45 266.23C266.45 266.48 266.23 266.63 265.99 266.63C265.52 266.63 265.61 265.97 264.67 265.97C264.2 265.97 263.94 266.18 263.94 266.49C263.94 266.8 264.31 266.9 264.63 266.97L265.47 267.16L265.5 267.17Z" fill="#EAE6E4" style="fill:#EAE6E4;fill:color(display-p3 0.9176 0.9020 0.8941);fill-opacity:1;"/>
<path d="M267.391 265.73C267.391 265.43 267.591 265.23 267.891 265.23C268.191 265.23 268.391 265.43 268.391 265.73V267.19L269.971 265.45C270.091 265.33 270.191 265.23 270.371 265.23C270.611 265.23 270.851 265.38 270.851 265.64C270.851 265.79 270.771 265.9 270.681 265.98L269.651 267.07L270.871 268.93C270.961 269.07 271.061 269.2 271.061 269.33C271.061 269.7 270.781 269.82 270.551 269.82C270.351 269.82 270.241 269.77 270.101 269.56L268.941 267.77L268.391 268.32V269.32C268.391 269.62 268.191 269.82 267.891 269.82C267.591 269.82 267.391 269.62 267.391 269.32V265.75V265.73Z" fill="#EAE6E4" style="fill:#EAE6E4;fill:color(display-p3 0.9176 0.9020 0.8941);fill-opacity:1;"/>
<path d="M242.951 273.64C243.051 273.63 247.621 273.64 247.621 273.64C247.621 273.64 249.931 278.12 250.001 278.19C250.131 278.31 250.301 278.32 250.431 278.19C250.501 278.11 252.841 273.66 252.841 273.66C252.841 273.66 257.131 273.65 257.261 273.65C257.391 273.65 257.541 273.83 257.571 274.03C257.601 274.22 257.591 274.23 257.561 274.34C257.491 274.46 252.561 283.48 252.561 284.08V288.36C252.561 288.62 252.501 288.8 252.261 288.8C252.021 288.8 248.231 288.79 247.981 288.79C247.731 288.79 247.691 288.67 247.691 288.37C247.691 288.07 247.681 284.27 247.681 283.94C247.681 283.61 242.931 274.77 242.831 274.48C242.761 274.24 242.761 274.14 242.761 274.14C242.761 274.14 242.721 273.67 242.941 273.65" fill="#EAE6E4" style="fill:#EAE6E4;fill:color(display-p3 0.9176 0.9020 0.8941);fill-opacity:1;"/>
<path d="M267.971 281.22C267.901 278.65 265.751 278.07 264.781 278.07C263.811 278.07 261.821 278.74 261.821 281.34C261.821 283.75 263.541 284.62 265.011 284.51C265.941 284.44 268.041 283.8 267.971 281.22ZM264.971 288.92C264.971 288.92 256.961 288.94 256.961 281.1C257.391 276.02 261.131 273.74 264.821 273.62C267.681 273.64 272.381 275 272.711 280.82C273.051 286.73 268.541 288.92 264.961 288.92" fill="#EAE6E4" style="fill:#EAE6E4;fill:color(display-p3 0.9176 0.9020 0.8941);fill-opacity:1;"/>
<path d="M288.202 279.51C288.202 279.21 288.011 279.08 287.871 279.08C287.561 279.08 283.041 279.08 282.751 279.08C282.661 279.08 282.591 279.16 282.591 279.23C282.591 279.57 282.591 282.15 282.591 282.37C282.591 282.53 282.591 282.66 282.711 282.66C282.801 282.66 283.401 282.66 283.711 282.66C284.051 282.66 284.311 282.84 284.311 283.52C284.311 284.16 284.161 284.66 283.711 284.66H282.172C281.012 284.66 279.142 283.47 279.142 280.54C279.042 277.93 281.392 277.4 281.572 277.37C282.192 277.26 282.801 277.24 282.971 277.24C285.311 277.21 286.711 277.92 286.871 277.96C287.151 278 287.531 277.99 287.811 277.94C287.911 277.92 288.072 277.87 288.102 277.73C288.142 277.57 288.121 274.87 288.121 274.63C288.121 274.12 287.572 273.85 287.322 273.79C286.222 273.6 282.222 273.62 279.822 273.79C278.442 273.81 274.271 275.18 274.271 280.21C274.271 285.56 278.501 288.79 282.441 288.79C285.481 288.79 287.162 288.79 287.292 288.79C287.972 288.79 288.161 288.45 288.161 288.1C288.161 287.82 288.241 279.99 288.211 279.52" fill="#EAE6E4" style="fill:#EAE6E4;fill:color(display-p3 0.9176 0.9020 0.8941);fill-opacity:1;"/>
<path d="M296.02 281.79C296.02 282.28 296.45 282.65 297.28 282.65C298.11 282.65 298.59 282.36 298.59 281.92C298.59 281.48 297.61 278.49 297.35 278.49C297.02 278.49 296.02 281.3 296.02 281.79ZM294.2 273.78C294.48 273.76 299.41 273.77 300.13 273.78C300.71 273.84 301.19 274.43 301.29 274.64C301.48 274.99 305.11 287.37 305.15 287.65C305.36 288.93 304.52 288.79 303.86 288.79H301.02C300.1 288.79 299.87 288.21 299.87 287.47C299.87 287.08 299.66 286.65 299.3 286.65H295.59C295.24 286.65 294.87 287 294.87 287.36C294.87 288.07 294.82 288.79 294.02 288.79C293.32 288.79 291.26 288.77 290.56 288.77C289.86 288.77 289.58 288.23 289.58 287.64C289.58 287.05 293.16 274.98 293.3 274.63C293.44 274.27 293.73 273.81 294.19 273.77" fill="#EAE6E4" style="fill:#EAE6E4;fill:color(display-p3 0.9176 0.9020 0.8941);fill-opacity:1;"/>
<path d="M275.102 255.62C275.332 262.31 280.842 269.76 289.242 269.83C288.822 262.09 282.782 255.85 275.102 255.62Z" fill="#EAE6E4" style="fill:#EAE6E4;fill:color(display-p3 0.9176 0.9020 0.8941);fill-opacity:1;"/>
<path d="M290 249.37C288.16 251.31 285.93 255.77 286.01 259.19C287.72 260.58 290.29 265.52 290.42 268.9C293.44 264.88 296.69 255.64 290 249.37Z" fill="#EAE6E4" style="fill:#EAE6E4;fill:color(display-p3 0.9176 0.9020 0.8941);fill-opacity:1;"/>
<path d="M304.692 255.72C302.022 255.79 297.282 257.37 294.932 259.84C295.152 262.03 293.482 267.34 291.182 269.83C296.152 269.12 304.992 264.89 304.692 255.72Z" fill="#EAE6E4" style="fill:#EAE6E4;fill:color(display-p3 0.9176 0.9020 0.8941);fill-opacity:1;"/>
</svg>
