<svg width="76" height="57" viewBox="0 0 76 57" fill="none" xmlns="http://www.w3.org/2000/svg">
<g clip-path="url(#clip0_2021_1597)">
<path d="M20 8.24731C20.2929 17.0694 27.3678 26.907 38.1519 27.0001C37.6114 16.7902 29.8601 8.54841 20 8.24731Z" fill="#EAE6E4"/>
<path d="M39.5898 0C37.2306 2.56204 34.3655 8.45255 34.4667 12.9553C36.6582 14.792 39.96 21.3038 40.1277 25.7737C44.002 20.4745 48.1825 8.28011 39.5898 0.00273723" fill="#EAE6E4"/>
<path d="M57.9894 8.38135C54.5571 8.47989 48.4807 10.5629 45.4558 13.8202C45.7408 16.7107 43.5946 23.7153 40.6416 27C47.0269 26.0666 58.3701 20.4826 57.9894 8.38135Z" fill="#EAE6E4"/>
</g>
<path d="M12.5003 43.8C12.5003 41.9067 12.4936 40.4467 12.4803 39.42C12.467 38.3933 12.4336 37.6867 12.3803 37.3C12.527 37.3267 12.667 37.3533 12.8003 37.38C12.9336 37.3933 13.067 37.4 13.2003 37.4C13.3736 37.4 13.5736 37.3667 13.8003 37.3C13.7603 37.7667 13.7203 38.3267 13.6803 38.98C13.6403 39.62 13.607 40.3133 13.5803 41.06C13.5536 41.7933 13.527 42.5533 13.5003 43.34C13.4736 44.1133 13.4536 44.8667 13.4403 45.6C13.427 46.4933 13.287 47.2933 13.0203 48C12.767 48.7067 12.4003 49.3067 11.9203 49.8C11.4403 50.2933 10.847 50.6667 10.1403 50.92C9.44698 51.1733 8.64698 51.3 7.74031 51.3C5.74031 51.3 4.28698 50.8467 3.38031 49.94C2.47365 49.0333 2.02031 47.6 2.02031 45.64C2.02031 45.0133 2.03365 44.46 2.06031 43.98C2.10031 43.4867 2.12031 42.9867 2.12031 42.48C2.12031 41.36 2.10698 40.3667 2.08031 39.5C2.05365 38.6333 2.02698 37.9 2.00031 37.3C2.16031 37.3267 2.33365 37.3533 2.52031 37.38C2.70698 37.3933 2.88031 37.4 3.04031 37.4C3.18698 37.4 3.32698 37.3933 3.46031 37.38C3.60698 37.3533 3.75365 37.3267 3.90031 37.3C3.87365 37.5933 3.84698 37.98 3.82031 38.46C3.79365 38.9267 3.76698 39.46 3.74031 40.06C3.71365 40.66 3.69365 41.3067 3.68031 42C3.66698 42.6933 3.66031 43.4133 3.66031 44.16C3.66031 44.6133 3.66698 45.0867 3.68031 45.58C3.69365 46.06 3.74031 46.5333 3.82031 47C3.90031 47.4533 4.02698 47.8933 4.20031 48.32C4.38698 48.7333 4.64698 49.1 4.98031 49.42C5.31365 49.7267 5.73365 49.9733 6.24031 50.16C6.74698 50.3333 7.37365 50.42 8.12031 50.42C8.85365 50.42 9.46698 50.3133 9.96031 50.1C10.467 49.8867 10.8803 49.6067 11.2003 49.26C11.5203 48.9133 11.767 48.5133 11.9403 48.06C12.127 47.6067 12.2603 47.1333 12.3403 46.64C12.4203 46.1467 12.467 45.6533 12.4803 45.16C12.4936 44.6667 12.5003 44.2133 12.5003 43.8ZM24.1867 53.16C24.1867 52.36 23.9534 51.8 23.4867 51.48C23.0201 51.16 22.2467 51 21.1667 51C20.1667 51 19.3934 51.16 18.8467 51.48C18.3001 51.8133 18.0267 52.4067 18.0267 53.26C18.0267 53.7133 18.1001 54.1 18.2467 54.42C18.4067 54.74 18.6134 55 18.8667 55.2C19.1334 55.4 19.4467 55.5467 19.8067 55.64C20.1667 55.7333 20.5534 55.78 20.9667 55.78C21.3667 55.78 21.7601 55.7267 22.1467 55.62C22.5334 55.5133 22.8734 55.3533 23.1667 55.14C23.4734 54.9267 23.7201 54.6533 23.9067 54.32C24.0934 54 24.1867 53.6133 24.1867 53.16ZM23.1067 44.5C23.1067 43.66 22.9067 43.02 22.5067 42.58C22.1067 42.14 21.5801 41.92 20.9267 41.92C20.2067 41.92 19.6467 42.1667 19.2467 42.66C18.8467 43.14 18.6467 43.7867 18.6467 44.6C18.6467 45.44 18.8267 46.1067 19.1867 46.6C19.5601 47.08 20.1334 47.32 20.9067 47.32C21.2934 47.32 21.6201 47.2467 21.8867 47.1C22.1667 46.94 22.3934 46.7333 22.5667 46.48C22.7534 46.2133 22.8867 45.9133 22.9667 45.58C23.0601 45.2333 23.1067 44.8733 23.1067 44.5ZM17.0867 44.6C17.0867 44.04 17.1867 43.56 17.3867 43.16C17.5867 42.7467 17.8601 42.4067 18.2067 42.14C18.5667 41.8733 18.9734 41.6733 19.4267 41.54C19.8934 41.4067 20.3867 41.34 20.9067 41.34C21.1601 41.34 21.4001 41.3467 21.6267 41.36C21.8667 41.3733 22.1667 41.3933 22.5267 41.42C22.8334 41.4467 23.1067 41.4667 23.3467 41.48C23.5867 41.4933 23.7801 41.5 23.9267 41.5C24.6734 41.5 25.2134 41.4667 25.5467 41.4C25.5334 41.4667 25.5201 41.54 25.5067 41.62C25.5067 41.6867 25.5067 41.7533 25.5067 41.82C25.5067 41.8867 25.5067 41.96 25.5067 42.04C25.5201 42.1067 25.5334 42.1733 25.5467 42.24C25.1601 42.2133 24.7801 42.1867 24.4067 42.16C24.0467 42.12 23.6867 42.0933 23.3267 42.08L23.2867 42.12C23.7001 42.3467 24.0334 42.7 24.2867 43.18C24.5401 43.6467 24.6667 44.1333 24.6667 44.64C24.6667 45.64 24.3267 46.4267 23.6467 47C22.9801 47.56 22.0801 47.84 20.9467 47.84C20.7601 47.84 20.5734 47.8333 20.3867 47.82C20.2134 47.8067 20.0334 47.8 19.8467 47.8C19.6067 47.8 19.3801 47.8867 19.1667 48.06C18.9667 48.2333 18.8667 48.4533 18.8667 48.72C18.8667 49.0667 18.9467 49.32 19.1067 49.48C19.2801 49.64 19.5934 49.7267 20.0467 49.74C20.4201 49.7533 20.7867 49.7667 21.1467 49.78C21.5067 49.78 21.8734 49.7867 22.2467 49.8C22.8601 49.8133 23.3801 49.8867 23.8067 50.02C24.2467 50.1533 24.6001 50.3333 24.8667 50.56C25.1467 50.7867 25.3467 51.0467 25.4667 51.34C25.6001 51.6333 25.6667 51.9533 25.6667 52.3C25.6667 52.7667 25.5734 53.24 25.3867 53.72C25.2134 54.2 24.9334 54.6333 24.5467 55.02C24.1734 55.4067 23.6867 55.7267 23.0867 55.98C22.4867 56.2333 21.7667 56.36 20.9267 56.36C19.6334 56.36 18.6134 56.1 17.8667 55.58C17.1201 55.0733 16.7467 54.3733 16.7467 53.48C16.7467 53.1333 16.8067 52.8133 16.9267 52.52C17.0601 52.2267 17.2267 51.9667 17.4267 51.74C17.6267 51.5133 17.8534 51.3333 18.1067 51.2C18.3601 51.0667 18.6201 50.9667 18.8867 50.9V50.86C18.4734 50.74 18.1601 50.54 17.9467 50.26C17.7334 49.98 17.6267 49.6467 17.6267 49.26C17.6267 49.0333 17.6667 48.8267 17.7467 48.64C17.8401 48.4533 17.9534 48.2867 18.0867 48.14C18.2201 47.9933 18.3734 47.8733 18.5467 47.78C18.7201 47.6867 18.8867 47.6267 19.0467 47.6V47.56C18.4334 47.2933 17.9534 46.92 17.6067 46.44C17.2601 45.9467 17.0867 45.3333 17.0867 44.6ZM31.8067 41.98C31.3134 41.98 30.8934 42.0933 30.5467 42.32C30.2134 42.5467 29.9334 42.8333 29.7067 43.18C29.4934 43.5133 29.3267 43.8867 29.2067 44.3C29.1001 44.7 29.0334 45.08 29.0067 45.44C29.4201 45.4533 29.8467 45.4667 30.2867 45.48C30.7401 45.4933 31.1801 45.5 31.6067 45.5C32.0467 45.5 32.4934 45.4933 32.9467 45.48C33.4001 45.4667 33.8401 45.4533 34.2667 45.44C34.2667 45.08 34.2334 44.7 34.1667 44.3C34.1134 43.9 33.9934 43.5267 33.8067 43.18C33.6334 42.8333 33.3867 42.5467 33.0667 42.32C32.7467 42.0933 32.3267 41.98 31.8067 41.98ZM27.1867 46.6C27.1867 44.96 27.5734 43.6733 28.3467 42.74C29.1334 41.8067 30.2734 41.34 31.7667 41.34C32.4734 41.34 33.0801 41.4533 33.5867 41.68C34.1067 41.8933 34.5401 42.1867 34.8867 42.56C35.2334 42.92 35.4867 43.3467 35.6467 43.84C35.8201 44.3333 35.9067 44.86 35.9067 45.42C35.9067 45.5533 35.9001 45.6867 35.8867 45.82C35.8867 45.94 35.8801 46.0667 35.8667 46.2C35.1467 46.1867 34.4334 46.1733 33.7267 46.16C33.0201 46.1467 32.3067 46.14 31.5867 46.14C31.1467 46.14 30.7067 46.1467 30.2667 46.16C29.8401 46.1733 29.4067 46.1867 28.9667 46.2C28.9534 46.2667 28.9467 46.3667 28.9467 46.5V46.76C28.9467 47.28 29.0201 47.7667 29.1667 48.22C29.3267 48.6733 29.5534 49.0667 29.8467 49.4C30.1401 49.72 30.5001 49.98 30.9267 50.18C31.3534 50.3667 31.8467 50.46 32.4067 50.46C32.6734 50.46 32.9467 50.4267 33.2267 50.36C33.5067 50.28 33.7801 50.18 34.0467 50.06C34.3134 49.9267 34.5601 49.7733 34.7867 49.6C35.0267 49.4267 35.2334 49.24 35.4067 49.04L35.5067 49.1L35.3867 50.08C34.9867 50.4 34.4867 50.6733 33.8867 50.9C33.3001 51.1267 32.6867 51.24 32.0467 51.24C31.3267 51.24 30.6667 51.1333 30.0667 50.92C29.4801 50.6933 28.9667 50.3733 28.5267 49.96C28.1001 49.5333 27.7667 49.0333 27.5267 48.46C27.3001 47.8867 27.1867 47.2667 27.1867 46.6ZM38.1867 47.36C38.1867 46.9067 38.1801 46.4133 38.1667 45.88C38.1667 45.3467 38.1601 44.82 38.1467 44.3C38.1334 43.7667 38.1134 43.26 38.0867 42.78C38.0734 42.3 38.0534 41.8867 38.0267 41.54C38.4001 41.6067 38.7001 41.64 38.9267 41.64C39.1534 41.64 39.4534 41.6067 39.8267 41.54C39.7734 41.8867 39.7334 42.22 39.7067 42.54C39.6801 42.86 39.6667 43.18 39.6667 43.5H39.7067C39.8001 43.2867 39.9334 43.06 40.1067 42.82C40.2801 42.5667 40.5001 42.3333 40.7667 42.12C41.0467 41.8933 41.3801 41.7067 41.7667 41.56C42.1534 41.4133 42.5934 41.34 43.0867 41.34C43.5934 41.34 44.0934 41.44 44.5867 41.64C45.0801 41.8267 45.5134 42.12 45.8867 42.52C46.2734 42.92 46.5801 43.4333 46.8067 44.06C47.0467 44.6733 47.1667 45.4067 47.1667 46.26C47.1667 47.1133 47.0401 47.8533 46.7867 48.48C46.5334 49.1067 46.2001 49.6267 45.7867 50.04C45.3867 50.4533 44.9267 50.76 44.4067 50.96C43.8867 51.1467 43.3667 51.24 42.8467 51.24C41.3801 51.24 40.3334 50.6067 39.7067 49.34H39.6667V50.6C39.6667 51.0267 39.6667 51.5 39.6667 52.02C39.6801 52.5533 39.6934 53.08 39.7067 53.6C39.7201 54.12 39.7334 54.6133 39.7467 55.08C39.7734 55.56 39.8001 55.9667 39.8267 56.3C39.4534 56.2333 39.1534 56.2 38.9267 56.2C38.7001 56.2 38.4001 56.2333 38.0267 56.3C38.0534 55.9667 38.0734 55.56 38.0867 55.08C38.1134 54.6133 38.1334 54.12 38.1467 53.6C38.1601 53.08 38.1667 52.5533 38.1667 52.02C38.1801 51.5 38.1867 51.0267 38.1867 50.6V47.36ZM45.4067 46.24C45.4067 45.44 45.3201 44.78 45.1467 44.26C44.9867 43.74 44.7734 43.3267 44.5067 43.02C44.2534 42.7 43.9601 42.48 43.6267 42.36C43.2934 42.24 42.9667 42.18 42.6467 42.18C42.1134 42.18 41.6534 42.2933 41.2667 42.52C40.8934 42.7467 40.5867 43.0533 40.3467 43.44C40.1067 43.8133 39.9334 44.26 39.8267 44.78C39.7201 45.2867 39.6667 45.8267 39.6667 46.4C39.6667 49.1733 40.6401 50.56 42.5867 50.56C43.0667 50.56 43.4801 50.4533 43.8267 50.24C44.1867 50.0133 44.4801 49.7067 44.7067 49.32C44.9467 48.92 45.1201 48.46 45.2267 47.94C45.3467 47.4067 45.4067 46.84 45.4067 46.24ZM50.44 41.72C50.44 41.2667 50.4333 40.7733 50.42 40.24C50.42 39.7067 50.4133 39.18 50.4 38.66C50.3867 38.14 50.3667 37.6467 50.34 37.18C50.3267 36.7 50.3067 36.2933 50.28 35.96C50.6533 36.0267 50.9533 36.06 51.18 36.06C51.4067 36.06 51.7067 36.0267 52.08 35.96C52.0533 36.2933 52.0267 36.7 52 37.18C51.9867 37.6467 51.9733 38.14 51.96 38.66C51.9467 39.18 51.9333 39.7067 51.92 40.24C51.92 40.7733 51.92 41.2667 51.92 41.72V45.34C51.92 45.7933 51.92 46.2867 51.92 46.82C51.9333 47.3533 51.9467 47.88 51.96 48.4C51.9733 48.92 51.9867 49.4133 52 49.88C52.0267 50.3467 52.0533 50.7333 52.08 51.04C51.7733 51.0133 51.4733 51 51.18 51C50.8867 51 50.5867 51.0133 50.28 51.04C50.3067 50.7333 50.3267 50.3467 50.34 49.88C50.3667 49.4133 50.3867 48.92 50.4 48.4C50.4133 47.88 50.42 47.3533 50.42 46.82C50.4333 46.2867 50.44 45.7933 50.44 45.34V41.72ZM61.0264 46.06C60.7997 46.14 60.5331 46.2067 60.2264 46.26C59.9331 46.3133 59.6331 46.3733 59.3264 46.44C59.0197 46.4933 58.7131 46.5667 58.4064 46.66C58.1131 46.7533 57.8464 46.88 57.6064 47.04C57.3797 47.2 57.1931 47.4 57.0464 47.64C56.9131 47.88 56.8464 48.1867 56.8464 48.56C56.8464 49.1867 57.0264 49.66 57.3864 49.98C57.7464 50.3 58.1464 50.46 58.5864 50.46C59.0931 50.46 59.5531 50.32 59.9664 50.04C60.3931 49.76 60.7197 49.4333 60.9464 49.06L61.0264 46.06ZM56.0864 42.5C56.6864 42.0467 57.2397 41.74 57.7464 41.58C58.2531 41.42 58.7731 41.34 59.3064 41.34C59.7864 41.34 60.2264 41.4133 60.6264 41.56C61.0264 41.6933 61.3664 41.8933 61.6464 42.16C61.9264 42.4133 62.1464 42.7267 62.3064 43.1C62.4664 43.46 62.5464 43.86 62.5464 44.3C62.5464 45.06 62.5331 45.82 62.5064 46.58C62.4797 47.3267 62.4664 48.12 62.4664 48.96C62.4664 49.12 62.4664 49.2933 62.4664 49.48C62.4797 49.6533 62.5131 49.8133 62.5664 49.96C62.6197 50.0933 62.6931 50.2067 62.7864 50.3C62.8931 50.3933 63.0464 50.44 63.2464 50.44C63.3131 50.44 63.3797 50.44 63.4464 50.44C63.5264 50.4267 63.5997 50.4 63.6664 50.36V50.8C63.5197 50.8667 63.3331 50.92 63.1064 50.96C62.8931 51 62.6531 51.02 62.3864 51.02C61.9597 51.02 61.6331 50.9133 61.4064 50.7C61.1797 50.4733 61.0464 50.1867 61.0064 49.84C60.5264 50.32 60.0531 50.6733 59.5864 50.9C59.1197 51.1267 58.5464 51.24 57.8664 51.24C57.5331 51.24 57.2064 51.1933 56.8864 51.1C56.5664 51.0067 56.2797 50.8533 56.0264 50.64C55.7864 50.4267 55.5864 50.1733 55.4264 49.88C55.2797 49.5733 55.2064 49.2267 55.2064 48.84C55.2064 48.04 55.4531 47.42 55.9464 46.98C56.4531 46.54 57.1464 46.2467 58.0264 46.1C58.7464 45.98 59.3064 45.88 59.7064 45.8C60.1197 45.7067 60.4197 45.6133 60.6064 45.52C60.8064 45.4267 60.9264 45.32 60.9664 45.2C61.0064 45.0667 61.0264 44.9 61.0264 44.7C61.0264 44.3667 60.9864 44.0467 60.9064 43.74C60.8264 43.4333 60.6997 43.1667 60.5264 42.94C60.3531 42.7133 60.1264 42.5333 59.8464 42.4C59.5664 42.2533 59.2264 42.18 58.8264 42.18C58.2931 42.18 57.7931 42.3 57.3264 42.54C56.8731 42.78 56.5331 43.1133 56.3064 43.54H56.0864V42.5ZM72.8064 45.42C72.8064 44.42 72.6131 43.6667 72.2264 43.16C71.8397 42.64 71.3064 42.38 70.6264 42.38C69.6931 42.38 69.0064 42.6667 68.5664 43.24C68.1397 43.8133 67.9264 44.62 67.9264 45.66V47.36C67.9264 47.96 67.9331 48.5933 67.9464 49.26C67.9731 49.9133 68.0197 50.5067 68.0864 51.04C67.7797 51.0133 67.4797 51 67.1864 51C66.8931 51 66.5931 51.0133 66.2864 51.04C66.3531 50.5067 66.3931 49.9133 66.4064 49.26C66.4331 48.5933 66.4464 47.96 66.4464 47.36V45.28C66.4464 44.68 66.4331 44.0533 66.4064 43.4C66.3931 42.7333 66.3531 42.1133 66.2864 41.54C66.6597 41.6067 66.9597 41.64 67.1864 41.64C67.2931 41.64 67.4064 41.6333 67.5264 41.62C67.6597 41.5933 67.8131 41.5667 67.9864 41.54C67.9464 42.0733 67.9264 42.6067 67.9264 43.14H67.9664C68.3397 42.5667 68.7864 42.1267 69.3064 41.82C69.8264 41.5 70.4464 41.34 71.1664 41.34C71.5397 41.34 71.9131 41.3933 72.2864 41.5C72.6731 41.6067 73.0197 41.7933 73.3264 42.06C73.6331 42.3133 73.8797 42.6667 74.0664 43.12C74.2664 43.56 74.3664 44.1267 74.3664 44.82C74.3664 45.3933 74.3531 45.9867 74.3264 46.6C74.2997 47.2 74.2864 47.84 74.2864 48.52V49.82C74.2864 50.0333 74.2864 50.2467 74.2864 50.46C74.2997 50.66 74.3131 50.8533 74.3264 51.04C74.0597 51.0133 73.7797 51 73.4864 51C73.2064 51 72.9331 51.0133 72.6664 51.04C72.6931 50.3467 72.7197 49.6333 72.7464 48.9C72.7864 48.1667 72.8064 47.4133 72.8064 46.64V45.42Z" fill="white"/>
<defs>
<clipPath id="clip0_2021_1597">
<rect width="38" height="27" fill="white" transform="translate(20)"/>
</clipPath>
</defs>
</svg>
