<svg width="42" height="57" viewBox="0 0 42 57" fill="none" xmlns="http://www.w3.org/2000/svg">
<g clip-path="url(#clip0_2021_1598)">
<path d="M2 8.24731C2.2929 17.0694 9.36781 26.907 20.1519 27.0001C19.6114 16.7902 11.8601 8.54841 2 8.24731Z" fill="#EAE6E4"/>
<path d="M21.5898 0C19.2306 2.56204 16.3655 8.45255 16.4667 12.9553C18.6582 14.792 21.96 21.3038 22.1277 25.7737C26.002 20.4745 30.1825 8.28011 21.5898 0.00273723" fill="#EAE6E4"/>
<path d="M39.9894 8.38135C36.5571 8.47989 30.4807 10.5629 27.4558 13.8202C27.7408 16.7107 25.5946 23.7153 22.6416 27C29.0269 26.0666 40.3701 20.4826 39.9894 8.38135Z" fill="#EAE6E4"/>
</g>
<path d="M5.31914 45.42C5.18581 45.1933 4.98581 44.8667 4.71914 44.44C4.46581 44 4.17914 43.52 3.85914 43C3.55247 42.4667 3.22581 41.9133 2.87914 41.34C2.53247 40.7533 2.19914 40.2 1.87914 39.68C1.57247 39.1467 1.29247 38.6733 1.03914 38.26C0.785807 37.8333 0.592474 37.5133 0.45914 37.3C0.645807 37.3267 0.825807 37.3533 0.99914 37.38C1.18581 37.3933 1.37247 37.4 1.55914 37.4C1.74581 37.4 1.92581 37.3933 2.09914 37.38C2.28581 37.3533 2.47247 37.3267 2.65914 37.3C3.25914 38.46 3.86581 39.6 4.47914 40.72C5.10581 41.84 5.76581 43.0067 6.45914 44.22C6.76581 43.74 7.08581 43.2133 7.41914 42.64C7.75247 42.0667 8.08581 41.48 8.41914 40.88C8.75247 40.28 9.07247 39.68 9.37914 39.08C9.68581 38.4667 9.97247 37.8733 10.2391 37.3C10.5725 37.3667 10.8325 37.4 11.0191 37.4C11.2058 37.4 11.4658 37.3667 11.7991 37.3C11.1591 38.2733 10.5858 39.1533 10.0791 39.94C9.57247 40.7267 9.12581 41.44 8.73914 42.08C8.35247 42.72 8.01247 43.3 7.71914 43.82C7.42581 44.3267 7.17247 44.7867 6.95914 45.2C6.95914 45.6933 6.95914 46.22 6.95914 46.78C6.97247 47.34 6.98581 47.8933 6.99914 48.44C7.01247 48.9733 7.02581 49.4733 7.03914 49.94C7.06581 50.3933 7.09247 50.76 7.11914 51.04C6.81247 51.0133 6.48581 51 6.13914 51C5.79247 51 5.46581 51.0133 5.15914 51.04C5.23914 50.3467 5.28581 49.5067 5.29914 48.52C5.31247 47.5333 5.31914 46.5 5.31914 45.42ZM12.5276 46.32C12.5276 46.88 12.5742 47.42 12.6676 47.94C12.7742 48.46 12.9476 48.9267 13.1876 49.34C13.4276 49.74 13.7476 50.06 14.1476 50.3C14.5476 50.54 15.0409 50.66 15.6276 50.66C16.2142 50.66 16.7076 50.54 17.1076 50.3C17.5076 50.06 17.8276 49.74 18.0676 49.34C18.3076 48.9267 18.4742 48.46 18.5676 47.94C18.6742 47.42 18.7276 46.88 18.7276 46.32C18.7276 45.76 18.6742 45.22 18.5676 44.7C18.4742 44.18 18.3076 43.72 18.0676 43.32C17.8276 42.9067 17.5076 42.58 17.1076 42.34C16.7076 42.1 16.2142 41.98 15.6276 41.98C15.0409 41.98 14.5476 42.1 14.1476 42.34C13.7476 42.58 13.4276 42.9067 13.1876 43.32C12.9476 43.72 12.7742 44.18 12.6676 44.7C12.5742 45.22 12.5276 45.76 12.5276 46.32ZM10.7676 46.32C10.7676 45.4133 10.9076 44.6467 11.1876 44.02C11.4809 43.38 11.8609 42.8667 12.3276 42.48C12.7942 42.08 13.3142 41.7933 13.8876 41.62C14.4742 41.4333 15.0542 41.34 15.6276 41.34C16.2142 41.34 16.7942 41.4333 17.3676 41.62C17.9409 41.7933 18.4609 42.08 18.9276 42.48C19.3942 42.8667 19.7676 43.38 20.0476 44.02C20.3409 44.6467 20.4876 45.4133 20.4876 46.32C20.4876 47.2267 20.3409 48 20.0476 48.64C19.7676 49.2667 19.3942 49.78 18.9276 50.18C18.4609 50.5667 17.9409 50.84 17.3676 51C16.7942 51.16 16.2142 51.24 15.6276 51.24C15.0542 51.24 14.4742 51.16 13.8876 51C13.3142 50.84 12.7942 50.5667 12.3276 50.18C11.8609 49.78 11.4809 49.2667 11.1876 48.64C10.9076 48 10.7676 47.2267 10.7676 46.32ZM29.6809 53.16C29.6809 52.36 29.4475 51.8 28.9809 51.48C28.5142 51.16 27.7409 51 26.6609 51C25.6609 51 24.8875 51.16 24.3409 51.48C23.7942 51.8133 23.5209 52.4067 23.5209 53.26C23.5209 53.7133 23.5942 54.1 23.7409 54.42C23.9009 54.74 24.1075 55 24.3609 55.2C24.6275 55.4 24.9409 55.5467 25.3009 55.64C25.6609 55.7333 26.0475 55.78 26.4609 55.78C26.8609 55.78 27.2542 55.7267 27.6409 55.62C28.0275 55.5133 28.3675 55.3533 28.6609 55.14C28.9675 54.9267 29.2142 54.6533 29.4009 54.32C29.5875 54 29.6809 53.6133 29.6809 53.16ZM28.6009 44.5C28.6009 43.66 28.4009 43.02 28.0009 42.58C27.6009 42.14 27.0742 41.92 26.4209 41.92C25.7009 41.92 25.1409 42.1667 24.7409 42.66C24.3409 43.14 24.1409 43.7867 24.1409 44.6C24.1409 45.44 24.3209 46.1067 24.6809 46.6C25.0542 47.08 25.6275 47.32 26.4009 47.32C26.7875 47.32 27.1142 47.2467 27.3809 47.1C27.6609 46.94 27.8875 46.7333 28.0609 46.48C28.2475 46.2133 28.3809 45.9133 28.4609 45.58C28.5542 45.2333 28.6009 44.8733 28.6009 44.5ZM22.5809 44.6C22.5809 44.04 22.6809 43.56 22.8809 43.16C23.0809 42.7467 23.3542 42.4067 23.7009 42.14C24.0609 41.8733 24.4675 41.6733 24.9209 41.54C25.3875 41.4067 25.8809 41.34 26.4009 41.34C26.6542 41.34 26.8942 41.3467 27.1209 41.36C27.3609 41.3733 27.6609 41.3933 28.0209 41.42C28.3275 41.4467 28.6009 41.4667 28.8409 41.48C29.0809 41.4933 29.2742 41.5 29.4209 41.5C30.1675 41.5 30.7075 41.4667 31.0409 41.4C31.0275 41.4667 31.0142 41.54 31.0009 41.62C31.0009 41.6867 31.0009 41.7533 31.0009 41.82C31.0009 41.8867 31.0009 41.96 31.0009 42.04C31.0142 42.1067 31.0275 42.1733 31.0409 42.24C30.6542 42.2133 30.2742 42.1867 29.9009 42.16C29.5409 42.12 29.1809 42.0933 28.8209 42.08L28.7809 42.12C29.1942 42.3467 29.5275 42.7 29.7809 43.18C30.0342 43.6467 30.1609 44.1333 30.1609 44.64C30.1609 45.64 29.8209 46.4267 29.1409 47C28.4742 47.56 27.5742 47.84 26.4409 47.84C26.2542 47.84 26.0675 47.8333 25.8809 47.82C25.7075 47.8067 25.5275 47.8 25.3409 47.8C25.1009 47.8 24.8742 47.8867 24.6609 48.06C24.4609 48.2333 24.3609 48.4533 24.3609 48.72C24.3609 49.0667 24.4409 49.32 24.6009 49.48C24.7742 49.64 25.0875 49.7267 25.5409 49.74C25.9142 49.7533 26.2809 49.7667 26.6409 49.78C27.0009 49.78 27.3675 49.7867 27.7409 49.8C28.3542 49.8133 28.8742 49.8867 29.3009 50.02C29.7409 50.1533 30.0942 50.3333 30.3609 50.56C30.6409 50.7867 30.8409 51.0467 30.9609 51.34C31.0942 51.6333 31.1609 51.9533 31.1609 52.3C31.1609 52.7667 31.0675 53.24 30.8809 53.72C30.7075 54.2 30.4275 54.6333 30.0409 55.02C29.6675 55.4067 29.1809 55.7267 28.5809 55.98C27.9809 56.2333 27.2609 56.36 26.4209 56.36C25.1275 56.36 24.1075 56.1 23.3609 55.58C22.6142 55.0733 22.2409 54.3733 22.2409 53.48C22.2409 53.1333 22.3009 52.8133 22.4209 52.52C22.5542 52.2267 22.7209 51.9667 22.9209 51.74C23.1209 51.5133 23.3475 51.3333 23.6009 51.2C23.8542 51.0667 24.1142 50.9667 24.3809 50.9V50.86C23.9675 50.74 23.6542 50.54 23.4409 50.26C23.2275 49.98 23.1209 49.6467 23.1209 49.26C23.1209 49.0333 23.1609 48.8267 23.2409 48.64C23.3342 48.4533 23.4475 48.2867 23.5809 48.14C23.7142 47.9933 23.8675 47.8733 24.0409 47.78C24.2142 47.6867 24.3809 47.6267 24.5409 47.6V47.56C23.9275 47.2933 23.4475 46.92 23.1009 46.44C22.7542 45.9467 22.5809 45.3333 22.5809 44.6ZM38.6409 46.06C38.4142 46.14 38.1475 46.2067 37.8409 46.26C37.5475 46.3133 37.2475 46.3733 36.9409 46.44C36.6342 46.4933 36.3275 46.5667 36.0209 46.66C35.7275 46.7533 35.4609 46.88 35.2209 47.04C34.9942 47.2 34.8075 47.4 34.6609 47.64C34.5275 47.88 34.4609 48.1867 34.4609 48.56C34.4609 49.1867 34.6409 49.66 35.0009 49.98C35.3609 50.3 35.7609 50.46 36.2009 50.46C36.7075 50.46 37.1675 50.32 37.5809 50.04C38.0075 49.76 38.3342 49.4333 38.5609 49.06L38.6409 46.06ZM33.7009 42.5C34.3009 42.0467 34.8542 41.74 35.3609 41.58C35.8675 41.42 36.3875 41.34 36.9209 41.34C37.4009 41.34 37.8409 41.4133 38.2409 41.56C38.6409 41.6933 38.9809 41.8933 39.2609 42.16C39.5409 42.4133 39.7609 42.7267 39.9209 43.1C40.0809 43.46 40.1609 43.86 40.1609 44.3C40.1609 45.06 40.1475 45.82 40.1209 46.58C40.0942 47.3267 40.0809 48.12 40.0809 48.96C40.0809 49.12 40.0809 49.2933 40.0809 49.48C40.0942 49.6533 40.1275 49.8133 40.1809 49.96C40.2342 50.0933 40.3075 50.2067 40.4009 50.3C40.5075 50.3933 40.6609 50.44 40.8609 50.44C40.9275 50.44 40.9942 50.44 41.0609 50.44C41.1409 50.4267 41.2142 50.4 41.2809 50.36V50.8C41.1342 50.8667 40.9475 50.92 40.7209 50.96C40.5075 51 40.2675 51.02 40.0009 51.02C39.5742 51.02 39.2475 50.9133 39.0209 50.7C38.7942 50.4733 38.6609 50.1867 38.6209 49.84C38.1409 50.32 37.6675 50.6733 37.2009 50.9C36.7342 51.1267 36.1609 51.24 35.4809 51.24C35.1475 51.24 34.8209 51.1933 34.5009 51.1C34.1809 51.0067 33.8942 50.8533 33.6409 50.64C33.4009 50.4267 33.2009 50.1733 33.0409 49.88C32.8942 49.5733 32.8209 49.2267 32.8209 48.84C32.8209 48.04 33.0675 47.42 33.5609 46.98C34.0675 46.54 34.7609 46.2467 35.6409 46.1C36.3609 45.98 36.9209 45.88 37.3209 45.8C37.7342 45.7067 38.0342 45.6133 38.2209 45.52C38.4209 45.4267 38.5409 45.32 38.5809 45.2C38.6209 45.0667 38.6409 44.9 38.6409 44.7C38.6409 44.3667 38.6009 44.0467 38.5209 43.74C38.4409 43.4333 38.3142 43.1667 38.1409 42.94C37.9675 42.7133 37.7409 42.5333 37.4609 42.4C37.1809 42.2533 36.8409 42.18 36.4409 42.18C35.9075 42.18 35.4075 42.3 34.9409 42.54C34.4875 42.78 34.1475 43.1133 33.9209 43.54H33.7009V42.5Z" fill="white"/>
<defs>
<clipPath id="clip0_2021_1598">
<rect width="38" height="27" fill="white" transform="translate(2)"/>
</clipPath>
</defs>
</svg>
